<svg width="78" height="30" viewBox="0 0 78 30" fill="none" xmlns="http://www.w3.org/2000/svg">
<path d="M5.69501 10.1867C7.52152 9.17205 8.86534 9.02852 9.72613 9.75607C10.8129 10.6747 10.7511 12.3792 9.54087 14.8692C8.75599 16.4841 7.77042 18.114 6.58404 19.7588L8.4543 21.3398C10.8075 18.5556 13.0989 16.5589 15.3281 15.3501C17.5485 14.1339 19.1979 13.9815 20.276 14.8927C21.4063 15.8481 21.5258 17.6292 20.6343 20.236C19.7616 22.8205 18.1298 25.5272 15.7389 28.3559C15.245 28.9402 14.7516 29.4881 14.259 30H0V15.2055C1.98184 12.8679 3.88008 11.1949 5.69501 10.1867ZM30 30H17.6804C21.6946 25.2455 24.4399 20.8251 25.9159 16.7384C27.3864 12.6354 27.2869 9.87826 25.6175 8.46723C24.3829 7.42367 22.6791 7.35832 20.5063 8.2712C18.3248 9.17674 15.88 10.9671 13.1717 13.6422C14.6544 11.0768 15.5367 8.93947 15.8186 7.2303C16.1005 5.52112 15.8284 4.3174 15.0024 3.61924C14.1329 2.88435 12.8028 2.79135 11.0124 3.34006C9.24081 3.86651 7.18264 5.06709 4.83786 6.94185C3.20244 8.23952 1.58982 9.73171 0 11.4182V0H30V30Z" fill="#007AFF" fill-opacity="0.44"/>
<path d="M29.5 0.5V29.5H18.7461C22.4151 25.0269 24.9694 20.8297 26.3857 16.9082L26.3867 16.9072C27.1324 14.8266 27.4963 13.0433 27.4434 11.5752C27.39 10.0954 26.9095 8.9041 25.9404 8.08496C24.5907 6.9442 22.8085 6.86733 20.7314 7.64355L20.3145 7.80957C18.6554 8.49828 16.8722 9.66913 14.9648 11.3047C15.666 9.80729 16.1196 8.47534 16.3115 7.31152C16.604 5.53847 16.353 4.10606 15.3252 3.2373C14.3252 2.39211 12.9027 2.30421 11.208 2.7627L10.8701 2.86035C9.12639 3.37852 7.15697 4.50556 4.9668 6.2041L4.52734 6.5498C3.16709 7.62913 1.82537 8.8414 0.5 10.1826V0.5H29.5ZM5.9375 10.624C7.74669 9.619 8.80789 9.63458 9.40332 10.1377C9.80573 10.4778 10.0216 10.9724 9.99512 11.7051C9.96785 12.4576 9.68219 13.4337 9.09082 14.6504C8.32 16.2363 7.35038 17.8423 6.17871 19.4668L5.90723 19.8418L6.26172 20.1406L8.13184 21.7217L8.51367 22.0439L8.83594 21.6621C11.165 18.9065 13.4103 16.9593 15.5664 15.79L15.5684 15.7891C17.7621 14.5875 19.1343 14.5825 19.9531 15.2744C20.8204 16.0075 21.0465 17.4855 20.1611 20.0742L20.1602 20.0762C19.3133 22.5839 17.7212 25.2365 15.3574 28.0332C14.9189 28.552 14.4803 29.0404 14.0439 29.5H0.5V15.3916C2.41614 13.1535 4.22903 11.5732 5.9375 10.624ZM9.33691 10.2168C8.79977 9.76285 7.80067 9.70652 5.9873 10.7139C4.33654 11.631 2.58175 13.1452 0.725586 15.2861L0.602539 15.4277V29.3975H14.002L14.1494 29.2383C14.5245 28.8365 14.9013 28.4129 15.2783 27.9668C17.6367 25.1765 19.222 22.535 20.0635 20.043V20.041L20.0645 20.0391L20.0635 20.0381C20.9483 17.4496 20.6973 16.0387 19.8867 15.3535C19.1257 14.7104 17.8173 14.6773 15.6318 15.8711L15.6221 15.876L15.6152 15.8799C13.4743 17.041 11.2391 18.9789 8.91504 21.7285L8.52441 22.1895L5.76855 19.8584L6.09473 19.4062C7.26335 17.786 8.2311 16.1854 8.99902 14.6055C9.58743 13.3948 9.86605 12.4332 9.89258 11.7012C9.90498 11.358 9.86349 11.0638 9.76367 10.8105C9.66154 10.5514 9.50829 10.3617 9.33691 10.2168ZM0.602539 9.91113L1.44824 9.10352C2.4433 8.15312 3.44815 7.27491 4.46289 6.46973L4.46484 6.46875C6.76109 4.63319 8.82938 3.39812 10.6641 2.81543L10.8447 2.76074C12.6995 2.19402 14.287 2.22555 15.3916 3.15918C16.4598 4.06224 16.708 5.54011 16.4131 7.32812C16.3156 7.91897 16.1515 8.55485 15.9209 9.23535L15.4131 10.7334L16.6895 9.7998C17.9436 8.88236 19.1391 8.18556 20.2754 7.71387H20.2773C22.5514 6.75953 24.5269 6.756 26.0068 8.00684C27.0032 8.84907 27.4927 10.0702 27.5469 11.5713C27.6005 13.0577 27.2311 14.855 26.4834 16.9414L26.4795 16.9521V16.9531C25.1618 20.5971 22.867 24.4752 19.6152 28.5869L18.9736 29.3975H29.3975V0.602539H0.602539V9.91113Z" fill="#007AFF" fill-opacity="0.44" stroke="#818181"/>
<path d="M75.6228 14.6553H77.0718V26.1965H75.6228V25.3339C75.0162 25.9895 73.9716 26.4208 72.809 26.4208C70.1299 26.4208 68.6641 24.4196 68.6641 22.2287C68.6641 20.0377 70.1299 18.0366 72.809 18.0366C73.9716 18.0366 75.0162 18.4678 75.6228 19.1234V14.6553ZM75.6733 22.2287C75.6733 20.331 74.2749 19.4167 72.8427 19.4167C71.242 19.4167 70.1131 20.6933 70.1131 22.2287C70.1131 23.764 71.242 25.0406 72.8427 25.0406C74.2749 25.0406 75.6733 24.1263 75.6733 22.2287Z" fill="#818181"/>
<path d="M63.1186 18.0352C65.2247 18.0352 66.6232 19.3635 66.6232 21.5199V26.1951H65.1742V21.6407C65.1742 20.2261 64.3654 19.4153 62.9838 19.4153C61.4842 19.4153 60.3553 20.5366 60.3553 22.072V26.1951H58.9062V18.2594H60.3553V19.122C60.8945 18.4837 61.838 18.0352 63.1186 18.0352Z" fill="#818181"/>
<path d="M51.9916 18.0352C54.3842 18.0352 56.0017 19.1565 56.0017 21.1404V26.1951H54.5527V25.3325C53.8618 26.0053 52.9183 26.4194 51.5366 26.4194C49.5653 26.4194 48.1331 25.574 48.1331 23.7799C48.1331 21.8477 49.7675 21.2094 51.722 21.2094H54.5527C54.5527 19.8983 53.4912 19.4153 51.9747 19.4153C50.9132 19.4153 49.8517 19.8121 49.4979 20.5711H47.9141C48.4195 18.9495 50.0202 18.0352 51.9916 18.0352ZM54.5527 23.0208V22.5033H51.7051C50.3572 22.5033 49.5821 22.9001 49.5821 23.7799C49.5821 24.6597 50.3909 25.0392 51.6377 25.0392C53.4406 25.0392 54.5527 24.2112 54.5527 23.0208Z" fill="#818181"/>
<path d="M37.8438 14.6553H39.2928V19.1234C39.8994 18.4678 40.944 18.0366 42.1066 18.0366C44.7856 18.0366 46.2515 20.0377 46.2515 22.2287C46.2515 24.4196 44.7856 26.4208 42.1066 26.4208C40.944 26.4208 39.8994 25.9895 39.2928 25.3339V26.1965H37.8438V14.6553ZM39.2422 22.2287C39.2422 24.1263 40.6407 25.0406 42.0729 25.0406C43.6736 25.0406 44.8025 23.764 44.8025 22.2287C44.8025 20.6933 43.6736 19.4167 42.0729 19.4167C40.6407 19.4167 39.2422 20.331 39.2422 22.2287Z" fill="#818181"/>
<path d="M74.3765 11.5229H71.8828V8.91797H74.3765V11.5229Z" fill="#818181"/>
<path d="M62.4447 3.3623C64.8373 3.3623 66.4548 4.48365 66.4548 6.46756V11.5222H65.0058V10.6597C64.315 11.3325 63.3714 11.7465 61.9898 11.7465C60.0184 11.7465 58.5862 10.9012 58.5862 9.10704C58.5862 7.17487 60.2206 6.53657 62.1751 6.53657H65.0058C65.0058 5.22546 63.9443 4.74242 62.4279 4.74242C61.3664 4.74242 60.3048 5.1392 59.951 5.89827H58.3672C58.8727 4.27663 60.4733 3.3623 62.4447 3.3623ZM65.0058 8.34797V7.83043H62.1583C60.8103 7.83043 60.0353 8.22721 60.0353 9.10704C60.0353 9.98686 60.844 10.3664 62.0909 10.3664C63.8937 10.3664 65.0058 9.53832 65.0058 8.34797Z" fill="#818181"/>
<path d="M51.9916 3.3623C54.3842 3.3623 56.0017 4.48365 56.0017 6.46756V11.5222H54.5527V10.6597C53.8618 11.3325 52.9183 11.7465 51.5366 11.7465C49.5653 11.7465 48.1331 10.9012 48.1331 9.10704C48.1331 7.17487 49.7675 6.53657 51.722 6.53657H54.5527C54.5527 5.22546 53.4912 4.74242 51.9747 4.74242C50.9132 4.74242 49.8517 5.1392 49.4979 5.89827H47.9141C48.4195 4.27663 50.0202 3.3623 51.9916 3.3623ZM54.5527 8.34797V7.83043H51.7051C50.3572 7.83043 49.5821 8.22721 49.5821 9.10704C49.5821 9.98686 50.3909 10.3664 51.6377 10.3664C53.4406 10.3664 54.5527 9.53832 54.5527 8.34797Z" fill="#818181"/>
<path d="M41.5463 3.3623C43.9389 3.3623 45.5564 4.48365 45.5564 6.46756V11.5222H44.1073V10.6597C43.4165 11.3325 42.473 11.7465 41.0913 11.7465C39.12 11.7465 37.6878 10.9012 37.6878 9.10704C37.6878 7.17487 39.3222 6.53657 41.2767 6.53657H44.1073C44.1073 5.22546 43.0458 4.74242 41.5294 4.74242C40.4679 4.74242 39.4064 5.1392 39.0526 5.89827H37.4688C37.9742 4.27663 39.5749 3.3623 41.5463 3.3623ZM44.1073 8.34797V7.83043H41.2598C39.9119 7.83043 39.1368 8.22721 39.1368 9.10704C39.1368 9.98686 39.9456 10.3664 41.1924 10.3664C42.9953 10.3664 44.1073 9.53832 44.1073 8.34797Z" fill="#818181"/>
</svg>
