<svg width="20" height="20" viewBox="0 0 20 20" fill="none" xmlns="http://www.w3.org/2000/svg">
<path opacity="0.44" d="M10 0C15.5228 0 20 4.47715 20 10C20 15.5228 15.5228 20 10 20C4.47715 20 0 15.5228 0 10C0 4.47715 4.47715 0 10 0ZM10 1C8.36071 1 6.82378 1.43834 5.5 2.2041L5.24609 2.35645C3.99239 3.13784 2.94501 4.2192 2.2041 5.5L2.06445 5.75098C1.38539 7.01655 1 8.46324 1 10C1 11.6393 1.43834 13.1762 2.2041 14.5L2.35645 14.7539C3.13784 16.0076 4.2192 17.055 5.5 17.7959C6.82378 18.5617 8.36071 19 10 19C11.6393 19 13.1762 18.5617 14.5 17.7959C15.8663 17.0055 17.0055 15.8663 17.7959 14.5C18.5617 13.1762 19 11.6393 19 10C19 8.36071 18.5617 6.82378 17.7959 5.5C17.0055 4.13369 15.8663 2.99447 14.5 2.2041C13.1762 1.43834 11.6393 1 10 1ZM9.5 17.8604C9.11513 17.4698 8.63496 16.9353 8.15625 16.2705C7.55302 15.4327 6.95629 14.3978 6.54395 13.1973C7.42945 12.9697 8.42582 12.8008 9.5 12.7598V17.8604ZM10.5 12.7598C11.5738 12.8008 12.5698 12.9698 13.4551 13.1973C13.0427 14.3977 12.4469 15.4328 11.8438 16.2705C11.365 16.9353 10.8849 17.4698 10.5 17.8604V12.7598ZM5.58301 13.4805C6.03515 14.8131 6.69224 15.9496 7.34375 16.8545C7.58385 17.188 7.8267 17.4894 8.05664 17.7607C7.32642 17.5786 6.63588 17.2979 6.00098 16.9307C4.93025 16.3113 4.01601 15.4501 3.33301 14.4229C3.66896 14.2477 4.09698 14.043 4.60254 13.8379C4.90319 13.7159 5.23141 13.5961 5.58301 13.4805ZM14.416 13.4805C14.7679 13.5962 15.0966 13.7158 15.3975 13.8379C15.9026 14.0428 16.3302 14.2478 16.666 14.4229C15.983 15.4499 15.0696 16.3114 13.999 16.9307C13.3639 17.298 12.6729 17.5786 11.9424 17.7607C12.1724 17.4893 12.416 17.1882 12.6562 16.8545C13.3077 15.9496 13.9639 14.813 14.416 13.4805ZM2.87793 6.35254C3.24305 6.50164 3.71005 6.67686 4.26367 6.85156C4.60527 6.95935 4.98098 7.06632 5.38574 7.16797C5.14688 8.04021 5 8.98678 5 10C5 10.8929 5.11342 11.7343 5.30371 12.5186C4.91578 12.6452 4.55551 12.7787 4.22656 12.9121C3.66902 13.1383 3.19901 13.3648 2.83203 13.5576C2.29945 12.4869 2 11.2796 2 10C2 8.68445 2.31694 7.44543 2.87793 6.35254ZM17.1211 6.35254C17.6822 7.44553 18 8.68429 18 10C18 11.2797 17.6997 12.4868 17.167 13.5576C16.8001 13.3649 16.3306 13.1382 15.7734 12.9121C15.4442 12.7786 15.0836 12.6453 14.6953 12.5186C14.8856 11.7343 15 10.893 15 10C15 8.98668 14.8522 8.04028 14.6133 7.16797C15.0184 7.06625 15.3945 6.95943 15.7363 6.85156C16.2895 6.67699 16.7561 6.50157 17.1211 6.35254ZM6.36328 7.38477C7.3022 7.57036 8.35866 7.71044 9.5 7.74219V11.7598C8.31949 11.8017 7.22898 11.9868 6.26562 12.2363C6.09929 11.5362 6 10.7894 6 10C6 9.06641 6.13803 8.19223 6.36328 7.38477ZM13.6357 7.38477C13.861 8.1923 14 9.06631 14 10C14 10.7895 13.8998 11.5362 13.7334 12.2363C12.7703 11.9869 11.6801 11.8016 10.5 11.7598V7.74219C11.641 7.71045 12.6971 7.57026 13.6357 7.38477ZM9.5 6.74121C8.47992 6.71117 7.5306 6.59022 6.67871 6.42773C7.08068 5.38549 7.61666 4.47892 8.15625 3.72949C8.63516 3.06438 9.11505 2.52926 9.5 2.13867V6.74121ZM10.5 2.13867C10.885 2.52926 11.3648 3.06438 11.8438 3.72949C12.3833 4.47884 12.9184 5.38563 13.3203 6.42773C12.4687 6.59013 11.5197 6.71119 10.5 6.74121V2.13867ZM8.05664 2.23828C7.82655 2.50976 7.58402 2.8118 7.34375 3.14551C6.74268 3.98038 6.1377 5.01264 5.69238 6.21387C5.28465 6.11297 4.90741 6.00634 4.56543 5.89844C4.10921 5.75448 3.71622 5.60932 3.39648 5.48242C4.07218 4.49686 4.96325 3.66963 6.00098 3.06934C6.63594 2.70207 7.32634 2.42046 8.05664 2.23828ZM11.9424 2.23828C12.673 2.42045 13.3638 2.70191 13.999 3.06934C15.0366 3.66953 15.9269 4.49706 16.6025 5.48242C16.283 5.60924 15.8904 5.75461 15.4346 5.89844C15.0923 6.00642 14.7147 6.11291 14.3066 6.21387C13.8613 5.01277 13.2573 3.9803 12.6562 3.14551C12.4158 2.8116 12.1726 2.50988 11.9424 2.23828Z" fill="#007AFF"/>
</svg>
