<svg width="85" height="30" viewBox="0 0 85 30" fill="none" xmlns="http://www.w3.org/2000/svg">
<g opacity="0.55">
<path d="M5.64547 10.0981C7.45609 9.09227 8.78822 8.94998 9.64152 9.67121C10.7189 10.5819 10.6576 12.2715 9.45788 14.7399C8.67983 16.3407 7.70282 17.9564 6.52677 19.5869L8.38076 21.1541C10.7135 18.3941 12.9849 16.4149 15.1947 15.2165C17.3959 14.0109 19.0309 13.8598 20.0996 14.7632C21.2201 15.7102 21.3385 17.4758 20.4548 20.0599C19.5897 22.622 17.9721 25.3051 15.602 28.1093C15.1124 28.6885 14.6233 29.2316 14.1349 29.739H0V15.0732C1.9646 12.756 3.84633 11.0975 5.64547 10.0981ZM29.739 29.739H17.5266C21.5059 25.0259 24.2273 20.6439 25.6904 16.5928C27.1482 12.5255 27.0495 9.79233 25.3947 8.39357C24.1708 7.35909 22.4818 7.29431 20.3279 8.19925C18.1654 9.09691 15.7418 10.8717 13.0572 13.5235C14.5269 10.9805 15.4015 8.86171 15.681 7.1674C15.9605 5.47309 15.6907 4.27984 14.8719 3.58776C14.0099 2.85926 12.6915 2.76707 10.9166 3.311C9.16043 3.83287 7.12016 5.02301 4.79578 6.88147C3.17458 8.16784 1.57599 9.64706 0 11.3189V0H29.739V29.739Z" fill="#007AFF"/>
<path d="M82.4858 16.3096H84.2122V29.739H82.4858V28.7353C81.7632 29.4981 80.5186 29.9999 79.1335 29.9999C75.9417 29.9999 74.1953 27.6714 74.1953 25.122C74.1953 22.5726 75.9417 20.244 79.1335 20.244C80.5186 20.244 81.7632 20.7459 82.4858 21.5087V16.3096ZM82.546 25.122C82.546 22.9139 80.8799 21.85 79.1736 21.85C77.2666 21.85 75.9217 23.3354 75.9217 25.122C75.9217 26.9086 77.2666 28.394 79.1736 28.394C80.8799 28.394 82.546 27.3301 82.546 25.122Z" fill="#007AFF"/>
<path d="M67.5888 20.2432C70.098 20.2432 71.7641 21.7889 71.7641 24.2981V29.7381H70.0378V24.4386C70.0378 22.7925 69.0742 21.8491 67.4282 21.8491C65.6416 21.8491 64.2967 23.1539 64.2967 24.9404V29.7381H62.5703V20.5041H64.2967V21.5078C64.939 20.7651 66.0632 20.2432 67.5888 20.2432Z" fill="#007AFF"/>
<path d="M54.3344 20.2432C57.1849 20.2432 59.112 21.548 59.112 23.8565V29.7381H57.3857V28.7344C56.5626 29.5173 55.4385 29.9991 53.7924 29.9991C51.4438 29.9991 49.7375 29.0154 49.7375 26.9278C49.7375 24.6795 51.6847 23.9368 54.0133 23.9368H57.3857C57.3857 22.4111 56.121 21.8491 54.3144 21.8491C53.0497 21.8491 51.7851 22.3108 51.3635 23.194H49.4766C50.0788 21.3071 51.9858 20.2432 54.3344 20.2432ZM57.3857 26.0445V25.4423H53.9932C52.3873 25.4423 51.4639 25.904 51.4639 26.9278C51.4639 27.9515 52.4274 28.3931 53.9129 28.3931C56.0608 28.3931 57.3857 27.4296 57.3857 26.0445Z" fill="#007AFF"/>
<path d="M37.4766 16.3096H39.2029V21.5087C39.9256 20.7459 41.1702 20.244 42.5552 20.244C45.747 20.244 47.4934 22.5726 47.4934 25.122C47.4934 27.6714 45.747 29.9999 42.5552 29.9999C41.1702 29.9999 39.9256 29.4981 39.2029 28.7353V29.739H37.4766V16.3096ZM39.1427 25.122C39.1427 27.3301 40.8088 28.394 42.5151 28.394C44.4221 28.394 45.7671 26.9086 45.7671 25.122C45.7671 23.3354 44.4221 21.85 42.5151 21.85C40.8088 21.85 39.1427 22.9139 39.1427 25.122Z" fill="#007AFF"/>
<path d="M81.0022 9.66494H78.0312V6.63379H81.0022V9.66494Z" fill="#007AFF"/>
<path d="M66.7876 0.169922C69.638 0.169922 71.5651 1.47472 71.5651 3.78321V9.66485H69.8388V8.66116C69.0158 9.44404 67.8916 9.92581 66.2456 9.92581C63.8969 9.92581 62.1906 8.94219 62.1906 6.85451C62.1906 4.60624 64.1378 3.86351 66.4664 3.86351H69.8388C69.8388 2.3379 68.5741 1.77583 66.7675 1.77583C65.5028 1.77583 64.2382 2.23753 63.8166 3.12078H61.9297C62.5319 1.23384 64.4389 0.169922 66.7876 0.169922ZM69.8388 5.97126V5.36905H66.4463C64.8404 5.36905 63.917 5.83075 63.917 6.85451C63.917 7.87828 64.8805 8.3199 66.366 8.3199C68.5139 8.3199 69.8388 7.35636 69.8388 5.97126Z" fill="#007AFF"/>
<path d="M54.3344 0.169922C57.1849 0.169922 59.112 1.47472 59.112 3.78321V9.66485H57.3857V8.66116C56.5626 9.44404 55.4385 9.92581 53.7924 9.92581C51.4438 9.92581 49.7375 8.94219 49.7375 6.85451C49.7375 4.60624 51.6847 3.86351 54.0133 3.86351H57.3857C57.3857 2.3379 56.121 1.77583 54.3144 1.77583C53.0497 1.77583 51.7851 2.23753 51.3635 3.12078H49.4766C50.0788 1.23384 51.9858 0.169922 54.3344 0.169922ZM57.3857 5.97126V5.36905H53.9932C52.3873 5.36905 51.4639 5.83075 51.4639 6.85451C51.4639 7.87828 52.4274 8.3199 53.9129 8.3199C56.0608 8.3199 57.3857 7.35636 57.3857 5.97126Z" fill="#007AFF"/>
<path d="M41.8891 0.169922C44.7396 0.169922 46.6667 1.47472 46.6667 3.78321V9.66485H44.9403V8.66116C44.1173 9.44404 42.9932 9.92581 41.3471 9.92581C38.9985 9.92581 37.2922 8.94219 37.2922 6.85451C37.2922 4.60624 39.2394 3.86351 41.5679 3.86351H44.9403C44.9403 2.3379 43.6757 1.77583 41.869 1.77583C40.6044 1.77583 39.3397 2.23753 38.9182 3.12078H37.0312C37.6335 1.23384 39.5405 0.169922 41.8891 0.169922ZM44.9403 5.97126V5.36905H41.5479C39.942 5.36905 39.0186 5.83075 39.0186 6.85451C39.0186 7.87828 39.9821 8.3199 41.4676 8.3199C43.6155 8.3199 44.9403 7.35636 44.9403 5.97126Z" fill="#007AFF"/>
</g>
</svg>
