<svg width="66" height="30" viewBox="0 0 66 30" fill="none" xmlns="http://www.w3.org/2000/svg">
<g opacity="0.44">
<path d="M16.9375 14.3691C16.9412 14.3825 16.9456 14.4015 16.9531 14.4238C16.9498 14.4558 16.9473 14.4812 16.9453 14.498C16.9399 14.5394 16.9345 14.5778 16.9297 14.6133C16.9224 14.5854 16.914 14.552 16.9033 14.5127C16.9011 14.5046 16.8963 14.4926 16.8916 14.4766C16.899 14.3849 16.908 14.2865 16.917 14.1875C16.9335 14.2222 16.9497 14.257 16.9658 14.291C16.9627 14.3233 16.9597 14.3531 16.957 14.3799C16.9482 14.3639 16.9418 14.3532 16.9375 14.3477C16.9434 14.3552 16.9533 14.3721 16.9678 14.3994C16.984 14.4271 17.0832 14.6479 17.1934 14.8945C17.1789 14.8492 17.1701 14.8199 17.168 14.8135C17.1119 14.6525 17.064 14.5218 17.0254 14.416C17.0059 14.3749 16.9859 14.3333 16.9658 14.291C16.9667 14.2821 16.9678 14.2729 16.9688 14.2637C16.9504 14.2155 16.9353 14.1753 16.9219 14.1426C16.9205 14.1576 16.9184 14.1725 16.917 14.1875C16.8949 14.141 16.8723 14.0935 16.8496 14.0459C16.8565 14.1554 16.9326 14.4721 16.7617 13.9795C16.755 13.9591 16.7153 13.8293 16.6621 13.6572C16.6625 13.6563 16.6627 13.6552 16.6631 13.6543C16.6608 13.6494 16.6586 13.6445 16.6562 13.6396C16.6559 13.6384 16.6557 13.637 16.6553 13.6357L16.6543 13.6367C16.6511 13.6299 16.6478 13.623 16.6445 13.6162C16.6453 13.6147 16.6467 13.6129 16.6475 13.6113L16.6465 13.6084C16.6456 13.6102 16.6454 13.6125 16.6445 13.6143C16.6331 13.5902 16.6209 13.5662 16.6094 13.542C16.618 13.5702 16.6275 13.5996 16.6367 13.6299C16.6279 13.6479 16.6194 13.6652 16.6113 13.6816C16.5909 13.6184 16.5715 13.5578 16.5527 13.5C16.565 13.5002 16.5773 13.5007 16.5898 13.501L16.5889 13.499C16.5757 13.4988 16.5627 13.4993 16.5498 13.499C16.5688 13.5576 16.5906 13.6184 16.6113 13.6826C16.6195 13.666 16.6282 13.6492 16.6367 13.6318C16.6393 13.6402 16.6419 13.6488 16.6445 13.6572C16.6363 13.6747 16.6284 13.6924 16.6201 13.71C16.6226 13.7178 16.6254 13.7255 16.6279 13.7334C16.6259 13.7378 16.6241 13.7426 16.6221 13.7471C16.5931 13.6582 16.567 13.5749 16.542 13.498C16.5173 13.4976 16.4932 13.4975 16.4697 13.4971C16.4453 13.4966 16.4216 13.4956 16.3984 13.4951C16.3423 13.4939 16.2898 13.4933 16.2412 13.4922C16.1898 13.491 16.1425 13.4904 16.0996 13.4893C15.7028 13.4785 15.6727 13.471 16.0479 13.4775C16.1095 13.4786 16.182 13.4805 16.2656 13.4824C16.3286 13.4838 16.3979 13.4854 16.4736 13.4873H16.4727C16.4943 13.4879 16.5164 13.4887 16.5391 13.4893C16.5043 13.3821 16.4744 13.2864 16.4473 13.2021C16.4492 13.2063 16.4512 13.2107 16.4531 13.2148H16.4561C16.4579 13.2204 16.4601 13.2258 16.4619 13.2314H16.4609C16.4619 13.2335 16.4629 13.2362 16.4639 13.2383C16.4888 13.3148 16.5174 13.3983 16.5469 13.4893C16.5594 13.4896 16.5721 13.4899 16.585 13.4902L16.5488 13.4893C16.5421 13.4685 16.5358 13.4478 16.5293 13.4277C16.538 13.4284 16.5468 13.429 16.5557 13.4297C16.5546 13.4275 16.5538 13.4251 16.5527 13.4229C16.5441 13.4222 16.5349 13.4216 16.5264 13.4209C16.5212 13.4049 16.5168 13.3886 16.5117 13.373V13.3701C16.5138 13.3706 16.5197 13.371 16.5283 13.3721L16.5273 13.3701C16.5198 13.3696 16.515 13.3701 16.5127 13.3701C16.5147 13.364 16.5166 13.3576 16.5186 13.3516C16.5073 13.3281 16.4957 13.3039 16.4844 13.2803C16.5002 13.2823 16.5166 13.2842 16.5322 13.2861C16.5334 13.29 16.5339 13.2946 16.5352 13.2988C16.5364 13.295 16.5378 13.2909 16.5391 13.2871C16.5417 13.2874 16.5452 13.2878 16.5479 13.2881C16.5466 13.2839 16.5443 13.2796 16.543 13.2754C16.5433 13.2743 16.5446 13.2735 16.5449 13.2725L16.542 13.2715C16.5389 13.2614 16.5353 13.2513 16.5322 13.2412C16.5393 13.2421 16.5467 13.2432 16.5537 13.2441C16.5554 13.239 16.5569 13.2337 16.5586 13.2285C16.5482 13.2271 16.5376 13.226 16.5273 13.2246C16.5162 13.1886 16.505 13.1523 16.4941 13.1172C16.516 13.1523 16.5384 13.188 16.5605 13.2236C16.5629 13.2165 16.565 13.2092 16.5674 13.2021C16.5367 13.1536 16.5057 13.1059 16.4756 13.0586C16.4486 12.9718 16.4231 12.8907 16.4014 12.8213C16.3246 12.5767 16.2953 12.4812 16.3926 12.8125C16.4093 12.8694 16.4284 12.9392 16.4531 13.0225L16.4521 13.0215C16.4511 13.0294 16.4503 13.0373 16.4492 13.0449C16.456 13.0558 16.4629 13.0672 16.4697 13.0781C16.4829 13.1226 16.4973 13.1709 16.5127 13.2227C16.4951 13.2203 16.4773 13.2182 16.46 13.2158C16.4513 13.1894 16.4426 13.1632 16.4346 13.1387C16.4009 13.0361 16.3713 12.9506 16.3486 12.8828C16.348 12.8809 16.3453 12.8798 16.3447 12.8779C16.2705 12.6558 16.266 12.6335 16.3408 12.8701C16.3633 12.9413 16.3923 13.0361 16.4307 13.1553C16.4304 13.1565 16.4309 13.158 16.4307 13.1592C16.4335 13.1678 16.4366 13.1766 16.4395 13.1855C16.4362 13.1788 16.4329 13.1718 16.4297 13.165C16.4215 13.2074 16.4153 13.2277 16.4102 13.2178C16.4128 13.2232 16.4153 13.2203 16.4189 13.21C16.4286 13.2113 16.4385 13.2125 16.4482 13.2139C16.4452 13.2043 16.4424 13.1948 16.4395 13.1855C16.4404 13.1875 16.4414 13.1894 16.4424 13.1914C16.4513 13.2191 16.46 13.2482 16.4697 13.2783C15.9743 13.2158 15.3882 13.1415 14.6113 13.041C13.1521 12.8471 14.8912 13.0642 16.4639 13.2617C16.4605 13.2512 16.4574 13.2407 16.4541 13.2305C16.1868 13.1952 15.9433 13.1628 15.8203 13.1445C15.082 13.0317 15.5734 13.0953 16.4072 13.208C16.4077 13.2103 16.4087 13.2122 16.4092 13.2139C16.4052 13.2004 16.4008 13.1649 16.3994 13.1025C16.3283 12.9538 16.2564 12.8035 16.1846 12.6533C16.1929 12.6552 16.2016 12.6572 16.21 12.6592L16.3369 12.8643C16.3315 12.8472 16.3258 12.8317 16.3213 12.8174C16.3221 12.8186 16.3225 12.8201 16.3232 12.8213C16.3103 12.7799 16.3018 12.7493 16.2959 12.7295C16.2858 12.6957 16.2838 12.6934 16.293 12.7188C16.2909 12.7116 16.2887 12.7069 16.2881 12.7041L16.2891 12.7051L16.3906 12.8105C16.3765 12.7625 16.3644 12.7232 16.3555 12.6924C16.3229 12.6849 16.2907 12.6773 16.2588 12.6699C16.2573 12.6681 16.2556 12.6662 16.2539 12.6641C16.2883 12.6719 16.3218 12.68 16.3545 12.6875C16.3459 12.6577 16.3399 12.6356 16.3359 12.6211C16.288 12.6096 16.2403 12.5982 16.1934 12.5869C16.1909 12.5838 16.1881 12.5804 16.1855 12.5771C16.2343 12.589 16.2844 12.6012 16.334 12.6133C16.3285 12.5926 16.3294 12.594 16.3359 12.6133C16.3637 12.6201 16.3919 12.627 16.4199 12.6338C16.4198 12.636 16.4191 12.6384 16.4189 12.6406C16.3921 12.6342 16.3655 12.6275 16.3389 12.6211C16.344 12.6366 16.3512 12.6598 16.3604 12.6885C16.379 12.6927 16.3979 12.697 16.416 12.7012C16.4159 12.703 16.4151 12.7052 16.415 12.707C16.3973 12.7029 16.3798 12.6984 16.3623 12.6943C16.3736 12.7297 16.3867 12.7735 16.4023 12.8232L16.4082 12.8291C16.4104 12.793 16.4124 12.7515 16.415 12.707C16.4396 12.7127 16.4644 12.7179 16.4893 12.7236C16.4824 12.7808 16.4762 12.8361 16.4697 12.8877C16.5245 12.9393 16.5762 12.9844 16.627 13.0234C16.6544 12.9403 16.6816 12.8572 16.709 12.7744C16.7348 12.7803 16.7612 12.786 16.7871 12.792C16.8325 12.9106 16.8656 13.0025 16.8916 13.0713C16.8916 13.0701 16.8916 13.0686 16.8916 13.0674C16.8937 13.0729 16.8955 13.0787 16.8975 13.084V13.0859H16.8984C16.8994 13.0885 16.9004 13.0913 16.9014 13.0938C16.9023 13.0918 16.9033 13.0898 16.9043 13.0879C16.9059 13.0883 16.9076 13.0884 16.9092 13.0889C16.911 13.0852 16.9132 13.0818 16.915 13.0781C16.9179 13.0719 16.921 13.0657 16.9238 13.0596H16.9248C16.9402 13.0288 16.9562 12.9969 16.9727 12.9639C16.9582 12.9961 16.9441 13.0285 16.9297 13.0605C16.9334 13.0612 16.9375 13.0618 16.9414 13.0625C16.9377 13.0729 16.9335 13.0832 16.9297 13.0938C16.925 13.0926 16.9204 13.0919 16.916 13.0908C16.9132 13.0971 16.91 13.1031 16.9072 13.1094C16.9151 13.1303 16.9209 13.1491 16.9268 13.165C16.9305 13.1751 16.9335 13.1842 16.9365 13.1924C16.9307 13.1764 16.9247 13.1562 16.916 13.1328C16.9207 13.1197 16.9251 13.1066 16.9297 13.0938H16.9307C16.9258 13.1069 16.9209 13.1205 16.916 13.1338C16.9269 13.163 16.9359 13.1862 16.9424 13.2041C16.97 13.2149 16.9982 13.225 17.0273 13.2344C17.027 13.2372 17.0268 13.2403 17.0264 13.2432C16.9903 13.2382 16.9761 13.2358 16.9941 13.2393C17.0028 13.241 17.0141 13.2429 17.0264 13.2451C17.0243 13.2602 17.0217 13.2763 17.0195 13.292C16.9917 13.2882 16.9641 13.284 16.9365 13.2803C16.9384 13.2854 16.9404 13.2906 16.9424 13.2959C16.9678 13.2993 16.9929 13.3033 17.0176 13.3066C17.0165 13.3146 17.0158 13.3229 17.0146 13.3311C16.9941 13.3285 16.9729 13.3258 16.9521 13.3232C16.9542 13.3289 16.9568 13.335 16.959 13.3408C16.9766 13.343 16.9943 13.3445 17.0117 13.3467C17.0085 13.3644 17.0056 13.3864 17.002 13.4111C16.9962 13.4106 16.9901 13.4107 16.9844 13.4102C16.9857 13.4137 16.9869 13.4173 16.9883 13.4209C16.992 13.4213 16.9962 13.4215 17 13.4219C16.999 13.4287 16.9981 13.4361 16.9971 13.4434C16.9988 13.4481 17.0002 13.4533 17.002 13.458C16.9997 13.4578 16.9974 13.4572 16.9951 13.457C16.9949 13.459 16.9944 13.4609 16.9941 13.4629C16.9976 13.4631 17.0015 13.4636 17.0049 13.4639C17.0097 13.4768 17.0146 13.4898 17.0195 13.5029C17.0095 13.5026 16.9992 13.5023 16.9893 13.502H16.9883C17.0057 13.5025 17.0232 13.5034 17.041 13.5039C17.0422 13.4913 17.0438 13.4788 17.0449 13.4668C17.2559 13.4827 17.4743 13.4997 17.6846 13.5156C17.6901 13.5157 17.6956 13.5156 17.7012 13.5156C17.7494 13.5168 17.7588 13.5181 17.7441 13.5195C17.8523 13.5277 17.9585 13.5363 18.0596 13.5439C18.08 13.5448 18.1005 13.546 18.1211 13.5469C17.75 13.5171 17.3819 13.4874 17.0459 13.4609C17.047 13.4494 17.0478 13.4377 17.0488 13.4268C17.3799 13.4602 17.8195 13.5046 18.2373 13.5449C18.2417 13.5473 18.2465 13.5493 18.251 13.5518C18.2913 13.5535 18.3314 13.5559 18.3701 13.5576C18.453 13.5656 18.5344 13.5726 18.6133 13.5801C18.5194 13.5744 18.4294 13.5695 18.3438 13.5645C18.3163 13.5622 18.2882 13.5598 18.2607 13.5576C18.2616 13.5581 18.2628 13.5591 18.2637 13.5596H18.2646C18.6134 13.7516 19.1428 14.0745 19.1787 14.083C19.6045 14.1162 19.3281 13.9179 18.708 13.5938C18.6476 13.5889 18.5863 13.584 18.5254 13.5791C18.559 13.5817 18.5916 13.5836 18.6221 13.5859C18.6373 13.5874 18.6661 13.5897 18.7061 13.5928C18.7032 13.5913 18.7001 13.5903 18.6973 13.5889C18.7696 13.5957 18.84 13.6022 18.9062 13.6084C18.9576 13.6121 19.0143 13.6158 19.0752 13.6201C18.9798 13.6104 18.8837 13.6005 18.7881 13.5908C18.7555 13.5888 18.7231 13.5869 18.6914 13.585C18.6885 13.5834 18.6856 13.5816 18.6826 13.5801C18.6272 13.5745 18.5713 13.569 18.5166 13.5635C18.5699 13.5658 18.6192 13.5685 18.6621 13.5703C18.6479 13.563 18.6337 13.5553 18.6191 13.5479C18.696 13.5575 18.7751 13.5669 18.8564 13.5771C18.9454 13.577 19.0302 13.5769 19.1104 13.5762C18.9489 13.5544 18.7448 13.5273 18.5166 13.4961C18.4973 13.4863 18.4778 13.4758 18.458 13.4658C18.7144 13.5038 18.9704 13.5421 19.1943 13.5752C19.2776 13.5741 19.356 13.5726 19.4297 13.5703C19.1768 13.5325 18.6432 13.4497 18.333 13.4023C18.3157 13.3937 18.2979 13.3857 18.2803 13.377C18.5552 13.4216 18.818 13.4635 18.9316 13.4824C19.1883 13.5246 19.3562 13.5525 19.4551 13.5693C20.2857 13.5419 20.508 13.4226 20.5059 12.9326C20.4635 12.9021 20.4133 12.873 20.3525 12.8477C20.2426 12.8096 19.4189 13.1333 19.0801 13.2363C19.0207 13.2179 18.9606 13.2 18.9014 13.1816C19.1776 13.0574 19.9018 12.8114 20.293 12.5088C21.2097 11.7642 21.1097 11.0866 21.0244 10.5977C16.2477 13.5193 18.214 11.9466 18.4736 10.7715C18.5393 10.5962 19.3972 9.64499 19.4062 9.52148C19.4072 8.62128 19.1136 8.12747 18.7754 7.91895C18.6344 8.3647 18.5239 8.7098 18.5039 8.76367C18.2932 9.46927 18.6951 8.54849 18.5557 9C18.4105 9.45021 17.1848 12.4193 17.1465 12.5234C16.6965 13.7559 19.0634 7.28463 17.1289 12.5547C17.1294 12.5463 17.1303 12.5369 17.1309 12.5283C17.6864 10.9582 17.2914 11.9828 17.375 11.6953C17.3796 11.6665 17.7747 10.4077 17.7471 10.4121C17.6997 10.4313 17.6519 10.3459 17.5596 10.5488C17.8184 9.77405 17.7091 10.0414 17.3242 11.2021C17.3053 11.2597 17.3365 11.2074 17.3564 11.1494C17.3849 11.0665 17.4108 10.9878 17.4355 10.915C17.4313 10.9304 17.4272 10.9466 17.4229 10.9629C17.3444 11.2848 17.2369 11.9376 17.1338 12.4873C17.1544 12.1619 17.1781 11.779 17.1816 11.6914C17.1861 11.5542 17.1876 11.4429 17.1885 11.3369C17.3672 10.819 17.4075 10.7391 17.4824 10.5195C17.539 10.3546 17.5952 10.1892 17.6514 10.0244C17.61 10.1288 17.6482 10.0069 17.8525 9.40918C17.8696 9.35846 17.9013 9.26671 17.9404 9.15332C17.9454 9.14538 17.9507 9.13693 17.9561 9.12793C18.0141 8.95614 18.0715 8.78625 18.1279 8.61914C18.1207 8.63607 18.1136 8.65321 18.1064 8.66992C18.171 8.48122 18.2351 8.2935 18.2812 8.15234C18.2806 8.15911 18.279 8.16589 18.2783 8.17285C18.6847 6.96889 19.0272 5.96029 19.2119 5.49609C19.6548 4.387 19.392 5.3519 19.666 4.70898C19.7055 4.61668 20.1202 3.37129 20.1709 3.25586C20.4778 2.56377 20.6311 2.31843 20.625 2.51465C20.6221 2.55348 20.2139 3.71288 20.1855 3.79785C20.0051 4.3428 19.9182 4.68674 19.8975 4.75684C19.7854 5.13873 20.6495 2.64207 20.7041 2.50586C21.1748 1.33103 21.1937 1.44767 21.2305 1.51172C22.4098 1.9313 23.7045 2.57356 24.9346 3.46777C26.2859 4.50833 24.1643 4.75164 24.8096 5.26855C27.7554 7.71025 29.1278 11.1616 29.4219 13.792C29.6443 16.5508 29.6453 18.8141 27.4111 22.5068C25.291 26.3711 20.4859 28.5556 18.2646 28.4424C18.1344 27.6111 18.0056 26.6933 17.873 25.917C17.499 25.4208 17.6812 28.2481 17.5117 28.3887C15.2148 30.3657 13.8228 29.815 12.9873 29.5068C12.8626 29.4629 13.309 28.1327 13.2383 28.0176C13.074 27.7567 12.8694 27.8058 12.5859 28.1846C12.4651 28.3465 12.2614 29.5035 12.1309 29.6865C11.8585 30.0644 11.6444 30.0808 11.5723 29.8428C11.5356 29.7309 11.9874 28.441 11.959 28.3994C11.8708 28.2507 11.7681 28.1765 11.6631 28.1377C11.5773 28.3853 11.4872 28.6456 11.4521 28.7363C11.2388 29.2889 11.0812 29.6909 11.2148 29.3105C11.2499 29.2114 11.4311 28.6735 11.6162 28.123C11.3618 28.0528 11.1027 28.1523 11.0039 27.8652C10.9953 27.8279 11.5237 26.4875 11.5078 26.4648C11.2805 26.0944 10.7043 26.9687 10.3164 27.3525C10.1546 27.519 9.96641 27.7544 9.89355 27.7959C9.29002 27.5969 8.69197 27.1954 8.25293 26.4629C8.07211 26.1424 7.39528 26.8471 7.61523 25.751C7.64583 25.498 8.76567 23.399 7.49609 24.5977C7.30727 24.7638 6.74581 25.6981 6.47754 25.6748C5.03403 25.5126 3.73274 24.4097 2.95801 22.7979C2.83171 22.539 4.19639 22.0591 4.08496 21.7793C3.77544 21.0101 3.47021 20.2124 2.52734 19.6855C2.19355 19.4925 0.293984 20.6243 1.09863 19.7637C1.18495 19.6832 2.37809 19.4173 2.37988 19.1758C2.41616 18.338 1.07818 17.9537 1.79688 16.9639C1.91665 16.7888 4.39604 16.2136 2.48633 16.1357C2.36787 16.124 1.34041 16.4863 1.15039 16.1787C0.640241 15.3456 0.299365 14.2625 0.671875 13.5684C0.732407 13.4554 1.02517 13.4629 1.33789 13.4902C1.36684 13.4608 1.39889 13.431 1.43457 13.4023C1.47156 13.3764 1.57648 13.3589 1.72949 13.3467C1.7216 13.4051 1.71423 13.4646 1.70703 13.5254C1.94733 13.548 2.14533 13.558 2.18848 13.502C2.23577 13.4426 2.27765 13.3838 2.31445 13.3252C3.27375 13.3133 4.73294 13.3629 5.27832 13.3145C6.08481 13.2494 5.63449 13.1178 5.16504 13.0381C4.69544 12.9584 2.93333 12.9152 2.66992 12.8359C2.6314 12.8244 2.59641 12.8128 2.56543 12.8018C2.67348 12.5351 2.77378 12.296 3.03418 12.1113C3.17601 12.0195 4.38099 12.3264 4.44043 12.3184C4.57852 12.3008 4.35968 12.2062 4.00391 12.085C4.0882 12.0931 4.16286 12.0999 4.22363 12.1035C5.17959 12.1638 4.52903 12.0797 3.70117 11.9854C3.50649 11.9231 3.2938 11.8579 3.08691 11.7949C3.40654 11.8227 3.64389 11.8443 3.67383 11.8486C5.64499 12.0217 3.18543 11.6929 2.74707 11.6172C2.4914 11.5747 2.31116 11.5416 2.1875 11.5146L2.18652 11.5176C2.17676 11.5143 2.16734 11.5109 2.1582 11.5078C1.98869 11.4696 1.93802 11.4455 1.94141 11.4287C1.59729 11.2945 1.46086 11.2015 1.46289 11.1396C1.43096 11.1294 1.43527 11.1238 1.4668 11.1221C1.51477 11.0292 1.92995 11.0198 2.39648 11.0439C2.37418 11.0896 2.35076 11.1366 2.32812 11.1855C2.61914 11.2133 2.8749 11.2392 2.89453 11.2402C3.26308 11.2346 3.27409 11.1788 3.16113 11.1064C3.44383 11.1375 3.67424 11.1717 3.76074 11.1953C6.12695 11.6346 3.44265 10.9391 3.13281 10.8037C3.08131 10.7817 3.03398 10.7612 2.99121 10.7422C3.07719 10.7469 5.64315 11.1487 3.86621 10.8105C3.6538 10.7697 3.07782 10.6749 2.70898 10.6055C2.67816 10.588 2.65637 10.5746 2.64355 10.5635C2.6389 10.5724 2.63462 10.5818 2.62988 10.5908C2.52398 10.5701 2.44291 10.5522 2.40527 10.54C1.75501 10.3251 1.72388 10.1981 1.91211 10.1279C1.94028 10.121 2.38753 10.2072 2.78125 10.2832C2.74641 10.3619 2.70581 10.4433 2.66113 10.5293C2.86473 10.5222 3.96513 10.8324 4.16992 10.8447C5.16392 10.8997 4.34779 10.4011 4.34082 10.21C4.33917 10.191 4.30433 10.1656 4.24707 10.1357C5.52673 10.3922 7.30028 10.758 7.42969 10.7803C8.29514 10.9188 7.33019 10.6904 5.52246 10.2451C5.02517 10.1222 2.2243 9.51176 3.60352 9.77148C3.64794 9.77975 4.79006 10.0477 4.84277 10.0537C5.23659 10.0998 4.64291 9.93271 4.87891 9.9375C5.17337 9.94317 5.57139 9.92594 5.47363 9.84082C5.27528 9.66844 3.84051 9.19641 5.48438 9.50195C5.4871 9.50243 5.49686 9.50567 5.5127 9.50977C6.29185 9.85362 7.08213 10.201 6.92285 10.1201C6.63901 9.97768 6.23496 9.79507 5.7334 9.56836C6.36956 9.73826 7.96726 10.1672 7.4873 9.99902C6.89829 9.79159 5.93546 9.42499 6.23438 9.44531C4.02073 8.74037 3.73308 8.55497 4.70215 8.74707C5.25313 8.85632 6.00703 9.04488 6.45605 9.13574C6.8905 8.92059 7.15225 8.67982 7.08887 8.19238C7.07996 8.11208 5.83395 7.58695 5.8252 7.54688C6.11896 5.52157 7.78436 4.15704 9.37207 4.28027C9.43904 4.28574 10.1691 5.25055 10.3164 5.30273C10.591 5.38443 10.9515 4.77234 10.8262 4.5C10.8533 4.52604 12.137 6.42196 11.4688 5.24023C11.2475 4.61152 10.8459 4.51033 10.8262 4.5C10.5896 4.09047 9.57523 1.16788 10.6611 2.5C11.1985 3.19835 11.7491 4.34873 12.0957 4.49609C12.5998 4.74452 12.241 2.88663 12.4375 2.55957C12.4449 2.54676 12.4538 2.53754 12.4639 2.53125C12.8139 3.4552 13.278 4.58159 13.3545 4.88672C13.3688 4.79148 13.4541 4.72887 13.5889 4.68848C13.5181 4.50611 13.4338 4.28738 13.335 4.02441C13.2797 3.86796 13.7158 4.73996 13.0566 3.17578C13.0192 3.08221 12.9637 2.95472 12.8984 2.80957C12.9751 2.88152 13.0371 2.93606 13.0625 2.9248C13.2338 2.84491 13.0935 2.03485 13.1973 2.15723C13.2094 2.17054 13.5718 3.39302 13.5869 3.43555C13.7439 3.87671 13.4918 2.99906 13.5908 3.31348C13.6219 3.41209 13.8741 4.24751 13.9766 4.58203C13.8535 4.20953 13.5755 3.39853 13.8535 4.37988C13.8729 4.44621 13.8993 4.53282 13.9307 4.63379C13.9506 4.63229 13.9715 4.63106 13.9922 4.62988C14.0043 4.66915 14.0122 4.69756 14.0166 4.71094C14.0414 4.78187 14.0267 4.73217 13.9932 4.62988C14.955 4.57519 16.6761 4.84675 16.8291 4.31738C16.8324 4.31004 16.8397 4.24938 16.8506 4.12402C16.854 4.08373 16.879 3.63435 16.9004 3.2666C16.8888 3.0937 16.8803 2.96242 16.875 2.92773C16.8373 2.48467 16.8061 2.2072 16.7822 2.05664C16.8484 2.04424 16.9636 2.06474 17.085 2.08887C17.1141 1.5991 17.1341 1.28875 17.1045 1.95117C17.1036 1.97083 17.1003 2.01932 17.0967 2.09082C17.1171 2.0949 17.1377 2.09941 17.1582 2.10352C17.2218 1.16141 17.2654 0.559011 17.2314 1.29395C17.2256 1.41813 17.2057 1.74226 17.1836 2.1084H17.1855C17.1843 2.11893 17.1829 2.12966 17.1816 2.14062C17.1304 2.98882 17.0664 4.03781 17.1211 3.37695C17.1424 3.11795 17.1908 2.325 17.2041 2.23145C17.2234 2.09396 17.2242 2.28823 17.2451 2.12012H17.248C17.248 2.11167 17.2471 2.10354 17.2471 2.0957C17.2681 1.91035 17.3083 1.39211 17.3965 0C17.3899 0.36113 17.3214 1.75573 17.3115 2.13086C17.3171 2.13173 17.3226 2.13299 17.3281 2.13379C17.3452 1.95376 17.3684 1.65972 17.3652 1.79004C17.3648 1.80684 17.3568 1.94827 17.3467 2.13672C17.4531 2.15064 17.5345 2.1469 17.5479 2.09766C17.5703 2.60477 17.5016 3.99745 17.5166 4.47754C17.5618 8.28827 17.9395 3.91906 18.46 3.66602C18.6024 3.59048 18.1124 6.69551 18.1123 7.17773C18.1067 7.77866 18.2931 7.48493 18.2959 7.89258C18.1746 8.23559 17.8742 9.18466 17.8506 9.23535C17.7376 9.48673 17.8741 8.89848 17.8311 8.85547C17.7983 8.83194 17.79 8.84179 17.7939 8.64551C17.7938 8.54603 17.6757 8.73933 17.7031 8.44727C17.7143 8.31711 18.0124 7.14241 18.0273 7.05762C18.2284 5.79939 17.7976 8.02318 17.6797 8.19336C17.4623 8.49015 17.3235 8.47702 17.1152 7.90723C17.1017 8.54392 17.094 8.86939 17.1045 8.35254C17.1047 8.33171 17.107 8.17788 17.1104 7.94434C17.1109 7.92948 17.1118 7.9143 17.1123 7.89941L17.1113 7.89648C17.1119 7.85683 17.1127 7.81493 17.1133 7.77148C17.1118 7.81072 17.1099 7.85042 17.1084 7.88965C17.0624 7.7622 17.0133 7.60762 16.959 7.42383C16.9983 6.69257 17.0286 6.11805 17.0342 5.97266C17.0568 5.33143 17.0037 6.09931 16.9268 7.31445C16.9158 7.27636 16.905 7.23668 16.8936 7.19629C16.8031 6.88196 17.0089 4.58862 16.6963 6.01367C16.6787 6.11003 16.6694 7.2481 16.5996 7.30664C16.2325 7.65608 15.6006 7.18446 14.6914 6.99609C14.7449 7.16217 14.7842 7.28287 14.7988 7.33301C14.8764 7.59901 14.8056 7.40541 14.6602 6.99023C14.6331 6.98486 14.6057 6.97944 14.5781 6.97461C15.0199 8.17302 15.0363 8.2367 14.5518 6.96973C14.1804 6.90762 13.7652 6.89864 13.3057 7.01172C11.9264 7.32248 10.0803 8.42853 8.93652 9.83887C8.795 10.0557 8.6628 10.2661 8.54004 10.4707C8.21708 10.386 7.96796 10.3204 7.94629 10.3154C7.53012 10.2219 7.93694 10.3372 8.52637 10.4941C6.93465 13.1567 6.89092 14.8582 7.26074 17.3604C7.58591 19.8682 10.2062 23.1993 12.9014 24.2949C13.0199 23.9424 13.1148 23.6612 13.1406 23.584C13.7121 21.8609 13.4527 22.627 13.6895 21.9141C14.6229 19.0957 15.5739 16.2103 16.4697 13.498C16.4929 13.4985 16.5167 13.4995 16.541 13.5C16.5609 13.561 16.5821 13.6257 16.6045 13.6943C16.3838 14.1453 16.4576 13.9966 16.6055 13.6963C16.6083 13.705 16.6114 13.7138 16.6143 13.7227C16.3642 14.2539 16.0975 14.8153 16.0713 14.8799C16.009 15.1032 16.2647 14.5438 16.6221 13.7471C16.6963 13.9746 16.7836 14.2424 16.8857 14.5527C16.8533 14.9718 16.848 15.2083 16.9229 14.6641C16.9409 14.719 16.9596 14.7755 16.9785 14.833L16.9805 14.8398C17.0095 14.9279 17.0392 15.0191 17.0703 15.1133C17.1384 15.3358 17.6709 16.6645 17.6602 16.4316C17.6436 16.1802 16.9997 14.5944 16.9375 14.3691ZM19.6992 15.9434C20.4003 16.3554 20.6379 16.4422 20.3701 16.2256C20.3476 16.2079 20.0242 16.0752 19.6992 15.9434ZM18.1982 15.2109C18.3123 15.2642 19.2482 15.6733 19.3926 15.7598C19.4167 15.7744 19.4406 15.7887 19.4639 15.8027C20.0717 16.0069 20.9888 16.3136 20.5312 16.0732C20.4808 16.0402 18.0029 15.1803 19.7646 15.748C19.8772 15.7831 20.893 16.1284 20.998 16.1494C21.4562 16.2313 19.6736 15.6547 19.7295 15.626C17.9879 14.9861 19.5221 15.6905 18.9141 15.4902C18.8162 15.4569 16.4149 14.3863 18.1982 15.2109ZM20.5068 12.9336C20.5441 13.2333 20.5609 13.4889 20.5635 13.709C20.2607 13.6875 19.9682 13.6678 19.6914 13.6494C19.7581 13.6594 19.8123 13.6669 19.8506 13.6729C20.095 13.6893 20.3437 13.7064 20.5635 13.7207C20.5636 13.7301 20.5634 13.7398 20.5635 13.749C20.335 13.7287 20.001 13.7002 19.6123 13.668C19.6373 13.6709 19.663 13.6737 19.6885 13.6768C19.8787 13.6931 20.2781 13.7281 20.5635 13.7529C20.5635 13.7597 20.5645 13.7667 20.5645 13.7734C20.446 13.7609 20.2723 13.743 20.0654 13.7217C20.2539 13.744 20.4142 13.763 20.4863 13.7715C20.5168 13.7751 20.5431 13.7779 20.5645 13.7803C20.5632 14.4973 20.4116 14.8233 20.374 15.1074C20.3103 15.4194 20.3128 15.6096 20.4443 15.8193C20.8117 15.9299 21.2181 16.0503 21.3037 16.0527C21.9817 16.0631 22.1824 15.7878 22.0244 15.418C21.9898 15.3481 20.525 15.2062 20.5381 15.1523C20.605 14.8976 20.0625 14.7466 21.4893 14.3359C21.6842 14.3178 24.3059 13.8013 22.6875 13.7158C22.4879 13.7131 21.4007 13.8493 21.2617 13.7949C21.2307 13.7833 21.2018 13.7704 21.1748 13.7578C21.296 13.7645 21.3202 13.7647 21.1934 13.7539C21.1827 13.7531 21.1718 13.7527 21.1611 13.752C20.6914 13.525 20.8247 13.1644 20.5068 12.9336ZM17.2695 15.0645C17.394 15.3439 17.512 15.6098 17.5225 15.6299C17.8171 16.1286 17.5767 15.5867 17.1357 14.6504C17.1776 14.7836 17.2256 14.9298 17.2695 15.0645ZM16.9297 14.6133C16.9862 14.8301 16.9501 14.7329 16.9756 14.8232C16.9582 14.7681 16.9398 14.7136 16.9229 14.6602C16.9249 14.6451 16.9275 14.6295 16.9297 14.6133ZM17.4414 14.6338C17.459 14.6618 17.4764 14.6905 17.4941 14.7188C17.4754 14.687 17.4562 14.6556 17.4375 14.624C17.4386 14.6274 17.4403 14.6305 17.4414 14.6338ZM16.8916 14.4766C16.8897 14.4998 16.8885 14.5226 16.8867 14.5449C16.791 14.243 16.7043 13.9704 16.6279 13.7334C16.6358 13.7157 16.6434 13.6976 16.6514 13.6797C16.7434 13.9814 16.8542 14.3479 16.8916 14.4766ZM16.9531 13.8203C16.941 13.8006 16.9281 13.7813 16.916 13.7617C16.9203 13.7798 16.9253 13.7982 16.9297 13.8164C16.9365 13.8273 16.9434 13.8387 16.9502 13.8496C16.949 13.8616 16.9475 13.8736 16.9463 13.8857C16.9621 13.9518 16.9768 14.0153 16.9883 14.0674C16.9925 14.0229 16.9966 13.977 17.001 13.9307C17.0796 14.0564 17.1602 14.1845 17.2422 14.3154C17.2344 14.2959 17.2263 14.2768 17.2188 14.2578C17.1464 14.1379 17.0752 14.0187 17.0039 13.9023C17.0087 13.8518 17.0129 13.801 17.0176 13.751C17.001 13.7107 16.9864 13.6745 16.9727 13.6426C16.9663 13.698 16.9597 13.7578 16.9531 13.8203ZM17.0039 13.9023C17.003 13.9116 17.0019 13.9214 17.001 13.9307C16.984 13.9036 16.967 13.8765 16.9502 13.8496C16.9512 13.8401 16.9521 13.8297 16.9531 13.8203C16.9699 13.8475 16.9871 13.8749 17.0039 13.9023ZM20.7295 13.792C20.6682 13.7872 20.7057 13.7959 20.5645 13.7803C20.5645 13.7781 20.5645 13.7756 20.5645 13.7734C20.6922 13.787 20.7559 13.7937 20.7295 13.792ZM20.8867 13.7812C20.8824 13.7809 20.7461 13.7688 20.5635 13.7529C20.5635 13.7516 20.5635 13.7503 20.5635 13.749C20.7666 13.7671 20.8867 13.7787 20.8867 13.7812ZM21.1611 13.752C21.1655 13.754 21.1704 13.7557 21.1748 13.7578C21.0516 13.751 20.8283 13.7379 20.5635 13.7207C20.5634 13.7168 20.5635 13.7129 20.5635 13.709C20.7587 13.7229 20.9584 13.7368 21.1611 13.752ZM16.6562 13.6396C16.6581 13.6456 16.6603 13.6514 16.6621 13.6572C16.6588 13.6647 16.6547 13.6722 16.6514 13.6797C16.6491 13.6722 16.6468 13.6646 16.6445 13.6572C16.6478 13.6504 16.6511 13.6436 16.6543 13.6367C16.6548 13.6378 16.6558 13.6386 16.6562 13.6396ZM19.3936 13.6416C19.5233 13.6505 19.6615 13.6604 19.8018 13.6699C19.7532 13.6635 19.6879 13.6548 19.6045 13.6436C19.4512 13.6335 19.3026 13.6233 19.1602 13.6143C19.2208 13.6214 19.3019 13.6308 19.3936 13.6416ZM19.2852 13.6426C19.3227 13.6459 19.3531 13.6492 19.377 13.6514C19.3367 13.6473 19.2957 13.6428 19.2549 13.6387C19.1975 13.634 19.1389 13.6288 19.0801 13.624C19.1561 13.631 19.2251 13.6373 19.2852 13.6426ZM16.6445 13.6162C16.642 13.6214 16.6393 13.6267 16.6367 13.6318V13.6299C16.6392 13.6248 16.642 13.6195 16.6445 13.6143V13.6162ZM18.6914 13.585C18.6935 13.586 18.6952 13.5878 18.6973 13.5889C18.6697 13.5863 18.6416 13.5828 18.6133 13.5801C18.6389 13.5816 18.6652 13.5834 18.6914 13.585ZM18.3438 13.5645C18.4044 13.5693 18.465 13.5742 18.5254 13.5791C18.4526 13.5736 18.373 13.568 18.2881 13.5615C18.3063 13.5626 18.3251 13.5634 18.3438 13.5645ZM18.5166 13.5635C18.4705 13.5615 18.4212 13.5598 18.3701 13.5576C18.3263 13.5534 18.2817 13.5492 18.2373 13.5449C18.2306 13.5413 18.2243 13.5367 18.2178 13.5332C18.3149 13.543 18.415 13.5532 18.5166 13.5635ZM16.9883 13.5078C16.999 13.508 17.0106 13.5077 17.0215 13.5078C17.0268 13.5219 17.0317 13.5364 17.0371 13.5508C17.0385 13.5363 17.0397 13.5217 17.041 13.5078C17.0345 13.5077 17.028 13.5079 17.0215 13.5078L17.0205 13.5068C17.0097 13.5067 16.999 13.506 16.9883 13.5059V13.5078ZM18.5166 13.4961C18.5515 13.5138 18.5859 13.5307 18.6191 13.5479C18.4473 13.5263 18.2855 13.5058 18.1289 13.4863C18.114 13.4787 18.0992 13.4723 18.0859 13.4658C18.202 13.4804 18.2906 13.4916 18.3428 13.498C18.6825 13.5404 18.4246 13.5027 18.0576 13.4512C18.0302 13.4384 18.0075 13.4289 17.9912 13.4238C18.1746 13.4489 18.352 13.4736 18.5166 13.4961ZM18.1289 13.4863C18.1561 13.5003 18.1862 13.5161 18.2178 13.5332C17.6275 13.4735 17.1442 13.4249 17.0635 13.417C17.0589 13.4166 17.0543 13.4164 17.0498 13.416C17.0519 13.3937 17.0538 13.3721 17.0557 13.3525C17.4264 13.3989 17.7636 13.4408 18.1289 13.4863ZM17.7412 13.5303C17.6741 13.5266 17.6135 13.5233 17.5605 13.5205C17.5312 13.5195 17.5022 13.5185 17.4736 13.5176C17.5201 13.5196 17.6182 13.5249 17.7412 13.5303ZM16.8604 13.5039C16.8468 13.4186 16.8557 13.3951 16.9102 13.5049C16.8934 13.5046 16.8768 13.5042 16.8604 13.5039ZM16.7178 13.5029C16.7222 13.503 16.727 13.5029 16.7314 13.5029V13.502C16.7269 13.5019 16.7223 13.502 16.7178 13.502V13.5029ZM16.5967 13.501C16.6021 13.5011 16.6078 13.5009 16.6133 13.501L16.6123 13.5C16.6067 13.4999 16.6012 13.5001 16.5957 13.5L16.5967 13.501ZM16.9072 13.5C16.856 13.398 16.8481 13.419 16.8604 13.499C16.8758 13.4995 16.8914 13.4995 16.9072 13.5ZM16.7246 13.4883C16.7256 13.4899 16.7265 13.4916 16.7275 13.4932C16.73 13.4932 16.7329 13.4941 16.7354 13.4941C16.7375 13.4894 16.7391 13.4843 16.7412 13.4795C16.7388 13.4757 16.7368 13.4716 16.7344 13.4678C16.7312 13.4745 16.7278 13.4816 16.7246 13.4883ZM16.5176 13.4268C16.5242 13.447 16.5312 13.4681 16.5381 13.4893C16.5161 13.4887 16.4946 13.4878 16.4736 13.4873C16.4804 13.4668 16.4874 13.4463 16.4941 13.4258C16.5019 13.4264 16.5097 13.4262 16.5176 13.4268ZM19.8711 13.4863C20.1712 13.5858 19.7599 13.4558 19.0752 13.2383C19.0767 13.2378 19.0785 13.2368 19.0801 13.2363C19.3704 13.3267 19.655 13.4167 19.8711 13.4863ZM16.7148 13.4717V13.4727C16.718 13.4662 16.7214 13.4597 16.7246 13.4531V13.4521C16.721 13.459 16.7179 13.4659 16.7148 13.4717ZM18.1611 10.5381C17.9589 10.965 17.4956 11.9108 17.1426 12.6221C17.6816 12.7941 18.252 12.9761 18.7383 13.1309C18.0652 12.923 17.5005 12.7528 17.876 12.875C18.2062 12.9802 18.0358 12.9332 18.2285 13.001C18.2982 13.0296 18.597 13.1141 18.875 13.1924C18.8824 13.1889 18.8912 13.1854 18.8994 13.1816C18.9596 13.2008 19.0185 13.2203 19.0752 13.2383C19.0687 13.2402 19.0618 13.2423 19.0557 13.2441C19.4141 13.3454 19.623 13.4062 18.998 13.2588C18.9848 13.2619 18.9731 13.2643 18.9639 13.2656C19.5566 13.4071 20.093 13.5354 19.0703 13.2979C19.0519 13.2936 19.0047 13.2829 18.9395 13.2676C18.9156 13.2686 18.8948 13.2696 18.877 13.2695C19.339 13.3748 19.5931 13.4323 19.4141 13.3945C19.3998 13.3916 19.1427 13.3334 18.8555 13.2686C18.8167 13.2672 18.796 13.2629 18.791 13.2549C18.4449 13.1768 18.0784 13.094 18.0508 13.0898C17.355 12.9962 19.415 13.4703 19.2598 13.4688C19.2401 13.4659 18.6567 13.3684 18.1885 13.2871C18.1735 13.2845 18.1212 13.2745 18.0459 13.2607C17.8272 13.1534 17.591 13.0391 17.3447 12.9199C17.8739 13.0408 18.3957 13.1592 18.79 13.249C18.7908 13.245 18.7947 13.2406 18.8008 13.2354C18.46 13.1554 17.9146 13.0271 17.8135 13.0068C17.6447 12.9735 17.7361 12.999 17.3154 12.9053C17.2513 12.8742 17.1864 12.8422 17.1211 12.8105C17.2503 12.8419 17.3764 12.8721 17.4951 12.9014C18.4909 13.144 16.7277 12.7278 18.2188 13.0879C18.331 13.1152 18.5634 13.17 18.8086 13.2285C18.8132 13.2253 18.819 13.2224 18.8252 13.2188C18.62 13.1714 17.8976 12.9952 17.1133 12.8037C17.1159 12.7621 17.1188 12.7142 17.1221 12.6631C17.1144 12.6785 17.1071 12.6939 17.0996 12.709C17.0966 12.7323 17.0925 12.7608 17.0879 12.7949C17.0796 12.7909 17.0708 12.7872 17.0625 12.7832C17.0614 12.7854 17.0607 12.7878 17.0596 12.79C17.057 12.7894 17.0543 12.7887 17.0518 12.7881C17.0531 12.7852 17.0543 12.7822 17.0557 12.7793L17.0547 12.7783C17.0525 12.7773 17.05 12.7764 17.0479 12.7754C17.0465 12.779 17.0453 12.7826 17.0439 12.7861C17.0426 12.7858 17.0413 12.7855 17.04 12.7852C17.0414 12.7813 17.0426 12.7773 17.0439 12.7734C17.0028 12.7535 16.9615 12.7331 16.9199 12.7129C16.9192 12.7271 16.9177 12.7419 16.917 12.7559C16.9117 12.7546 16.9067 12.7523 16.9014 12.751C16.9019 12.736 16.9018 12.7207 16.9023 12.7051C16.8537 12.6814 16.8049 12.6577 16.7559 12.6338C16.7693 12.5932 16.7825 12.5522 16.7959 12.5117C16.833 12.5236 16.8706 12.5358 16.9082 12.5479C16.9127 12.4173 16.9176 12.2739 16.9229 12.1279C16.9266 12.1167 16.9299 12.105 16.9336 12.0938C16.9414 12.0702 16.9495 12.0471 16.957 12.0244C16.9507 12.1241 16.9399 12.3395 16.9287 12.5547C16.986 12.573 17.0443 12.5908 17.1025 12.6094C17.1085 12.5927 17.1144 12.5757 17.1201 12.5596C17.1184 12.5686 17.116 12.5779 17.1143 12.5869C17.1136 12.5911 17.1129 12.5956 17.1123 12.5996C17.1109 12.6035 17.1098 12.6075 17.1084 12.6113L17.1104 12.6123C17.0517 12.981 17.1326 12.4457 17.1045 12.6709C17.1112 12.6559 17.1182 12.641 17.125 12.626C17.1252 12.6231 17.1248 12.62 17.125 12.6172L17.1279 12.6182C17.6298 11.5041 18.1442 10.3917 18.2598 10.3193L18.1611 10.5381ZM17.0459 13.4609C17.0457 13.4629 17.0451 13.4649 17.0449 13.4668C17.0315 13.4658 17.0182 13.4649 17.0049 13.4639C17.0041 13.4618 17.0027 13.46 17.002 13.458C17.0163 13.4591 17.0314 13.4598 17.0459 13.4609ZM17.2422 13.3369C17.432 13.3642 17.7769 13.4118 18.0576 13.4512C18.0666 13.4554 18.076 13.4609 18.0859 13.4658C17.8415 13.4352 17.4735 13.3882 17.0576 13.3359C17.0584 13.3278 17.0589 13.32 17.0596 13.3125C17.1242 13.3213 17.1857 13.3289 17.2422 13.3369ZM17.8818 13.3672C18.2071 13.4055 16.9671 13.2048 18.1074 13.3682C18.1366 13.372 18.22 13.3851 18.333 13.4023C18.3757 13.4237 18.4172 13.4452 18.458 13.4658C17.9249 13.3868 17.3888 13.3061 17.1279 13.2627C17.1125 13.2587 17.0969 13.2552 17.082 13.251C17.2999 13.2822 17.8182 13.3601 17.8818 13.3672ZM16.7451 13.4443C16.749 13.4446 16.7529 13.445 16.7568 13.4453C16.7578 13.4431 16.7588 13.4407 16.7598 13.4385C16.7559 13.4382 16.7519 13.4378 16.748 13.4375C16.747 13.4397 16.7462 13.4421 16.7451 13.4443ZM16.6953 13.4404C16.7028 13.441 16.7103 13.4418 16.7178 13.4424C16.7163 13.44 16.7154 13.437 16.7139 13.4346C16.7062 13.434 16.698 13.4342 16.6904 13.4336C16.6919 13.436 16.6938 13.4381 16.6953 13.4404ZM16.5762 13.4316C16.5814 13.432 16.5866 13.4322 16.5918 13.4326C16.5911 13.4304 16.5905 13.428 16.5898 13.4258C16.5844 13.4254 16.5786 13.4242 16.5732 13.4238C16.574 13.4263 16.5754 13.4292 16.5762 13.4316ZM17.0498 13.416C17.0495 13.4196 17.0492 13.4231 17.0488 13.4268C17.0324 13.4251 17.0159 13.4235 17 13.4219C17.0005 13.4183 17.0014 13.4146 17.002 13.4111C17.0175 13.4125 17.0334 13.4145 17.0498 13.416ZM15.7393 13.3682C15.3396 13.3311 15.756 13.3607 16.4961 13.418C16.4953 13.4203 16.4949 13.4234 16.4941 13.4258C16.0977 13.3959 15.7969 13.3728 15.7393 13.3682ZM17.1279 13.2627C17.3356 13.317 17.5947 13.353 17.9746 13.4199C17.979 13.4205 17.9848 13.4218 17.9912 13.4238C17.688 13.3823 17.3681 13.3387 17.0615 13.2969C17.0631 13.2802 17.0642 13.2648 17.0654 13.252C17.0839 13.2552 17.105 13.2589 17.1279 13.2627ZM16.5156 13.4199C16.5093 13.4194 16.5024 13.4185 16.4961 13.418C16.4992 13.4086 16.5028 13.399 16.5059 13.3896C16.509 13.3994 16.5124 13.41 16.5156 13.4199ZM16.7666 13.3984C16.7701 13.3988 16.7737 13.399 16.7773 13.3994C16.7785 13.3969 16.7791 13.3941 16.7803 13.3916C16.777 13.3913 16.7737 13.3909 16.7705 13.3906C16.7693 13.3931 16.7678 13.3959 16.7666 13.3984ZM18.624 13.3975C18.8866 13.4461 18.5712 13.3924 18.1738 13.3242C18.1689 13.3218 18.1641 13.3188 18.1592 13.3164C18.3669 13.3519 18.5428 13.3822 18.624 13.3975ZM16.6621 13.3867C16.6696 13.3875 16.6776 13.3888 16.6855 13.3896C16.6841 13.3874 16.6821 13.3851 16.6807 13.3828C16.6729 13.3821 16.6654 13.3815 16.6582 13.3809C16.6594 13.3828 16.6609 13.3847 16.6621 13.3867ZM16.5586 13.376C16.5636 13.3766 16.5695 13.3773 16.5752 13.3779C16.5748 13.3768 16.5746 13.3752 16.5742 13.374C16.5685 13.3736 16.5625 13.3734 16.5576 13.373L16.5586 13.376ZM17.2549 13.1699C17.3729 13.1867 17.8081 13.2615 18.1738 13.3242C18.2097 13.342 18.2455 13.3597 18.2803 13.377C17.9438 13.3223 17.5884 13.2633 17.4668 13.2402C17.1356 13.1775 16.9228 13.1235 17.2549 13.1699ZM17.0576 13.3359C17.0571 13.3412 17.0562 13.347 17.0557 13.3525C17.0411 13.3507 17.0264 13.3485 17.0117 13.3467L17.0127 13.3438C17.0133 13.3395 17.0141 13.3353 17.0146 13.3311C17.0289 13.3328 17.0435 13.3342 17.0576 13.3359ZM2.08984 12.3105C2.6334 12.4838 1.9973 12.6 2.56543 12.8018C2.49829 12.9675 2.42812 13.1442 2.31445 13.3252C2.08425 13.328 1.8826 13.3345 1.72949 13.3467C1.78432 12.9412 1.8555 12.5911 1.93555 12.2861C2.01216 12.2948 2.06749 12.3035 2.08984 12.3105ZM16.8027 13.3203C16.8058 13.3207 16.8094 13.3219 16.8125 13.3223C16.8148 13.3171 16.817 13.3118 16.8193 13.3066C16.8163 13.3063 16.8126 13.306 16.8096 13.3057C16.8073 13.3105 16.805 13.3154 16.8027 13.3203ZM17.0879 12.7969V12.7949C17.0909 12.7964 17.0937 12.7984 17.0967 12.7998C17.1021 12.8011 17.1078 12.8024 17.1133 12.8037C17.1132 12.8049 17.1134 12.8065 17.1133 12.8076C17.1158 12.8088 17.1186 12.8093 17.1211 12.8105C17.1185 12.8099 17.1159 12.8092 17.1133 12.8086C17.1121 12.8265 17.1113 12.8438 17.1104 12.8594C17.1898 12.8773 17.2575 12.8924 17.3154 12.9053C17.3252 12.91 17.335 12.9152 17.3447 12.9199C17.2663 12.902 17.1877 12.8841 17.1094 12.8662C17.1064 12.9136 17.1046 12.9485 17.1035 12.9658C17.0992 13.0208 17.0951 13.0611 17.0928 13.0889C17.3747 13.1386 17.8177 13.2191 18.0459 13.2607C18.0841 13.2795 18.1221 13.2981 18.1592 13.3164C17.7902 13.2533 17.3205 13.1729 17.1006 13.1299C17.097 13.1292 17.0933 13.1286 17.0898 13.1279C17.0875 13.152 17.0882 13.1464 17.0889 13.1279C17.0852 13.1272 17.0808 13.1267 17.0771 13.126C17.0747 13.1504 17.0725 13.1798 17.0693 13.2139C17.0685 13.2218 17.0667 13.2327 17.0654 13.2461C17.0526 13.2423 17.0398 13.2384 17.0273 13.2344C17.033 13.1936 17.039 13.155 17.0439 13.1191C16.9983 13.1098 16.9607 13.1009 16.9307 13.0938C16.9345 13.0833 16.9386 13.0729 16.9424 13.0625C16.9728 13.0676 17.0087 13.074 17.0488 13.0811C17.0611 12.9925 17.071 12.9191 17.0791 12.8594C17.0629 12.8557 17.0464 12.8514 17.0303 12.8477C17.0312 12.8457 17.0322 12.8437 17.0332 12.8418C17.0491 12.8454 17.065 12.8491 17.0801 12.8525C17.0825 12.8348 17.0848 12.8182 17.0869 12.8027C17.0769 12.8003 17.0667 12.7974 17.0566 12.7949C17.0575 12.7933 17.0587 12.7917 17.0596 12.79C17.069 12.7923 17.0785 12.7946 17.0879 12.7969ZM17.0615 13.2969C17.0611 13.3017 17.0601 13.3074 17.0596 13.3125C17.0457 13.3106 17.0317 13.3086 17.0176 13.3066C17.0182 13.3019 17.0189 13.2967 17.0195 13.292C17.0333 13.2939 17.0477 13.295 17.0615 13.2969ZM16.6055 13.2959C16.613 13.2968 16.6205 13.2979 16.6279 13.2988C16.6243 13.293 16.6208 13.287 16.6172 13.2812C16.6098 13.2803 16.6021 13.2792 16.5947 13.2783C16.5983 13.2841 16.6019 13.2901 16.6055 13.2959ZM16.542 13.2715C16.5424 13.2727 16.5426 13.2742 16.543 13.2754C16.5417 13.2793 16.5403 13.2832 16.5391 13.2871C16.5368 13.2868 16.5345 13.2864 16.5322 13.2861C16.5304 13.2801 16.5279 13.2746 16.5264 13.2695C16.5315 13.2702 16.5369 13.2708 16.542 13.2715ZM16.8223 13.2793C16.8251 13.2797 16.8282 13.2809 16.8311 13.2812C16.8332 13.2765 16.8348 13.2713 16.8369 13.2666C16.8341 13.2662 16.831 13.266 16.8281 13.2656C16.826 13.2701 16.8244 13.2748 16.8223 13.2793ZM16.4756 13.2637H16.4766C16.4792 13.2692 16.4817 13.2748 16.4844 13.2803H16.4814C16.4794 13.274 16.4766 13.2679 16.4746 13.2617L16.4756 13.2637ZM16.5176 13.2393C16.518 13.2405 16.5182 13.2419 16.5186 13.2432C16.5204 13.2492 16.523 13.2583 16.5264 13.2695C16.5098 13.2675 16.4932 13.2658 16.4766 13.2637C16.4756 13.2616 16.4746 13.2589 16.4736 13.2568C16.473 13.2549 16.4723 13.2529 16.4717 13.251C16.4696 13.2447 16.4669 13.2386 16.4648 13.2324C16.4821 13.2347 16.5002 13.237 16.5176 13.2393ZM16.4727 13.2549C16.47 13.2492 16.4666 13.2439 16.4639 13.2383C16.4631 13.236 16.4626 13.2337 16.4619 13.2314C16.4629 13.2316 16.4638 13.2323 16.4648 13.2324C16.463 13.2269 16.4617 13.2213 16.46 13.2158C16.4587 13.2157 16.4573 13.215 16.4561 13.2148C16.448 13.1903 16.4401 13.1665 16.4326 13.1436C16.4329 13.142 16.4343 13.1403 16.4346 13.1387L16.4648 13.2324C16.4669 13.2386 16.4696 13.2447 16.4717 13.251C16.4721 13.2522 16.4722 13.2536 16.4727 13.2549ZM16.9541 13.2451C16.9603 13.2583 16.9592 13.2576 16.9512 13.2344C16.9505 13.2329 16.95 13.2312 16.9492 13.2295C16.959 13.2575 16.9608 13.2591 16.9541 13.2451ZM17.0654 13.248C17.0653 13.2492 17.0655 13.2508 17.0654 13.252C17.051 13.2494 17.0379 13.2472 17.0264 13.2451V13.2432C17.0374 13.2447 17.0506 13.2459 17.0654 13.248ZM17.082 13.251C17.0764 13.2502 17.0707 13.2488 17.0654 13.248V13.2461C17.0708 13.2477 17.0766 13.2494 17.082 13.251ZM16.5742 13.2471C16.5818 13.2481 16.5901 13.249 16.5977 13.25C16.594 13.2442 16.5905 13.2382 16.5869 13.2324C16.5793 13.2314 16.571 13.2305 16.5635 13.2295C16.5671 13.2353 16.5706 13.2413 16.5742 13.2471ZM16.4473 13.2021C16.4456 13.1986 16.4441 13.195 16.4424 13.1914C16.4384 13.1791 16.4345 13.1671 16.4307 13.1553C16.4309 13.1543 16.4314 13.1534 16.4316 13.1523C16.4368 13.1684 16.4418 13.1851 16.4473 13.2021ZM16.9102 13.1465L16.8975 13.1143C16.8952 13.109 16.8919 13.104 16.8896 13.0986C16.8874 13.0933 16.8861 13.0874 16.8838 13.082L16.8828 13.0811C16.8784 13.0706 16.8736 13.0602 16.8691 13.0498C16.8188 12.9315 16.7719 12.8228 16.8037 12.918C16.8041 12.919 16.8053 12.9198 16.8057 12.9209C16.8146 12.9474 16.8289 12.9886 16.8506 13.0479C16.8435 13.0469 16.8387 13.0458 16.8369 13.0459C16.8152 13.0471 16.7889 13.0535 16.8604 13.0752C16.8669 13.093 16.8742 13.1131 16.8818 13.1338V13.1328C16.8824 13.1344 16.8832 13.136 16.8838 13.1377V13.1396C16.8841 13.1406 16.8854 13.1416 16.8857 13.1426C16.8811 13.1527 16.8759 13.1634 16.8711 13.1738C16.8731 13.1747 16.875 13.1758 16.877 13.1768C16.8807 13.1684 16.8849 13.1597 16.8887 13.1514C16.8928 13.1626 16.8969 13.1744 16.9014 13.1865C16.9122 13.1912 16.9236 13.1958 16.9346 13.2002C16.9278 13.1847 16.9195 13.167 16.9111 13.1475L16.9102 13.1465ZM18.9014 13.1816H18.8994C18.8472 13.165 18.7928 13.1482 18.7383 13.1309C18.7918 13.1474 18.8469 13.1648 18.9014 13.1816ZM16.8975 13.1152C16.8962 13.118 16.8949 13.1212 16.8936 13.124C16.8926 13.1326 16.8924 13.1386 16.8916 13.1416C16.8911 13.1431 16.8907 13.1396 16.8906 13.1309C16.8889 13.1347 16.8875 13.1387 16.8857 13.1426C16.8851 13.141 16.8844 13.1393 16.8838 13.1377C16.8857 13.1339 16.8887 13.1307 16.8906 13.127C16.8906 13.1283 16.8906 13.1297 16.8906 13.1309C16.8916 13.1287 16.8925 13.1262 16.8936 13.124C16.8937 13.1225 16.8944 13.1208 16.8945 13.1191C16.8954 13.1175 16.8966 13.1159 16.8975 13.1143V13.1152ZM16.8828 13.0811C16.8853 13.0869 16.8872 13.0929 16.8896 13.0986L16.8906 13.0996C16.8905 13.1054 16.8907 13.1106 16.8906 13.1152C16.8878 13.121 16.8847 13.127 16.8818 13.1328C16.8742 13.1122 16.8678 13.0929 16.8613 13.0752C16.8677 13.0771 16.8749 13.0789 16.8828 13.0811ZM16.4756 13.0586C16.4816 13.0779 16.488 13.0974 16.4941 13.1172C16.486 13.1041 16.4778 13.0911 16.4697 13.0781C16.4641 13.0592 16.4584 13.0401 16.4531 13.0225C16.2426 12.3123 16.3371 12.6131 16.4756 13.0586ZM16.9189 13.0586C16.9142 13.0682 16.9091 13.078 16.9043 13.0879C16.9023 13.0874 16.9004 13.0864 16.8984 13.0859L16.8975 13.084C16.8982 13.0752 16.8987 13.0651 16.8994 13.0547C16.9054 13.0557 16.9122 13.0575 16.9189 13.0586ZM16.8916 13.0537C16.8915 13.0584 16.8917 13.0631 16.8916 13.0674C16.8898 13.0627 16.8876 13.0576 16.8857 13.0527C16.8875 13.053 16.8897 13.0534 16.8916 13.0537ZM17.0303 12.8477C17.0184 12.8715 17.0066 12.8951 16.9951 12.918C16.9778 12.9653 16.9603 13.0136 16.9424 13.0625H16.9414C16.9565 13.0203 16.9712 12.9793 16.9854 12.9395C16.9813 12.9476 16.9767 12.9558 16.9727 12.9639C16.9783 12.9513 16.9836 12.9383 16.9893 12.9258C16.9944 12.9113 16.9998 12.897 17.0049 12.8828C17.0098 12.8729 17.0151 12.8636 17.0195 12.8545C17.0154 12.8659 17.011 12.8772 17.0068 12.8887C17.0131 12.8747 17.0191 12.8607 17.0254 12.8467C17.027 12.8471 17.0287 12.8473 17.0303 12.8477ZM16.9238 13.0596C16.9222 13.0593 16.9205 13.0589 16.9189 13.0586C16.9433 13.0089 16.9661 12.9621 16.9863 12.9209C16.9681 12.9616 16.9472 13.0086 16.9238 13.0596ZM16.9141 12.8213C16.9089 12.9147 16.9036 12.9967 16.8994 13.0547C16.8968 13.0543 16.894 13.0541 16.8916 13.0537C16.893 12.997 16.8953 12.9156 16.8984 12.8174C16.9035 12.8185 16.909 12.8201 16.9141 12.8213ZM16.7988 12.8896C16.8105 12.9122 16.8391 12.9793 16.8691 13.0498C16.8618 13.0487 16.8555 13.0485 16.8506 13.0479C16.7952 12.8961 16.7855 12.864 16.7988 12.8896ZM16.334 12.8359L16.335 12.8379C16.3403 12.8538 16.3463 12.871 16.3525 12.8896V12.8906C16.368 12.9156 16.3838 12.9406 16.3994 12.9658C16.3998 12.9592 16.4008 12.951 16.4014 12.9414C16.379 12.9065 16.3569 12.872 16.335 12.8379C16.3248 12.8077 16.3156 12.782 16.3086 12.7617C16.3155 12.7817 16.3241 12.8064 16.334 12.8359ZM17.0049 12.8828C16.999 12.8949 16.9928 12.9077 16.9863 12.9209C16.9936 12.9047 17.0005 12.8893 17.0068 12.875C17.0059 12.8775 17.0058 12.8803 17.0049 12.8828ZM14.7578 12.9092C14.826 12.9195 14.8856 12.9365 14.5 12.8799C13.2566 12.6973 13.6098 12.7349 14.7578 12.9092ZM17.0098 12.8701C17.009 12.8718 17.0076 12.8733 17.0068 12.875C17.0076 12.8728 17.009 12.8704 17.0098 12.8682V12.8701ZM17.0215 12.8457C17.0179 12.8529 17.0137 12.8602 17.0098 12.8682C17.0126 12.8603 17.0158 12.8525 17.0186 12.8447L17.0215 12.8457ZM17.0557 12.7793C17.0543 12.7822 17.0531 12.7852 17.0518 12.7881C17.051 12.7898 17.0496 12.7922 17.0488 12.7939V12.793C17.0422 12.8065 17.0339 12.8224 17.0254 12.8398L17.0283 12.8408C17.0275 12.8427 17.0262 12.8448 17.0254 12.8467L17.0225 12.8457H17.0215C17.0223 12.8441 17.0236 12.8424 17.0244 12.8408C17.0334 12.8228 17.0413 12.8062 17.0479 12.793C17.046 12.7925 17.0439 12.7925 17.042 12.792C17.0427 12.7902 17.0433 12.788 17.0439 12.7861C17.0461 12.7867 17.0486 12.7876 17.0508 12.7881C17.0524 12.7849 17.0533 12.7812 17.0547 12.7783L17.0557 12.7793ZM17.0205 12.8389C17.0198 12.8408 17.0192 12.8428 17.0186 12.8447C16.9837 12.8367 16.9487 12.8292 16.9141 12.8213C16.9142 12.8194 16.914 12.8173 16.9141 12.8154C16.9514 12.8239 16.9869 12.8313 17.0205 12.8389ZM17.0566 12.7949C17.0488 12.8106 17.0409 12.8264 17.0332 12.8418C17.0316 12.8414 17.0299 12.8412 17.0283 12.8408C17.0353 12.8253 17.0418 12.8095 17.0488 12.7939C17.0513 12.7945 17.0542 12.7943 17.0566 12.7949ZM17.042 12.792C17.0362 12.8078 17.0303 12.8238 17.0244 12.8398C17.0231 12.8396 17.0218 12.8392 17.0205 12.8389C17.0263 12.8227 17.0325 12.8068 17.0381 12.791C17.0394 12.7913 17.0407 12.7917 17.042 12.792ZM16.3291 12.8291C16.3299 12.8303 16.3303 12.8318 16.3311 12.833C16.3139 12.782 16.3025 12.7449 16.2949 12.7236L16.3291 12.8291ZM16.2588 12.6699C16.2627 12.6749 16.2652 12.6797 16.2676 12.6826C16.274 12.6896 16.2807 12.6963 16.2871 12.7031C16.2887 12.711 16.2998 12.7486 16.3213 12.8174C16.2873 12.7646 16.2536 12.7129 16.2207 12.6621C16.2331 12.665 16.2463 12.667 16.2588 12.6699ZM16.8984 12.8115C16.8984 12.8135 16.8985 12.8154 16.8984 12.8174C16.8612 12.8088 16.824 12.8005 16.7871 12.792C16.7863 12.7899 16.785 12.7873 16.7842 12.7852C16.8241 12.7942 16.8622 12.8033 16.8984 12.8115ZM16.917 12.7617C16.916 12.7798 16.915 12.798 16.9141 12.8154C16.909 12.8143 16.9035 12.8127 16.8984 12.8115C16.899 12.7941 16.8998 12.7762 16.9004 12.7578C16.9059 12.7591 16.9115 12.7604 16.917 12.7617ZM17.04 12.7852C17.0394 12.7869 17.0387 12.7892 17.0381 12.791C16.9981 12.7813 16.9574 12.7715 16.917 12.7617C16.9171 12.7599 16.9169 12.7577 16.917 12.7559C16.9578 12.7658 16.9994 12.7752 17.04 12.7852ZM16.7607 12.7236C16.7689 12.7449 16.7766 12.7654 16.7842 12.7852C16.7604 12.7798 16.736 12.7743 16.7109 12.7686C16.7168 12.751 16.7227 12.7334 16.7285 12.7158C16.7391 12.7184 16.7501 12.7211 16.7607 12.7236ZM16.7109 12.7686C16.7103 12.7704 16.7096 12.7726 16.709 12.7744C16.6648 12.7643 16.6207 12.7542 16.5771 12.7441C16.5773 12.7423 16.577 12.7402 16.5771 12.7383C16.6237 12.7489 16.6684 12.7589 16.7109 12.7686ZM16.9014 12.751C16.9013 12.753 16.9005 12.7558 16.9004 12.7578C16.854 12.7466 16.8074 12.7349 16.7607 12.7236C16.7599 12.7215 16.7586 12.719 16.7578 12.7168C16.8055 12.7284 16.8537 12.7393 16.9014 12.751ZM16.5586 12.7334C16.5586 12.7352 16.5586 12.7375 16.5586 12.7393C16.5356 12.734 16.5121 12.7289 16.4893 12.7236C16.4895 12.722 16.49 12.7204 16.4902 12.7188C16.5134 12.724 16.5364 12.7283 16.5586 12.7334ZM16.582 12.6807C16.5803 12.7016 16.5787 12.7209 16.5771 12.7383C16.571 12.7369 16.5649 12.7348 16.5586 12.7334C16.559 12.715 16.5591 12.6954 16.5596 12.6748C16.5671 12.6766 16.5745 12.6789 16.582 12.6807ZM16.4971 12.6602C16.4947 12.6797 16.4926 12.6996 16.4902 12.7188C16.466 12.7132 16.4413 12.7069 16.416 12.7012C16.4172 12.6817 16.4177 12.6612 16.4189 12.6406C16.4448 12.6469 16.471 12.6539 16.4971 12.6602ZM16.7578 12.7168C16.7487 12.7146 16.7395 12.7122 16.7305 12.71C16.7343 12.6983 16.7383 12.6865 16.7422 12.6748C16.7476 12.6889 16.7526 12.7033 16.7578 12.7168ZM16.7305 12.71C16.7299 12.7118 16.7291 12.714 16.7285 12.7158C16.6798 12.7041 16.6306 12.6924 16.582 12.6807C16.5822 12.6785 16.5828 12.676 16.583 12.6738C16.6319 12.6858 16.6813 12.698 16.7305 12.71ZM16.5596 12.668C16.5595 12.6702 16.5596 12.6726 16.5596 12.6748C16.5389 12.6698 16.5177 12.6651 16.4971 12.6602C16.4973 12.658 16.4978 12.6555 16.498 12.6533C16.5185 12.6583 16.5391 12.663 16.5596 12.668ZM16.7559 12.6338C16.7513 12.6475 16.7467 12.6611 16.7422 12.6748C16.7349 12.6558 16.7265 12.6364 16.7188 12.6162C16.7308 12.6221 16.7438 12.6279 16.7559 12.6338ZM16.5566 12.1934C16.5467 12.2656 16.5364 12.3446 16.5264 12.4258C16.5397 12.43 16.553 12.4342 16.5664 12.4385C16.5687 12.3667 16.5714 12.2957 16.5732 12.2354C16.5853 12.2666 16.5972 12.2985 16.6094 12.3301C16.6091 12.3339 16.6087 12.338 16.6084 12.3418C16.6056 12.3799 16.6031 12.4157 16.6006 12.4492C16.6213 12.4558 16.6421 12.463 16.6631 12.4697C16.6831 12.5215 16.7012 12.5705 16.7188 12.6162C16.6767 12.5957 16.635 12.5744 16.5928 12.5537C16.5893 12.5989 16.5859 12.639 16.583 12.6738C16.5753 12.6719 16.5673 12.6699 16.5596 12.668C16.5606 12.6279 16.5621 12.5845 16.5635 12.54C16.5474 12.5322 16.5317 12.5235 16.5156 12.5156C16.51 12.5615 16.5035 12.608 16.498 12.6533C16.4719 12.6469 16.4459 12.6401 16.4199 12.6338C16.423 12.5831 16.4254 12.529 16.4287 12.4736C16.2848 12.4029 16.1405 12.3315 15.9971 12.2598C15.9966 12.2587 15.9956 12.2579 15.9951 12.2568C16.13 12.2999 16.2775 12.3467 16.4336 12.3965C16.4429 12.2398 16.4525 12.0775 16.46 11.9453C16.4918 12.0267 16.5242 12.1097 16.5566 12.1934ZM16.1934 12.5869C16.219 12.6203 16.2401 12.6466 16.2539 12.6641C16.2421 12.6614 16.2298 12.659 16.2178 12.6562C16.2015 12.6311 16.185 12.6057 16.1689 12.5811C16.1771 12.583 16.1852 12.585 16.1934 12.5869ZM16.2178 12.6562C16.2189 12.658 16.2196 12.6603 16.2207 12.6621C16.2171 12.6613 16.2136 12.66 16.21 12.6592C16.2088 12.6573 16.2072 12.6552 16.2061 12.6533C16.2098 12.6542 16.2141 12.6554 16.2178 12.6562ZM16.1826 12.6475C16.1835 12.6493 16.1837 12.6515 16.1846 12.6533C15.8674 12.5798 15.5876 12.5145 15.3818 12.4648C15.6892 12.5354 15.9543 12.5952 16.1826 12.6475ZM16.1602 12.5791C16.1753 12.6037 16.1907 12.6284 16.2061 12.6533C16.1982 12.6515 16.1905 12.6493 16.1826 12.6475C16.1712 12.6236 16.1589 12.6001 16.1475 12.5762C16.1516 12.5772 16.156 12.5781 16.1602 12.5791ZM17.125 12.6172C17.1201 12.6156 17.1152 12.6139 17.1104 12.6123C17.111 12.6082 17.1116 12.6039 17.1123 12.5996C17.1178 12.5846 17.1235 12.5695 17.1289 12.5547C17.1276 12.5758 17.1263 12.5969 17.125 12.6172ZM16.1621 12.5713C16.1642 12.5745 16.1669 12.5779 16.1689 12.5811C16.1661 12.5804 16.163 12.5798 16.1602 12.5791C16.1582 12.576 16.1562 12.5725 16.1543 12.5693C16.1569 12.57 16.1595 12.5707 16.1621 12.5713ZM16.1855 12.5771C16.1779 12.5753 16.1698 12.5732 16.1621 12.5713C16.1409 12.5387 16.1203 12.5062 16.0996 12.4746C16.0951 12.4651 16.0905 12.4557 16.0859 12.4463C16.1237 12.4959 16.1573 12.5404 16.1855 12.5771ZM16.1436 12.5664C16.145 12.5694 16.146 12.5731 16.1475 12.5762C15.5397 12.43 15.0486 12.3107 15.0605 12.3037C15.3268 12.3676 15.7153 12.462 16.1436 12.5664ZM16.1543 12.5693C16.1507 12.5685 16.1472 12.5673 16.1436 12.5664C16.133 12.5443 16.1219 12.5221 16.1113 12.5C16.1255 12.5229 16.14 12.5461 16.1543 12.5693ZM17.1309 12.5283C17.1273 12.5385 17.1238 12.5492 17.1201 12.5596C17.1247 12.5357 17.1292 12.5116 17.1338 12.4873C17.1329 12.5011 17.1317 12.5148 17.1309 12.5283ZM16.959 7.42383C16.8342 9.74351 16.6202 13.6454 16.8301 10.4697C16.8307 11.5083 16.9895 9.37198 16.9688 10.8535C16.968 10.8916 16.9442 11.5337 16.9229 12.1279C16.8807 12.2554 16.8383 12.3833 16.7959 12.5117C16.7513 12.4975 16.7068 12.4837 16.6631 12.4697C16.6511 12.4385 16.6389 12.4056 16.626 12.3721C16.6206 12.358 16.6148 12.3441 16.6094 12.3301C16.6739 11.439 16.8223 8.96436 16.9268 7.31445C16.9375 7.35174 16.9486 7.38871 16.959 7.42383ZM14.7637 10.0596C14.8197 10.0172 15.4939 11.3096 15.9678 12.2207C15.9743 12.2339 15.9793 12.2448 15.9834 12.2529C16 12.2857 15.998 12.2796 15.9863 12.2539L15.9971 12.2598C16.0266 12.3216 16.0562 12.3841 16.0859 12.4463C16.0733 12.4297 16.0603 12.4122 16.0469 12.3945C16.0642 12.4209 16.0819 12.4475 16.0996 12.4746C16.1036 12.483 16.1073 12.4917 16.1113 12.5C16.0893 12.4642 16.0675 12.4287 16.0459 12.3936C16.0081 12.3438 15.9669 12.29 15.9248 12.2344C15.6938 12.1606 15.5039 12.1001 15.377 12.0596C14.4406 11.7565 15.4067 12.0607 14.8936 11.8906C14.3804 11.7187 13.7382 11.5259 13.5498 11.4482C13.5358 11.4424 13.5323 11.4401 13.5381 11.4404C13.645 11.3425 15.0563 11.7831 15.9111 12.2158C15.6617 11.8863 15.3703 11.4979 15.3428 11.4561C15.1061 11.0373 15.405 11.4276 15.9375 12.2295C15.9412 12.2314 15.9456 12.2325 15.9492 12.2344C15.1294 10.8971 14.6871 10.1177 14.7637 10.0596ZM17.0391 12.417C17.0112 12.5169 17.0025 12.0706 16.9854 11.9385C17.012 11.8585 17.0363 11.784 17.0596 11.7148C17.0532 12.0321 17.0467 12.3881 17.0391 12.417ZM16.0439 12.3906C16.0133 12.3409 15.9837 12.2915 15.9541 12.2432C15.9513 12.2423 15.9481 12.2411 15.9453 12.2402C15.9775 12.2887 16.0102 12.3393 16.0439 12.3906ZM15.5625 12.3438C14.1375 11.9813 14.0306 11.9245 15.5088 12.3184C15.568 12.3342 15.6213 12.3588 15.5625 12.3438ZM1.4209 12.0947C1.67212 12.1013 1.85503 12.101 1.98828 12.0977C1.97055 12.1585 1.95254 12.2214 1.93555 12.2861C1.59599 12.2476 0.834263 12.198 0.620117 12.1738C-1.05237 11.9785 1.1612 12.0848 1.4209 12.0947ZM15.9736 12.2119C15.9807 12.2268 15.988 12.2419 15.9951 12.2568C15.9919 12.2558 15.9886 12.254 15.9854 12.2529C15.9382 12.1493 15.7458 11.7454 15.9736 12.2119ZM16.5732 12.2354C16.5678 12.2213 16.5621 12.2074 16.5566 12.1934C16.563 12.1469 16.569 12.103 16.5752 12.0635C16.5785 12.0418 16.5768 12.1197 16.5732 12.2354ZM16.4365 11.8848C16.4226 11.9937 16.4089 12.1071 16.4014 12.1328C16.3991 12.1383 16.404 12.0144 16.4131 11.8252C16.4208 11.8449 16.4287 11.8649 16.4365 11.8848ZM2.1416 11.8115C2.35799 11.8375 3.07986 11.9145 3.70117 11.9854C3.80867 12.0197 3.91111 12.0533 4.00391 12.085C3.63792 12.0497 3.09079 11.9823 2.71973 11.9766C2.13704 11.9726 2.62788 12.0814 1.98828 12.0977C2.01832 11.9947 2.04942 11.8972 2.08105 11.8047C2.10088 11.8071 2.1211 11.809 2.1416 11.8115ZM17.1074 11.8975C17.0968 12.3074 17.0896 11.973 17.084 11.6436C17.0929 11.6171 17.1019 11.5913 17.1104 11.5664C17.1104 11.7121 17.1095 11.8265 17.1074 11.8975ZM16.9854 11.9385C16.9761 11.9663 16.9667 11.9952 16.957 12.0244C16.9588 11.9971 16.9599 11.9783 16.9609 11.9707C16.9715 11.884 16.9789 11.8886 16.9854 11.9385ZM16.46 11.9453C16.4521 11.9253 16.4443 11.9046 16.4365 11.8848C16.4517 11.7662 16.4669 11.6527 16.4736 11.6602C16.4749 11.6692 16.4689 11.7855 16.46 11.9453ZM16.5059 10.0342C16.5043 10.0755 16.4406 11.2523 16.4131 11.8252C16.1266 11.0968 15.8688 10.4749 15.7002 10.0801C15.7696 9.9604 16.4601 10.125 16.5078 9.96094C16.5069 9.98437 16.5068 10.0091 16.5059 10.0342ZM3.08691 11.7949C2.79912 11.7699 2.44384 11.7406 2.1123 11.7148C2.1368 11.6465 2.16157 11.5806 2.18652 11.5176C2.39195 11.5855 2.73153 11.6867 3.08691 11.7949ZM17.084 11.6436C17.0762 11.6667 17.0678 11.6904 17.0596 11.7148C17.0645 11.4681 17.0697 11.2446 17.0742 11.2158C17.0772 11.1917 17.0801 11.4162 17.084 11.6436ZM17.1289 11.0068C17.1311 10.9949 17.1872 11.0176 17.1904 11.0059C17.1898 11.1264 17.1893 11.2295 17.1885 11.3369C17.1649 11.4052 17.1391 11.4815 17.1104 11.5664C17.1103 11.2293 17.1046 10.7242 17.0957 10.2021C17.109 10.577 17.1187 10.8151 17.1289 11.0068ZM2.25195 11.3594C2.57703 11.393 3.26409 11.4955 3.34082 11.5039C5.03151 11.697 2.56945 11.3319 2.40918 11.3057C2.3655 11.2989 2.32348 11.2924 2.2832 11.2861C2.27263 11.31 2.26253 11.3346 2.25195 11.3594ZM2.70898 10.6055C2.767 10.6383 2.85878 10.6834 2.99121 10.7422H2.99023C2.1164 10.7235 2.91986 10.9524 3.16113 11.1064C2.92547 11.0805 2.65312 11.0573 2.39648 11.0439C2.47932 10.8743 2.55881 10.726 2.62988 10.5908C2.6549 10.5957 2.68141 10.6003 2.70898 10.6055ZM10.1309 10.8906C10.8793 11.1044 9.46955 10.7452 8.52637 10.4941C8.53094 10.4865 8.53544 10.4784 8.54004 10.4707C9.17343 10.6368 10.0904 10.8789 10.1309 10.8906ZM17.4355 10.915C17.4843 10.7395 17.5252 10.6243 17.5596 10.5488C17.525 10.6523 17.4835 10.7741 17.4355 10.915ZM2.08789 9.09082C2.29379 9.25022 2.60053 9.448 3.04688 9.69824C3.11206 9.73252 3.96014 9.98642 4.24707 10.1357C3.57002 10 3.03044 9.89391 2.94629 9.88672C2.64122 9.85851 4.08927 10.1537 3.73145 10.1143C3.70157 10.1111 2.80993 9.92221 2.84375 9.95312C2.99252 10.0952 3.49081 10.3078 3.38184 10.3926C3.37671 10.3981 3.09596 10.3439 2.78125 10.2832C2.80666 10.2258 2.82993 10.17 2.84863 10.1143C2.95126 9.89421 1.93172 9.7886 2.01562 9.4541C2.04991 9.32625 2.07254 9.20443 2.08789 9.09082ZM17.5518 8.75586C17.6906 7.87738 17.6582 8.90694 17.4697 9.99609C17.338 10.8742 17.4043 9.85063 17.5518 8.75586ZM17.0635 9.22363C17.0464 9.66362 17.0306 10.0455 17.0166 10.3252C17.0313 9.93533 17.0457 9.5439 17.0605 9.15137C17.0613 9.17569 17.0627 9.19993 17.0635 9.22363ZM17.0957 10.2021C17.0867 9.94844 17.0769 9.63173 17.0635 9.22363C17.0659 9.16041 17.0678 9.09576 17.0703 9.03027C17.0805 9.38506 17.0889 9.79878 17.0957 10.2021ZM15.7002 10.0801C15.6949 10.0893 15.6927 10.1005 15.6953 10.1133C15.4016 9.41718 15.4611 9.52016 15.7002 10.0801ZM18.4609 7.83398C18.4589 7.84441 18.3706 8.05099 18.2637 8.30078C18.2628 8.30795 18.2626 8.3159 18.2617 8.32324C18.261 8.34817 18.2499 8.4061 18.2324 8.48633C18.2099 8.53653 18.1827 8.59848 18.1504 8.67383C18.1436 8.68676 18.0938 8.82083 18.0283 9C18.0821 8.90102 18.1395 8.79027 18.1787 8.71875C18.1618 8.78913 18.1436 8.86542 18.124 8.94434C18.101 9.00527 18.0827 9.05275 18.0811 9.05762C18.0834 9.05459 18.1 9.0118 18.123 8.94824C17.9136 9.79409 17.6052 10.9607 18.248 8.9668C18.2711 8.89064 18.4223 8.42089 18.6133 7.84082C18.5625 7.82302 18.5112 7.81043 18.4609 7.80371C18.4615 7.81252 18.4615 7.82284 18.4609 7.83398ZM2.1123 8.84473C2.16463 8.0827 2.00234 7.81371 3.55371 8.56445C4.39507 8.96438 5.13421 9.29752 5.7334 9.56836C5.63056 9.54089 5.55241 9.52001 5.5127 9.50977C4.84382 9.21458 4.18295 8.92237 4.1377 8.90625C3.15363 8.54621 4.43628 9.22073 3.97363 9.1709C3.87496 9.16137 2.67465 8.60791 2.60449 8.6084C2.35382 8.60941 2.85025 8.95232 2.7041 9.02441C2.66508 9.04155 2.36533 8.93288 2.1123 8.84473ZM17.9404 9.15332C17.9038 9.21174 17.8788 9.23955 17.8799 9.20312C17.8805 9.19666 17.9859 8.95118 18.1064 8.66992C18.0477 8.84152 17.9884 9.01409 17.9404 9.15332ZM17.0254 8.0957C17.0403 8.19758 17.0555 8.52906 17.0684 8.95801C17.0659 9.02248 17.063 9.08696 17.0605 9.15137C17.0507 8.85091 17.0387 8.50246 17.0254 8.0957ZM1.75293 8.75098C1.73004 8.71387 1.90529 8.7726 2.1123 8.84473C2.107 8.92189 2.09961 9.0041 2.08789 9.09082C1.90776 8.95136 1.80487 8.8412 1.75293 8.75098ZM17.1113 7.89648C17.1111 7.91254 17.1106 7.92896 17.1104 7.94434C17.0968 8.32284 17.0832 8.69097 17.0703 9.03027C17.0696 9.00595 17.0691 8.98175 17.0684 8.95801C17.0818 8.60274 17.0949 8.24635 17.1084 7.88965C17.1092 7.89199 17.1105 7.89417 17.1113 7.89648ZM18.2324 8.48633C18.3973 8.1195 18.318 8.38173 18.2236 8.66016C18.2273 8.64489 18.2267 8.64003 18.2197 8.64941C18.2114 8.66079 18.1969 8.68552 18.1787 8.71875C18.1999 8.63046 18.2183 8.55111 18.2324 8.48633ZM18.3311 7.79785C18.4121 7.60233 18.4164 7.71487 18.3311 7.99512C18.3189 8.03553 18.3018 8.08945 18.2812 8.15234C18.292 8.04303 18.2963 7.95848 18.2959 7.89258C18.3105 7.85139 18.3224 7.81893 18.3311 7.79785ZM17.124 7.49609C17.1226 7.5639 17.1205 7.6304 17.1191 7.69434C17.135 7.24672 17.1517 6.78985 17.167 6.35352C17.1524 6.73452 17.1385 7.11574 17.124 7.49609ZM17.1338 6.34277C17.0784 7.43539 17.0464 8.14157 17.1182 6.86133C17.1211 6.80538 17.1249 6.72591 17.1299 6.62891C17.1313 6.53356 17.1324 6.43772 17.1338 6.34277ZM17.2061 4.95215C17.1889 5.27148 17.171 5.61072 17.1543 5.93457C17.1524 6.03954 17.1505 6.14707 17.1484 6.25586C17.1691 5.84608 17.1958 5.32236 17.2178 4.875C17.2363 4.28414 17.2098 5.01883 17.2061 4.95215ZM16.9268 5.3252C16.9324 5.36072 16.9603 5.00461 16.9971 4.48242C16.9914 4.45003 16.9859 4.39809 16.9795 4.33301C16.9501 4.88904 16.9264 5.32303 16.9268 5.3252ZM17.0293 3.38281C17.0306 3.63448 17.032 3.88514 17.0312 3.98828C17.0591 3.58103 17.0894 3.1275 17.1182 2.69824C17.103 2.7165 17.0888 2.59042 17.0732 2.54199C17.0605 2.78393 17.0454 3.07787 17.0293 3.38281ZM17.0596 2.52539C17.0505 2.53466 17.0399 2.58724 17.0293 2.7207C17.0273 2.74797 17.0279 2.87042 17.0283 3.03027C17.0375 2.89008 17.0485 2.71039 17.0596 2.52539ZM12.1328 1.59082C11.8687 0.676699 12.5385 2.00916 12.8984 2.80957C12.7533 2.67327 12.5566 2.4736 12.4639 2.53125C12.325 2.16471 12.2044 1.82975 12.1328 1.59082ZM17.1855 2.1084C17.2096 1.89829 17.2319 1.77916 17.2441 1.98145C17.2457 2.00264 17.2465 2.04191 17.2471 2.0957C17.2461 2.1044 17.246 2.11283 17.2451 2.12012C17.2258 2.11654 17.2054 2.11232 17.1855 2.1084ZM16.7256 2.10059C16.727 1.89024 16.7466 1.83209 16.7822 2.05664C16.7506 2.06261 16.73 2.07642 16.7256 2.10059Z" fill="#007AFF"/>
<path d="M63.5849 20.1593C63.5495 19.9857 63.4935 19.8333 63.4171 19.7022C63.3407 19.5679 63.2453 19.4548 63.1307 19.3631C63.0188 19.2681 62.8879 19.1976 62.7378 19.1518C62.5905 19.1026 62.4282 19.078 62.2508 19.078C61.8689 19.078 61.5428 19.1878 61.2728 19.4073C61.0054 19.6269 60.8008 19.9431 60.6589 20.3559C60.5198 20.7688 60.4502 21.2668 60.4502 21.85C60.4502 22.4398 60.517 22.9444 60.6507 23.3638C60.7844 23.7832 60.9836 24.1043 61.2482 24.3271C61.5128 24.55 61.8416 24.6614 62.2345 24.6614C62.5809 24.6614 62.8688 24.6007 63.0979 24.4795C63.3298 24.3583 63.5031 24.1863 63.6177 23.9634C63.7322 23.7406 63.7895 23.4785 63.7895 23.1771L64.1824 23.2262H62.2672V21.2799H65.983V22.6757C65.983 23.5932 65.8207 24.3779 65.496 25.03C65.1741 25.6787 64.7294 26.1768 64.1619 26.5241C63.5972 26.8682 62.9492 27.0402 62.2181 27.0402C61.4023 27.0402 60.6862 26.8321 60.0696 26.416C59.453 25.9999 58.9715 25.4068 58.625 24.6368C58.2813 23.8668 58.1094 22.951 58.1094 21.8894C58.1094 21.0571 58.2144 20.3199 58.4245 19.6777C58.6373 19.0354 58.9319 18.4932 59.3084 18.0508C59.6849 17.6052 60.1201 17.2693 60.6139 17.0433C61.1077 16.8139 61.637 16.6992 62.2017 16.6992C62.6983 16.6992 63.1593 16.7844 63.5849 16.9548C64.0133 17.1219 64.3911 17.3611 64.7185 17.6724C65.0486 17.9804 65.3146 18.3457 65.5165 18.7684C65.7184 19.1911 65.8412 19.6547 65.8848 20.1593H63.5849Z" fill="#007AFF"/>
<path d="M57.0563 16.8369V26.9026H55.1575L52.1291 21.6142H52.08V26.9026H49.8047V16.8369H51.7363L54.7155 22.1057H54.781V16.8369H57.0563Z" fill="#007AFF"/>
<path d="M42.8148 26.9026H40.3594L43.1258 16.8369H46.236L49.0024 26.9026H46.547L44.7136 19.6089H44.6481L42.8148 26.9026ZM42.3564 22.9314H46.9726V24.976H42.3564V22.9314Z" fill="#007AFF"/>
<path d="M32.9453 26.9026V16.8369H36.5793C37.2177 16.8369 37.7538 16.9401 38.1876 17.1466C38.6241 17.353 38.9529 17.6446 39.1739 18.0214C39.3976 18.3982 39.5094 18.8422 39.5094 19.3533C39.5094 19.7236 39.4412 20.0611 39.3048 20.3658C39.1711 20.6705 38.9829 20.9261 38.7401 21.1325C38.4973 21.3357 38.2135 21.4766 37.8889 21.5552V21.6535C38.249 21.6699 38.5764 21.7797 38.871 21.9828C39.1657 22.1827 39.4003 22.4596 39.5749 22.8134C39.7495 23.164 39.8368 23.5769 39.8368 24.052C39.8368 24.6025 39.7168 25.0923 39.4767 25.5216C39.2393 25.9508 38.901 26.2883 38.4618 26.534C38.0225 26.7798 37.4987 26.9026 36.8903 26.9026H32.9453ZM35.2207 24.7204H36.2847C36.6666 24.7204 36.9531 24.6352 37.1441 24.4648C37.335 24.2912 37.4305 24.0356 37.4305 23.6981C37.4305 23.4622 37.3855 23.2623 37.2955 23.0985C37.2054 22.9347 37.0772 22.8102 36.9108 22.725C36.7471 22.6398 36.5493 22.5972 36.3174 22.5972H35.2207V24.7204ZM35.2207 20.9065H36.1537C36.3529 20.9065 36.5288 20.8688 36.6816 20.7934C36.8344 20.7181 36.9531 20.6099 37.0377 20.469C37.125 20.3249 37.1686 20.1496 37.1686 19.9431C37.1686 19.6319 37.0758 19.3943 36.8903 19.2305C36.7048 19.0634 36.4702 18.9798 36.1864 18.9798H35.2207V20.9065Z" fill="#007AFF"/>
<path d="M62.624 6.93312C62.521 6.69414 62.3763 6.483 62.1899 6.29967C62.0035 6.11308 61.7754 5.95594 61.5056 5.82827C61.2407 5.69733 60.9366 5.59748 60.5932 5.52874C60.2548 5.45999 59.8795 5.42562 59.4675 5.42562C58.6974 5.42562 58.0205 5.55329 57.4367 5.80863C56.8579 6.06397 56.4066 6.43553 56.0829 6.9233C55.7591 7.40779 55.5973 8.00032 55.5973 8.70087C55.5973 9.40143 55.7567 9.99723 56.0755 10.4883C56.3944 10.9793 56.8457 11.3541 57.4294 11.6128C58.0131 11.8681 58.7023 11.9958 59.4969 11.9958C60.218 11.9958 60.8336 11.9107 61.3437 11.7404C61.8588 11.5669 62.2512 11.323 62.521 11.0088C62.7957 10.6945 62.933 10.323 62.933 9.89411L63.5805 9.95794H59.6956V8.35714H66.0012V9.62403C66.0012 10.5079 65.7216 11.2674 65.1625 11.9025C64.6033 12.5343 63.8331 13.0221 62.8521 13.3658C61.8711 13.7062 60.7478 13.8765 59.4822 13.8765C58.0695 13.8765 56.8285 13.6686 55.7591 13.2528C54.6898 12.8338 53.8559 12.2397 53.2575 11.4704C52.664 10.6978 52.3672 9.78117 52.3672 8.72052C52.3672 7.90538 52.5438 7.17864 52.897 6.54028C53.255 5.89865 53.7554 5.35523 54.3979 4.91002C55.0405 4.46481 55.7886 4.12599 56.6421 3.89356C57.4956 3.66114 58.4202 3.54492 59.416 3.54492C60.2695 3.54492 61.0641 3.6284 61.7999 3.79535C62.5357 3.95904 63.1881 4.19146 63.7571 4.49263C64.331 4.79381 64.7995 5.15227 65.1625 5.56802C65.5254 5.98049 65.7584 6.43553 65.8614 6.93312H62.624Z" fill="#007AFF"/>
<path d="M50.0088 3.74023V13.7794H46.8438V3.74023H50.0088Z" fill="#007AFF"/>
<path d="M33.125 13.7794V3.74023H39.1479C40.2546 3.74023 41.1776 3.84971 41.917 4.06866C42.6564 4.28762 43.2122 4.59154 43.5844 4.98042C43.9565 5.36604 44.1426 5.81048 44.1426 6.31375C44.1426 6.7059 44.0251 7.05067 43.79 7.34805C43.555 7.64217 43.2318 7.884 42.8205 8.07354C42.414 8.25981 41.9489 8.39216 41.4249 8.47059V8.56863C41.9978 8.58497 42.534 8.69281 43.0335 8.89216C43.5378 9.0915 43.9467 9.37091 44.2601 9.73039C44.5735 10.0866 44.7302 10.5114 44.7302 11.0049C44.7302 11.5376 44.5319 12.0131 44.1352 12.4313C43.7435 12.8464 43.1632 13.1748 42.3945 13.4166C41.6257 13.6585 40.6782 13.7794 39.5519 13.7794H33.125ZM36.3054 12.0441H38.8982C39.7845 12.0441 40.4309 11.9314 40.8373 11.7059C41.2437 11.4771 41.4469 11.1732 41.4469 10.7941C41.4469 10.5163 41.3466 10.2712 41.1458 10.0588C40.945 9.8464 40.6586 9.67973 40.2864 9.55882C39.9192 9.43791 39.4809 9.37745 38.9717 9.37745H36.3054V12.0441ZM36.3054 7.94119H38.6632C39.099 7.94119 39.4858 7.89053 39.8237 7.78922C40.1665 7.68465 40.4358 7.53759 40.6316 7.34805C40.8324 7.15851 40.9328 6.93139 40.9328 6.66668C40.9328 6.30394 40.7394 6.01146 40.3525 5.78924C39.9706 5.56702 39.4271 5.45591 38.7219 5.45591H36.3054V7.94119Z" fill="#007AFF"/>
</g>
</svg>
