<svg width="1012" height="952" viewBox="0 0 1012 952" fill="none" xmlns="http://www.w3.org/2000/svg">
<path d="M232.967 256.387C289.445 215.312 345.923 174.237 376.301 152.435C406.679 130.634 409.247 129.35 399.017 137.674C388.787 145.998 365.682 163.968 349.287 177.718C308.265 212.123 292.673 228.439 282.628 241.703C278.29 247.432 278.359 253.042 291.186 246.701C304.012 240.361 330.325 222.391 360.888 204.79C391.451 187.19 425.467 170.503 438.176 166.72C450.886 162.938 441.259 172.564 407.418 199.345C373.578 226.125 315.817 269.767 283.173 296.1C243.224 328.326 238.16 339.995 239.113 342.271C239.743 343.777 244.558 341.337 297.565 315.646C350.571 289.955 452.616 239.895 511.924 211.86C571.232 183.825 584.709 179.332 592.936 177.018C601.163 174.704 603.73 174.704 579.06 189.786C554.389 204.868 502.404 235.032 434.87 282.661C367.336 330.29 285.828 394.47 241.913 430.099C197.999 465.728 194.148 470.863 273.031 440.134C351.913 409.406 513.645 342.659 595.036 310.521C676.428 278.383 672.577 282.875 618.608 320.167C564.639 357.46 460.668 427.415 403.898 466.983C347.129 506.55 340.711 513.61 340.613 517.247C340.419 524.537 370.233 509.332 426.643 479.955C465.259 459.845 528.62 438.384 571.922 424.226C615.224 410.067 637.687 406.217 634.818 411.293C631.949 416.369 603.069 430.488 553.534 463.434C503.999 496.379 434.685 547.723 394.806 578.344C354.927 608.965 346.584 617.309 348.062 621.286C349.54 625.263 361.093 624.621 397.529 617.231C433.965 609.841 494.936 595.721 540.464 586.522C585.993 577.323 614.232 573.472 628.458 572.772C642.685 572.072 642.043 574.639 612.19 607.73C582.337 640.822 523.292 704.359 482.606 752.173C441.92 799.987 421.382 830.151 410.161 847.295C398.939 864.439 397.655 867.648 439.674 853.256C481.692 838.864 567.05 806.774 609.419 791.848C651.787 776.921 648.578 780.13 616.76 799.112C584.943 818.093 524.614 852.75 486.797 875.738C434.558 907.492 416.481 925.351 409.986 933.782C408.165 936.145 411.191 935.794 425.35 929.046C439.508 922.297 465.18 909.461 520.442 892.259C575.705 875.057 659.78 853.878 706.3 841.684C752.821 829.49 759.239 826.923 742.649 832.018C726.06 837.114 686.269 849.95 632.076 871.644C577.883 893.339 510.495 923.503 473.533 939.684C436.572 955.865 432.079 957.149 478.22 927.004C524.361 896.859 621.272 835.247 667.345 803.507C713.418 771.767 705.717 771.767 615.428 789.417C525.139 807.066 352.496 842.365 261.634 860.228C170.771 878.091 166.921 877.449 236.818 836.686C306.715 795.922 450.477 715.056 520.365 674.36C590.252 633.665 581.909 635.59 513.431 661.291C444.954 686.992 316.595 736.41 238.276 763.152C159.958 789.893 135.57 792.46 128.782 788.648C121.995 784.837 133.547 774.568 204.641 723.069C275.734 671.57 406.018 579.151 491.746 521.273C577.475 463.395 614.699 442.857 623.927 433.561C633.155 424.265 613.26 426.832 540.114 446.766C466.969 466.701 341.177 503.925 349.861 477.534C358.545 451.142 505.516 360.007 590.855 309.208C676.194 258.409 695.448 250.708 707.292 245.457C719.136 240.206 722.987 237.639 716.627 236.316C710.268 234.994 693.581 234.994 610.216 251.359C526.851 267.725 377.312 300.457 306.375 312.505C235.437 324.553 247.631 314.926 307.182 286.862C366.733 258.798 473.271 212.589 554.146 182.687C635.022 152.785 687.008 140.591 675.922 133.347C664.837 126.102 589.105 124.177 542.069 125.111C495.033 126.044 478.988 129.895 464.626 135.408C437.195 145.939 417.804 163.599 405.172 180.091C399.381 187.652 398.317 195.941 399.892 206.006C401.467 216.07 406.602 228.264 423.687 252.516C440.772 276.769 469.653 312.709 487.74 336.679C513.416 370.707 519.499 386.652 520.151 387.352C522.297 389.658 519.519 373.932 503.143 325.642C486.768 277.352 454.678 191.352 432.692 137.742C410.705 84.1329 399.795 65.5208 392.891 54.9701C385.986 44.4194 383.419 42.494 381.776 43.4276C380.132 44.3611 379.491 48.2118 380.123 59.8225C380.755 71.4331 382.68 90.687 396.508 148.74C410.336 206.793 436.008 303.063 459.501 374.156C482.995 445.249 503.532 488.25 524.381 524.2C545.229 560.15 565.767 587.747 582.444 606.457C599.121 625.166 611.315 634.151 621.126 639.101C630.938 644.05 637.998 644.692 644.202 641.493C650.406 638.293 655.54 631.234 658.827 622.783C662.114 614.333 663.397 604.706 654.432 543.269C645.466 481.832 626.212 368.876 610.517 293.679C594.823 218.482 583.27 184.467 572.826 161.489C556.663 125.926 540.931 114.433 534.144 111.516C530.732 110.05 526.715 110.524 521.843 116.942C516.971 123.36 511.195 136.196 503.085 202.816C494.975 269.437 484.706 389.452 481.983 464.756C479.261 540.06 484.395 567.015 490.891 589.566C497.386 612.116 505.088 629.444 514.511 641.58C523.933 653.716 534.844 660.134 550.091 659.589C565.339 659.045 584.593 651.343 603.817 638.712C623.042 626.08 641.654 608.751 655.735 587.951C669.815 567.151 678.8 543.405 681.825 518.978C684.849 494.551 681.64 470.163 672.927 436.099C664.214 402.035 650.095 359.035 632.873 322.443C615.652 285.851 595.756 256.97 576.522 236.316C557.287 215.662 539.317 204.11 522.037 197.517C504.757 190.924 488.712 189.64 471.462 192.83C454.211 196.019 436.241 203.721 419.282 220.203C402.323 236.686 386.92 261.716 377.06 283.274C359.909 320.771 361.307 349.641 369.358 373.855C374.35 388.867 385.753 407.695 405.163 425.957C424.572 444.219 452.811 460.905 479.873 470.785C506.936 480.665 531.966 483.232 558.658 481.666C585.351 480.101 612.948 474.325 635.829 465.894C658.71 457.463 676.039 446.552 689.137 432.268C702.236 417.983 710.579 400.654 711.989 382.742C713.399 364.831 707.623 346.86 685.714 319.312C663.806 291.763 625.94 255.181 586.858 228.955C547.777 202.729 508.628 187.968 457.974 182.289C407.321 176.61 346.351 180.46 292.158 194.638C237.965 208.816 192.398 233.204 156.409 261.171C120.42 289.138 95.3896 319.944 81.5326 347.045C67.6757 374.146 65.7503 396.609 68.2883 424.868C70.8263 453.126 77.8861 486.499 88.5827 516.848C99.2792 547.197 113.399 573.511 131.583 594.126C149.767 614.742 171.588 628.861 194.061 634.851C216.533 640.841 238.996 638.274 288.434 619.944C337.871 601.614 413.603 567.599 472.833 534.352C532.063 501.105 572.496 469.657 597.818 442.546C623.139 415.435 632.124 393.614 629.052 370.179C625.979 346.744 610.576 322.355 587.88 306.904C565.183 291.452 535.661 285.676 494.459 287.193C453.258 288.71 401.273 297.695 359.41 310.988C317.548 324.281 287.383 341.609 260.292 364.014C233.2 386.418 210.096 413.374 196.91 431.752C183.724 450.131 181.157 459.116 183.043 470.163C184.93 481.209 191.348 494.045 204.923 509.001C218.497 523.957 239.035 540.643 263.092 551.165C287.15 561.687 314.105 565.537 349.492 566.237C384.878 566.938 427.878 564.37 476.022 555.346C524.167 546.322 576.152 530.919 614.485 515.925C652.817 500.93 675.922 486.81 691.996 471.835C708.07 456.86 716.413 441.457 719.107 431.597C721.801 421.736 718.592 417.886 709.237 413.014C699.882 408.142 684.479 402.366 660.179 399.711C635.878 397.056 603.146 397.698 550.986 407.014C498.826 416.33 428.228 434.3 376.778 452.222C325.327 470.143 295.163 487.472 269.034 506.988C242.905 526.504 221.726 547.684 206.965 568.221C192.203 588.759 184.502 608.012 181.497 623.707C176.37 650.489 190.103 680.827 207.227 713.189C215.273 728.394 227.56 737.849 239.92 745.707C252.279 753.564 265.757 758.698 299.014 757.171C332.27 755.645 384.897 747.301 435.755 734.018C486.612 720.735 534.105 702.765 571.407 685.806C608.709 668.847 634.38 653.444 650.814 640.374C667.248 627.305 673.666 617.036 677.293 607.254C680.92 597.471 681.562 588.486 675.796 580.328C670.029 572.169 657.835 565.109 635.829 560.189C613.824 555.269 582.376 552.701 532.802 555.871C483.228 559.042 416.481 568.027 363.164 580.999C309.846 593.971 271.98 610.657 242.205 626.313C212.43 641.969 191.892 656.089 177.462 669.78C163.031 683.472 155.329 696.308 152.004 704.525C148.678 712.742 149.962 715.951 153.511 719.85C161.956 729.128 186.758 739.289 229.068 750.938C253.07 757.547 283.572 760.021 319.969 760.721C356.367 761.421 398.083 758.854 440.111 753.68C482.139 748.507 523.214 740.806 556.247 730.741C589.28 720.677 613.026 708.482 627.826 698.029C642.627 687.576 647.761 679.232 650.406 673.009C653.051 666.785 653.051 662.934 649.521 659.346C645.991 655.758 638.931 652.549 620.854 650.575C602.777 648.601 573.896 647.959 519.227 658.218C464.558 668.477 384.975 689.656 322.157 711.798C259.339 733.94 215.697 756.403 189.364 771.826C163.031 787.248 155.329 794.95 161.31 807.902C167.29 820.855 187.186 838.825 212.196 851.933C237.207 865.041 266.729 872.743 323.334 876.069C379.938 879.394 462.73 878.111 518.216 871.673C573.702 865.236 599.373 853.684 613.561 845.165C627.749 836.647 629.674 831.513 629.061 826.942C628.449 822.372 625.24 818.521 609.788 808.194C594.336 797.867 566.739 781.18 517.545 760.069C468.35 738.958 398.394 713.928 347.275 703.28C296.155 692.632 265.99 697.125 235.048 707.782C204.106 718.44 173.3 735.127 155.504 746.29C137.709 757.453 133.858 762.588 133.158 768.442C131.684 780.767 148.581 802.087 174.739 828.304C188.209 841.804 209.24 847.46 262.159 851.428C315.078 855.395 401.078 855.395 464.635 851.223C528.193 847.052 566.7 838.708 594.881 828.634C641.782 811.868 660.791 786.12 666.626 769.939C669.158 762.917 668.61 757.609 666.684 753.359C662.791 744.767 640.254 736.819 596.038 725.179C568.819 718.013 530.643 713.539 483.218 712.81C435.794 712.08 379.957 716.573 338.999 723.701C298.041 730.829 273.653 740.456 256.597 749.907C239.541 759.359 230.555 768.344 233.307 785.167C236.059 801.99 250.821 826.378 333.836 840.225C416.851 854.073 567.673 856.64 648.578 855.716C729.483 854.792 735.901 850.3 705.513 799.851C675.125 749.402 607.736 653.133 558.26 601.614C508.783 550.095 479.261 546.245 458.276 546.507C425.396 546.918 409.986 560.383 404.151 568.795C401.648 572.404 402.167 575.923 408.585 583.994C415.003 592.065 427.839 604.901 447.929 618.252C468.019 631.603 494.975 645.081 524.585 651.382C554.195 657.683 585.643 656.4 628.157 646.433C670.671 636.465 723.298 617.853 759.715 594.467C796.132 571.08 814.744 543.483 819.519 516.43C824.293 489.378 814.666 463.706 798.476 443.1C782.285 422.495 759.822 407.734 738.303 398.525C716.783 389.316 696.887 386.107 673.802 386.379C650.717 386.652 625.045 390.502 602.514 401.471C579.983 412.44 561.371 430.41 547.612 451.862C533.852 473.313 525.509 497.702 523.457 536.579C521.405 575.456 525.898 628.083 536.876 675.411C547.855 722.738 565.183 763.171 589.834 781.433C614.485 799.695 645.933 794.561 711.551 745.386C777.17 696.211 876.006 603.15 933.019 544.3C990.032 485.449 1002.23 463.628 1007.87 450.462C1013.51 437.295 1012.22 433.444 999.046 426.647C985.87 419.85 960.84 410.223 932.864 406.226C904.887 402.23 874.723 404.155 830.303 419.266C785.883 434.378 728.121 462.617 670.768 502.194C613.415 541.771 558.221 591.831 533.317 617.941C508.414 644.05 515.473 644.692 541.573 639.888C567.673 635.085 612.598 624.816 663.981 598.667C715.363 572.519 771.841 530.803 825.003 482.999C878.165 435.195 926.3 382.567 954.305 346.15C982.311 309.733 988.729 291.121 988.184 280.892C987.64 270.662 979.938 269.378 955.112 277.06C930.287 284.742 888.57 301.429 837.878 326.712C787.186 351.995 728.783 385.368 648.957 446.523C569.131 507.679 469.653 595.604 414.556 645.713C359.459 695.822 351.757 705.449 351.32 708.803C350.882 712.158 357.942 708.949 438.594 655.311C519.246 601.672 673.277 497.702 754.873 439.648C836.468 381.595 840.961 372.61 835.894 370.227C830.828 367.845 816.067 372.338 708.342 426.316C600.618 480.295 400.378 583.624 287.597 640.063C174.817 696.502 155.563 702.92 162.652 684.405C169.741 665.891 203.756 622.249 258.824 560.617C313.892 498.985 388.981 420.686 429.91 379.067C470.839 337.447 475.332 334.88 457.43 343.826C439.528 352.773 399.095 373.31 343.609 406.353C288.122 439.395 218.809 484.321 178.609 512.599C138.409 540.877 129.424 551.146 126.4 556.115C123.376 561.084 126.585 560.442 144.604 547.596C162.622 534.751 195.354 509.721 236.925 470.834C278.496 431.947 327.914 379.961 374.23 335.211C420.546 290.46 462.263 254.52 482.149 236.005C502.035 217.49 498.826 217.49 474.068 225.192C449.31 232.893 403.101 248.296 344.96 277.089C286.819 305.883 218.147 347.599 156.136 392.836C94.1254 438.073 40.8565 485.566 15.3403 509.39C-10.1759 533.214 -6.32516 531.931 65.6142 479.284C137.554 426.637 277.465 322.667 355.637 263.33C433.81 203.993 446.004 192.441 450.681 186.489C455.359 180.538 452.15 180.538 394.981 205.247C337.813 229.956 226.782 279.375 168.301 305.795C109.82 332.216 107.253 334.141 180.379 286.357C253.504 238.572 402.401 141.019 477.501 90.7648C552.6 40.5103 549.391 40.5103 530.731 45.9656C512.07 51.4208 478.055 62.3313 437.748 80.7878C397.442 99.2442 351.874 124.916 307.863 153.544C263.851 182.172 222.776 212.978 221.512 219.542C220.248 226.106 260.039 207.494 349.531 154.264C439.022 101.033 577.008 13.7494 578.136 39.3823C579.264 65.0152 439.353 206.21 364.71 285.365C290.067 364.519 284.933 377.355 332.027 358.938C379.121 340.52 478.599 290.46 535.301 260.5C592.003 230.54 602.913 222.197 563.608 248.705C524.303 275.213 434.452 336.825 386.881 369.206C339.31 401.588 336.743 402.871 340.234 401.286C343.725 399.701 353.352 395.209 402.916 363.372C452.48 331.535 541.69 272.49 606.9 224.102C672.11 175.715 710.618 139.775 734.627 119.013C758.636 98.2524 766.979 93.7598 683.672 161.722C600.365 229.684 425.155 370.237 366.344 425.957C307.532 481.676 370.428 448.303 458.023 388.11C545.618 327.918 656.007 241.917 639.709 263.719C623.412 285.52 477.082 417.73 399.775 488.405C322.468 559.08 318.617 564.215 367.977 540.225C417.337 516.236 520.024 462.967 593.461 421.085C666.898 379.203 707.973 350.322 738.76 330.31C769.546 310.297 788.8 300.029 737.107 370.471C685.413 440.912 562.188 592.376 505.127 666.873C448.066 741.37 460.901 734.31 485.805 713.024C510.709 691.737 547.291 656.439 579.614 618.359C611.937 580.279 638.892 540.488 662.085 486.616C685.277 432.744 703.889 365.997 712.835 324.232C721.781 282.467 720.498 267.706 713.739 255.93C706.981 244.154 694.787 235.81 679.52 234.4C664.253 232.99 646.283 238.767 621.622 252.974C596.962 267.181 566.156 289.643 537.771 331.379C509.386 373.116 484.356 433.444 470.499 481.851C456.642 530.258 454.717 564.915 456.292 599.455C457.867 633.995 463.002 667.369 474.311 693.867C485.62 720.365 502.949 738.977 525.995 740.864C549.041 742.75 577.28 727.347 609.156 707.539C641.032 687.731 675.689 663.985 700.602 640.199C725.515 616.414 739.635 593.309 747.55 567.609C755.466 541.908 756.749 514.31 742.328 477.31C727.907 440.309 697.743 394.742 670.331 367.738C642.918 340.734 619.172 333.674 583.513 334.209C547.855 334.744 501.004 343.087 449.592 362.788C398.181 382.49 343.628 413.296 306.54 439.434C269.452 465.573 251.482 486.11 242.545 511.451C233.609 536.793 234.251 566.315 241.641 595.001C249.031 623.688 263.151 650.643 289.678 678.97C316.206 707.296 354.714 736.177 392.2 745.279C429.687 754.381 464.986 742.828 515.901 719.228C566.817 695.627 632.28 660.328 684.936 624.495C737.593 588.661 775.459 553.363 797.212 527.156C818.964 500.949 823.457 484.905 812.294 466.049C801.13 447.194 774.175 426.015 738.147 413.5C702.119 400.985 657.835 397.776 595.873 416.66C533.91 435.545 455.611 476.62 387.358 524.414C319.104 572.208 263.268 625.477 226.16 667.359C189.053 709.241 172.366 738.122 166.337 764.873C160.308 791.624 165.442 815.37 185.737 838.835C206.031 862.299 241.33 884.762 293.208 894.408C345.087 904.055 412.475 900.204 497.25 853.936C582.026 807.669 682.146 719.101 761.641 633.042C841.136 546.984 896.972 466.117 919.318 424.138C941.664 382.159 928.828 381.517 886.596 386.642C844.364 391.766 773.125 402.677 679.948 430.119C586.771 457.56 473.815 501.202 379.043 548.073C284.272 594.943 211.107 643.72 152.558 698.048C94.0087 752.377 52.2921 810.781 29.5181 846.322C6.74412 881.864 4.17694 892.775 20.5038 898.395C36.8307 904.016 72.1294 904.016 184.657 850.426C297.185 796.836 485.873 689.656 604.897 612.301C723.921 534.945 767.563 490.661 793.254 460.147C818.945 429.632 825.363 414.229 819.042 402.444C812.722 390.658 793.468 382.956 763.653 378.989C733.839 375.021 694.048 375.021 625.094 387.216C556.14 399.41 459.229 423.798 374.327 452.085C289.426 480.373 219.47 511.821 169.313 539.895C119.155 567.968 90.9165 591.715 75.7273 605.231C60.5382 618.748 59.2546 621.315 63.4068 623.6C67.559 625.885 77.1859 627.811 98.511 625.273C119.836 622.735 152.568 615.675 213.713 582.837C274.859 549.998 363.426 491.595 462.321 409.844C561.216 328.093 667.754 224.764 724.241 166.399C780.729 108.035 783.938 97.7662 775.964 87.9837C767.99 78.2012 748.737 69.216 723.736 63.9455C698.735 58.675 668.571 57.3915 614.203 70.8497C559.835 84.3079 482.178 112.547 416.822 147.632C351.466 182.716 300.764 223.791 260.846 264.847C220.929 305.902 193.331 345.693 177.189 370.685C161.047 395.676 157.196 404.661 158.101 411.536C159.005 418.411 164.781 422.903 185.406 426.501C206.031 430.099 241.33 432.666 289.357 427.571C337.385 422.475 397.072 409.639 464.723 385.699C532.374 361.758 606.18 327.101 660.568 294.486C714.955 261.871 747.686 232.349 769.362 208.476C791.037 184.603 800.664 167.274 800.489 153.213C800.314 139.152 790.045 128.883 760.367 126.803C730.689 124.722 681.912 131.139 611.859 149.849C541.806 168.558 451.955 199.364 371.011 236.413C290.067 273.462 220.753 315.821 177.666 347.59C134.578 379.358 119.817 399.254 117.989 423.302C116.16 447.35 127.713 474.947 148.746 495.582C169.779 516.216 199.944 529.052 252.707 518.657C305.47 508.262 379.919 474.247 446.831 433.298C513.743 392.35 570.862 345.499 609.273 308.207C647.683 270.915 665.653 244.601 674.269 226.874C682.885 209.147 681.601 200.803 665.537 189.125C649.472 177.446 618.666 162.685 581.296 148.983C543.926 135.282 500.926 123.088 464.976 118.411C429.026 113.733 401.428 116.942 378.868 133.036C356.308 149.129 339.622 178.01 330.384 207.97C321.146 237.93 319.862 268.095 323.052 300.962C326.241 333.83 333.943 368.487 344.007 397.572C354.072 426.657 366.266 449.12 379.286 461.333C392.307 473.547 405.785 474.83 422.997 456.879C440.208 438.929 460.746 401.705 475.818 361.349C490.891 320.994 499.876 278.636 504.825 236.277C509.775 193.919 510.417 152.844 508.501 123.02C506.585 93.1958 502.093 75.8674 495.607 57.3137C489.121 38.76 480.778 19.5061 474.233 7.34119C467.689 -4.82374 463.196 -9.31631 457.031 88.4893C450.866 186.295 443.165 386.535 441.443 496.107C439.722 605.679 444.215 618.515 448.775 625.127C453.336 631.739 457.829 631.739 463.352 629.172C468.875 626.605 475.293 621.471 480.846 605.99C486.398 590.509 490.891 564.837 492.242 529.791C493.594 494.745 491.669 451.103 485.542 393.643C479.416 336.183 469.147 266.228 458.081 209.973C447.015 153.719 435.463 113.286 427.586 89.5687C419.71 65.8515 415.859 60.0753 412.271 57.7415C408.683 55.4077 405.474 56.6913 401.574 69.2258C397.675 81.7602 393.182 105.507 390.868 185.128C388.554 264.749 388.554 399.526 390.8 488.532C393.046 577.537 397.539 616.686 402.42 638.459C407.302 660.231 412.436 663.44 419.895 662.526C427.353 661.612 436.98 656.478 448.036 640.676C459.093 624.874 471.287 598.561 481.098 563.505C490.91 528.449 497.97 485.449 499.04 429.603C500.109 373.757 494.975 306.369 480.778 252.079C466.58 197.789 443.476 158.639 417.454 140.397C391.432 122.154 363.193 126.005 331.638 140.504C300.083 155.003 266.068 180.033 240.202 202.875C214.336 225.717 197.649 245.612 185.202 274.474C172.755 303.335 165.053 340.559 169.108 375.138C173.163 409.717 189.208 440.523 219.616 453.826C250.023 467.129 294.307 461.994 359.157 438.17C424.008 414.346 508.083 371.988 575.462 324.495C642.84 277.002 690.975 225.658 718.66 191.507C746.344 157.356 752.121 141.953 751.887 129.525C751.654 117.098 745.236 108.113 719.146 108.939C693.056 109.766 647.489 120.676 573.313 148.439C499.137 176.201 397.733 220.485 313.726 264.156C229.719 307.828 166.181 349.544 120.935 381.303C75.6884 413.062 50.6584 433.6 40.3314 447.71C30.0043 461.819 35.1387 468.879 62.4927 468.665C89.8468 468.451 139.265 460.75 228.261 424.693C317.256 388.635 444.331 324.456 540.601 271.177C636.87 217.898 698.482 177.465 739.849 152.465C781.215 127.464 800.469 119.12 803.007 116.427C805.545 113.733 790.784 116.942 701.351 164.805C611.918 212.667 448.26 305.085 322.235 389.598C196.21 474.111 112.776 547.917 67.8702 588.506C22.964 629.094 19.1133 634.229 29.9654 635.269C40.8176 636.31 66.4894 633.101 166.357 600.641C266.224 568.182 439.508 506.57 531.985 475.472C624.462 444.374 630.88 445.658 634.186 456.909C637.492 468.16 637.492 489.339 623.052 531.697C608.611 574.056 579.731 636.952 549.975 701.753" stroke="white" stroke-linecap="round"/>
</svg>
