<svg width="25" height="20" viewBox="0 0 25 20" fill="none" xmlns="http://www.w3.org/2000/svg">
<mask id="mask0_127_902" style="mask-type:alpha" maskUnits="userSpaceOnUse" x="0" y="0" width="25" height="20">
<rect width="25" height="20" fill="#D9D9D9"/>
</mask>
<g mask="url(#mask0_127_902)">
<path d="M10.3295 0.975709C10.3644 0.931229 10.4274 0.858418 10.5235 0.797812C10.6267 0.732783 10.8177 0.654038 11.052 0.709147C11.2688 0.7601 11.3879 0.895365 11.4381 0.965301C11.4913 1.03931 11.5199 1.11183 11.5353 1.15655C11.5894 1.3133 11.6116 1.53727 11.6279 1.69201C11.7056 2.43356 11.7955 3.62013 11.793 5.55005C11.7905 7.4927 11.6946 10.0696 11.8636 12.1576C11.9335 13.0206 12.0493 13.7779 12.174 14.3987C12.4336 13.6475 12.7822 12.689 13.2412 11.583C14.046 9.64302 15.5956 6.87693 16.4091 5.42149C16.8137 4.69756 17.0805 4.2627 17.2722 4.03014C17.323 3.96854 17.3824 3.90385 17.4509 3.84736C17.5141 3.79527 17.6259 3.71576 17.7837 3.67994C17.9729 3.637 18.1627 3.67142 18.3148 3.76325C18.4399 3.83875 18.5102 3.9354 18.5409 3.98099C19.0161 4.68563 19.3439 5.82632 19.6012 6.98958C19.8036 7.90469 19.9747 8.89935 20.1327 9.80893C20.1607 9.74569 20.1902 9.67939 20.2198 9.60963C20.5176 8.90887 20.8726 7.92629 21.2908 6.6754L21.2939 6.6662L21.2975 6.65696C21.7849 5.36067 22.379 4.07189 23.1053 2.63086C23.2467 2.35029 23.6075 2.22869 23.9112 2.35935C24.2148 2.49003 24.3463 2.82349 24.205 3.10406C23.4893 4.52404 22.914 5.77344 22.4456 7.01854C22.0271 8.26978 21.6629 9.28078 21.349 10.0194C21.1918 10.3892 21.0421 10.7032 20.8994 10.9495C20.7687 11.1749 20.6034 11.4172 20.389 11.5675L20.2915 11.6356L20.1733 11.6639C20.0199 11.7002 19.8455 11.6988 19.6747 11.6344C19.51 11.5722 19.394 11.4688 19.3161 11.3708C19.1719 11.1893 19.1072 10.9632 19.0725 10.7691C18.8711 9.64557 18.6687 8.37117 18.4128 7.21407C18.2453 6.45691 18.0629 5.79396 17.8627 5.28099C17.7598 5.4539 17.6359 5.66913 17.4869 5.93579C16.6622 7.41115 15.1492 10.1152 14.3736 11.9843C13.7851 13.4028 13.382 14.5737 13.115 15.3715C12.9835 15.7643 12.8794 16.0841 12.8049 16.2879C12.7706 16.3819 12.7291 16.4895 12.6832 16.5718C12.6704 16.5949 12.6502 16.6287 12.6222 16.6649C12.6011 16.6923 12.5414 16.7671 12.4367 16.8274C12.309 16.901 12.0683 16.9708 11.8179 16.8465C11.6284 16.7524 11.5562 16.601 11.537 16.5587L11.4864 16.44C11.2236 15.7878 10.8172 14.2582 10.654 12.2412C10.4804 10.0967 10.5776 7.43101 10.58 5.54881C10.5809 4.83273 10.5689 4.22298 10.5496 3.70353C9.68852 6.33291 8.11214 11.5142 7.12968 13.6331C6.87524 14.1819 6.63646 14.5796 6.39898 14.8392C6.18246 15.076 5.80465 15.3633 5.32021 15.233C5.10658 15.1755 4.95767 15.0524 4.86217 14.9459C4.76622 14.8388 4.69817 14.7203 4.64927 14.6163C4.55171 14.4089 4.49304 14.1785 4.45808 13.9994C4.3128 13.255 4.03626 12.2611 3.62993 10.7666C3.24116 11.7553 2.75245 13.3162 2.5068 14.5399C1.97999 17.1642 1.89974 18.3271 1.94019 18.7157C1.97222 19.0237 1.72795 19.2974 1.39456 19.3271C1.06116 19.3568 0.764937 19.131 0.732858 18.8229C0.673563 18.2533 0.791682 16.9385 1.31421 14.3355C1.64544 12.6854 2.40347 10.4102 2.8571 9.55692C2.91909 9.44031 2.98597 9.33208 3.06054 9.23961C3.13039 9.15301 3.23608 9.04337 3.38787 8.96962C3.56474 8.8837 3.78745 8.857 4.00519 8.93994C4.19047 9.01052 4.302 9.13469 4.36055 9.21284C4.47527 9.36601 4.54243 9.55747 4.58373 9.68749C4.62901 9.83006 4.67059 9.99344 4.70286 10.1126C5.1577 11.7916 5.48501 12.9461 5.65174 13.8005C5.65529 13.8187 5.65945 13.8366 5.66335 13.8545C5.76137 13.6989 5.8792 13.4839 6.01477 13.1915C6.98559 11.0977 8.57644 5.83978 9.4486 3.19577C9.66419 2.54226 9.83249 2.06048 9.9651 1.71789C10.0871 1.40272 10.2037 1.13586 10.3295 0.975709Z" fill="#1111FF"/>
<path d="M10.1585 0.297777C10.3554 0.173711 10.7395 0.0102735 11.2174 0.122629C11.6569 0.225938 11.8936 0.49953 11.9876 0.63048L12.0059 0.656662C12.0827 0.769492 12.1274 0.874661 12.1527 0.943222L12.1631 0.972166C12.2332 1.17524 12.2625 1.42983 12.2779 1.57728L12.2837 1.63348C12.3635 2.39541 12.4544 3.60198 12.4519 5.55081C12.4495 7.39977 12.366 9.73334 12.4918 11.7117C12.5378 11.5982 12.5851 11.4831 12.6335 11.3663C13.4543 9.38808 15.0235 6.5885 15.8311 5.14376C16.2307 4.42872 16.5227 3.94532 16.755 3.66345C16.8194 3.58541 16.9074 3.48755 17.0189 3.39564C17.1197 3.3126 17.326 3.16149 17.6314 3.09217C17.9908 3.01063 18.3542 3.07185 18.6486 3.23991L18.6769 3.2565C18.9042 3.39376 19.0337 3.56375 19.0903 3.64567L19.1007 3.66083C19.6461 4.46964 19.9912 5.71274 20.2468 6.86841C20.2858 7.04443 20.3235 7.22326 20.3602 7.40365C20.4586 7.12042 20.5614 6.81849 20.6686 6.49786L20.6716 6.48866L20.6767 6.47332L20.6827 6.45822L20.6848 6.45295C21.1817 5.13199 21.785 3.82452 22.5155 2.37534L22.5296 2.34825C22.8281 1.79301 23.5465 1.55087 24.1619 1.79832L24.1916 1.81069C24.8232 2.0825 25.0966 2.776 24.8027 3.35949C24.0938 4.76594 23.5294 5.99266 23.0715 7.20831C22.6535 8.4577 22.2847 9.48246 21.9625 10.2406C21.801 10.6207 21.6406 10.9592 21.4807 11.2352C21.3449 11.4695 21.1243 11.8146 20.7887 12.0498L20.5862 12.1913L20.3413 12.2498L20.34 12.2502C20.0672 12.3148 19.7474 12.3141 19.4311 12.1948C19.1274 12.0802 18.9219 11.8924 18.7921 11.7291C18.5563 11.4323 18.4705 11.0932 18.4302 10.8679C18.2259 9.72845 18.0276 8.47755 17.775 7.33529C17.7434 7.19237 17.7114 7.05365 17.679 6.91947C16.8292 8.44782 15.6399 10.6325 14.9891 12.201C14.408 13.6017 14.0097 14.7584 13.7446 15.5503C13.6163 15.9335 13.5074 16.268 13.4293 16.4816C13.3958 16.5736 13.3406 16.7214 13.2693 16.8491C13.2483 16.8869 13.2122 16.9479 13.1598 17.0157V17.0157L13.1587 17.0172C13.1175 17.0706 12.9981 17.2195 12.7871 17.341C12.5327 17.4876 12.0347 17.6393 11.5118 17.3797L11.4937 17.3705C11.1165 17.176 10.9734 16.8733 10.9367 16.7924L10.9341 16.7866L10.8787 16.6566L10.8765 16.6512C10.5869 15.9325 10.1713 14.3443 10.0048 12.2864C9.89279 10.9026 9.89168 9.3009 9.90627 7.84232C9.17279 10.1043 8.36228 12.5029 7.75921 13.8203L7.73563 13.8715C7.47309 14.4377 7.20384 14.9012 6.90312 15.23C6.65289 15.5036 6.02494 16.052 5.14097 15.8141C4.76116 15.7119 4.50913 15.4965 4.36172 15.3321C4.21328 15.1665 4.11606 14.9927 4.05251 14.8576C3.92608 14.5889 3.85642 14.3068 3.81741 14.1069C3.75703 13.7975 3.67282 13.4421 3.56378 13.0173C3.40136 13.577 3.25619 14.1447 3.1547 14.6503C2.89315 15.9532 2.74416 16.885 2.66558 17.5335C2.59043 18.1537 2.58339 18.4869 2.59376 18.6313L2.59607 18.6577C2.6627 19.2985 2.15456 19.868 1.46116 19.9296C0.767469 19.9913 0.151503 19.5215 0.0848059 18.8809C0.0153483 18.2137 0.153833 16.8169 0.67412 14.2251L0.690247 14.1459C1.0355 12.4721 1.79129 10.1964 2.27316 9.29006L2.28686 9.26452C2.35628 9.13637 2.43899 9.00233 2.53925 8.878C2.63662 8.75728 2.81218 8.56746 3.08697 8.43394C3.41286 8.27563 3.83895 8.2205 4.2587 8.38039C4.58793 8.50581 4.78479 8.7164 4.88434 8.84398L4.90295 8.86834C5.08288 9.10856 5.17368 9.38351 5.2161 9.51707C5.2663 9.67513 5.31332 9.85927 5.34213 9.96563L5.50556 10.567C5.63696 11.0494 5.75659 11.4874 5.86297 11.8863C6.80734 9.45451 8.06752 5.31872 8.826 3.01932L8.90512 2.78085C9.08491 2.24211 9.2316 1.82589 9.35229 1.51408C9.46901 1.2126 9.61342 0.861965 9.80337 0.620165C9.85843 0.550063 9.97346 0.414434 10.1585 0.297777ZM11.056 0.709175C10.8216 0.654068 10.6307 0.732813 10.5275 0.797841C10.4313 0.858447 10.3683 0.93127 10.3334 0.97575L10.3216 0.991068C10.2003 1.15262 10.0872 1.41261 9.96901 1.71794C9.8364 2.06052 9.6681 2.5423 9.45252 3.1958C8.58036 5.83981 6.9895 11.0978 6.01868 13.1916C5.88311 13.484 5.76527 13.699 5.66725 13.8545C5.66335 13.8366 5.6592 13.8187 5.65566 13.8005C5.50977 13.0529 5.24094 12.0755 4.87131 10.7181L4.70678 10.1126C4.67854 10.0084 4.64316 9.87024 4.60442 9.74183L4.58765 9.68752C4.54636 9.5575 4.47917 9.36604 4.36445 9.21287C4.3059 9.13472 4.19436 9.01055 4.00909 8.93997C3.79135 8.85703 3.56865 8.88374 3.39178 8.96965C3.23999 9.04341 3.13429 9.15304 3.06443 9.23965C2.98988 9.33211 2.923 9.44034 2.861 9.55695C2.40738 10.4102 1.64934 12.6854 1.31811 14.3355L1.27032 14.5758C0.788391 17.0199 0.679319 18.2711 0.736759 18.8229C0.768838 19.131 1.06507 19.3568 1.39848 19.3271C1.72665 19.2979 1.96847 19.0322 1.94539 18.7301L1.94409 18.7157C1.9049 18.3393 1.979 17.2362 2.46261 14.7817L2.51071 14.5399C2.75636 13.3163 3.24506 11.7553 3.63383 10.7666C4.04016 12.2612 4.3167 13.255 4.46198 13.9994C4.49693 14.1786 4.55564 14.4089 4.6532 14.6163C4.70209 14.7203 4.77012 14.8389 4.86607 14.9459C4.96157 15.0524 5.11049 15.1755 5.32412 15.233C5.80856 15.3634 6.18636 15.076 6.40289 14.8393C6.63294 14.5878 6.86422 14.2066 7.10977 13.6841L7.1336 13.6331C8.11606 11.5142 9.69243 6.33296 10.5535 3.70358C10.5728 4.22301 10.5848 4.83276 10.5839 5.54883C10.5815 7.43103 10.4843 10.0967 10.6579 12.2413C10.8211 14.2583 11.2275 15.7878 11.4903 16.44L11.5409 16.5587C11.5601 16.601 11.6323 16.7524 11.8218 16.8465C12.0722 16.9709 12.3129 16.901 12.4406 16.8274C12.5453 16.7671 12.605 16.6923 12.6261 16.6649C12.6541 16.6288 12.6743 16.5949 12.6871 16.5718C12.733 16.4895 12.7745 16.3819 12.8088 16.2879C12.8647 16.1351 12.9372 15.917 13.0254 15.6518L13.1189 15.3715C13.3859 14.5738 13.789 13.4029 14.3775 11.9843C15.1531 10.1152 16.6662 7.41118 17.4908 5.93582C17.6399 5.66917 17.7638 5.45393 17.8666 5.28103C18.0668 5.794 18.2493 6.45695 18.4167 7.21411C18.6726 8.37121 18.875 9.64562 19.0764 10.7691C19.1111 10.9633 19.1758 11.1893 19.32 11.3708C19.3979 11.4688 19.5139 11.5723 19.6786 11.6344C19.8441 11.6968 20.0129 11.7001 20.1628 11.6672L20.1772 11.6639L20.2954 11.6356L20.3929 11.5675C20.5939 11.4266 20.7517 11.2049 20.8784 10.9919L20.9033 10.9495C21.046 10.7032 21.1957 10.3893 21.3528 10.0194C21.6668 9.28082 22.031 8.26981 22.4495 7.01857C22.9033 5.81238 23.4574 4.60216 24.1423 3.23673L24.2089 3.10409C24.3503 2.82352 24.2187 2.49008 23.9151 2.3594C23.6114 2.22874 23.2506 2.35032 23.1092 2.63088C22.3829 4.07191 21.7888 5.36071 21.3014 6.65699L21.2978 6.66623L21.2947 6.67544C20.8765 7.92632 20.5215 8.9089 20.2237 9.60966C20.1941 9.67942 20.1646 9.74572 20.1366 9.80896C19.9836 8.92781 19.8182 7.9668 19.624 7.07562L19.6051 6.98962C19.3478 5.82636 19.0201 4.68566 18.5449 3.98102C18.5141 3.93543 18.4438 3.83879 18.3187 3.76328C18.1666 3.67146 17.9768 3.63703 17.7876 3.67996C17.6298 3.71578 17.518 3.79531 17.4548 3.8474C17.3863 3.90388 17.3269 3.96857 17.2761 4.03017C17.0844 4.26273 16.8176 4.6976 16.413 5.42153L16.2522 5.70925C15.4087 7.21949 13.9996 9.7643 13.2451 11.583C12.7861 12.6891 12.4375 13.6475 12.1779 14.3988C12.0532 13.7779 11.9374 13.0206 11.8675 12.1577C11.7038 10.1349 11.7887 7.65331 11.7964 5.73402L11.7969 5.55009C11.7992 3.74079 11.7203 2.58482 11.6465 1.83638L11.6318 1.69205C11.6161 1.54215 11.5947 1.32726 11.5442 1.17147L11.5392 1.15659C11.5247 1.11466 11.4987 1.04829 11.4517 0.979182L11.442 0.965325C11.3933 0.897574 11.2801 0.768517 11.076 0.714194L11.056 0.709175Z" fill="#1111FF"/>
</g>
</svg>
