<svg width="25" height="20" viewBox="0 0 25 20" fill="none" xmlns="http://www.w3.org/2000/svg">
<path d="M10.6239 0.275033C10.6613 0.22927 10.7283 0.15469 10.8274 0.0951023C10.9338 0.0311693 11.1281 -0.0424867 11.3572 0.0300383C11.5691 0.0970983 11.6789 0.249109 11.7244 0.327056C11.7726 0.409542 11.7965 0.489033 11.8091 0.537924C11.8531 0.709297 11.8613 0.951027 11.8679 1.11809C11.8992 1.91865 11.9152 3.1977 11.7937 5.26955C11.6714 7.35507 11.4173 10.1162 11.4561 12.3676C11.4722 13.2981 11.5404 14.1177 11.6258 14.7914C11.9297 13.9996 12.3347 12.9905 12.8583 11.8292C13.7765 9.79227 15.4845 6.91088 16.3814 5.39468C16.8275 4.64052 17.119 4.18886 17.3235 3.9501C17.3777 3.88686 17.4406 3.8208 17.5121 3.76406C17.578 3.71174 17.6938 3.63274 17.8526 3.60328C18.043 3.56797 18.2291 3.61574 18.3744 3.723C18.4938 3.81119 18.5576 3.91896 18.5853 3.96966C19.0133 4.75327 19.2681 5.99661 19.4516 7.26017C19.596 8.25419 19.7044 9.33183 19.805 10.3174C19.8367 10.2511 19.87 10.1816 19.9037 10.1084C20.2424 9.373 20.6552 8.33832 21.1473 7.01919L21.1509 7.00948L21.1551 6.99977C21.7186 5.63584 22.3875 4.28605 23.197 2.78034C23.3546 2.48718 23.7201 2.3772 24.0133 2.53479C24.3065 2.6924 24.4164 3.0579 24.2589 3.35107C23.4612 4.83478 22.8134 6.14337 22.2718 7.45342C21.7794 8.77291 21.3557 9.83757 20.9987 10.6127C20.82 11.0008 20.6521 11.3293 20.4953 11.5856C20.3517 11.8202 20.1728 12.0709 19.9508 12.22L19.8499 12.2876L19.7309 12.3112C19.5764 12.3415 19.4035 12.33 19.238 12.2511C19.0784 12.175 18.9697 12.0573 18.8985 11.9477C18.7666 11.7446 18.7164 11.4982 18.6939 11.2878C18.5634 10.0701 18.4412 8.69031 18.2587 7.43344C18.1393 6.611 17.9992 5.88885 17.8322 5.3267C17.7195 5.50647 17.5833 5.73049 17.419 6.00828C16.5098 7.54524 14.8419 10.3621 13.9571 12.3246C13.2857 13.814 12.8135 15.0481 12.4994 15.8894C12.3447 16.3036 12.2217 16.641 12.1352 16.8556C12.0954 16.9545 12.0476 17.0677 11.997 17.1534C11.9828 17.1775 11.9607 17.2127 11.9307 17.2499C11.9081 17.2781 11.8442 17.355 11.7366 17.4138C11.6054 17.4855 11.3623 17.5468 11.1215 17.399C10.9393 17.2872 10.877 17.1205 10.8606 17.074L10.8177 16.9437C10.5972 16.2285 10.2884 14.5632 10.2509 12.3884C10.211 10.0761 10.4718 7.21969 10.5903 5.19907C10.6354 4.43033 10.6611 3.775 10.674 3.21622C9.65751 5.99007 7.77391 11.4629 6.66847 13.6818C6.38218 14.2565 6.12074 14.6699 5.86912 14.9351C5.6397 15.1769 5.24714 15.4639 4.77455 15.2963C4.56615 15.2224 4.42601 15.0818 4.33783 14.962C4.24924 14.8416 4.18904 14.7104 4.14694 14.596C4.06294 14.3678 4.01894 14.1171 3.99531 13.9228C3.8971 13.1153 3.68404 12.0325 3.37311 10.4048C2.92641 11.4441 2.34525 13.0921 2.02605 14.3918C1.3415 17.1793 1.19014 18.4232 1.2063 18.8427C1.21908 19.1752 0.959839 19.4552 0.627249 19.468C0.294639 19.4809 0.0146785 19.2216 0.00185851 18.889C-0.0218315 18.2741 0.176469 16.8692 0.855459 14.1044C1.28588 12.3517 2.1783 9.95217 2.68099 9.06198C2.74969 8.94032 2.82272 8.82793 2.9024 8.73291C2.97705 8.64391 3.08867 8.53223 3.24381 8.4617C3.42459 8.37954 3.64719 8.36357 3.8581 8.46503C4.03757 8.55137 4.14056 8.69104 4.19383 8.77828C4.2982 8.94926 4.35302 9.15864 4.38597 9.30059C4.4221 9.45624 4.45327 9.63401 4.47794 9.76377C4.82562 11.5923 5.07913 12.8505 5.19184 13.7773C5.19424 13.797 5.19726 13.8165 5.20003 13.8359C5.30687 13.6745 5.43704 13.4504 5.58958 13.1442C6.68192 10.9516 8.58461 5.39724 9.61301 2.60831C9.86721 1.91898 10.0639 1.41133 10.2166 1.05108C10.3571 0.719657 10.4892 0.439803 10.6239 0.275033Z" fill="#1111FF"/>
</svg>
