<svg width="30" height="30" viewBox="0 0 30 30" fill="none" xmlns="http://www.w3.org/2000/svg">
<path d="M0 15C0 23.2843 6.71573 30 15 30C23.2843 30 30 23.2843 30 15C30 6.71573 23.2843 0 15 0C6.71573 0 0 6.71573 0 15ZM16.8008 22.3291C16.663 21.9413 16.8659 21.5115 17.2578 21.373C18.1784 21.0478 19.044 20.5157 19.7813 19.7783C22.4048 17.1537 22.4174 12.9127 19.8232 10.2715L19.4697 9.91211L19.1123 10.2686L17.5068 11.875C17.3816 11.9999 17.1942 12.0373 17.0273 11.9687C16.8663 11.9024 16.7598 11.7428 16.7598 11.5635L16.7598 6.5625C16.7599 6.31898 16.9541 6.125 17.1973 6.125H22.1973C22.3763 6.12523 22.5353 6.2324 22.6016 6.39355C22.6702 6.56073 22.632 6.74782 22.5068 6.87305L20.8818 8.49902L20.5313 8.85059L20.8799 9.2041C24.0654 12.4273 24.0545 17.6253 20.8428 20.8379C19.9399 21.7409 18.8832 22.3885 17.7568 22.7861L17.7559 22.7871C17.3702 22.9242 16.9398 22.7197 16.8008 22.3291ZM9.13867 20.8008C5.95304 17.5776 5.96396 12.3796 9.17578 9.16699C10.0746 8.26801 11.1306 7.61941 12.2607 7.22168H12.2627C12.6484 7.08461 13.0789 7.28889 13.2178 7.67969C13.3555 8.06743 13.1525 8.49622 12.7607 8.63477C12.1757 8.84147 11.6134 9.13247 11.0918 9.50586V9.37207L10.2373 10.2256C7.61352 12.8501 7.60122 17.0911 10.1953 19.7324L10.5488 20.0928L12.5117 18.1299C12.637 18.0048 12.8242 17.9665 12.9912 18.0352C13.1523 18.1015 13.2597 18.2611 13.2598 18.4404L13.2598 23.4414C13.2598 23.6848 13.0653 23.8796 12.8223 23.8799H7.82227C7.64311 23.8799 7.48335 23.7725 7.41699 23.6113C7.34824 23.4441 7.38647 23.2561 7.51172 23.1309L9.13672 21.5059L9.4873 21.1543L9.13867 20.8008Z" fill="#1ABCFF"/>
</svg>
