<svg width="30" height="30" viewBox="0 0 30 30" fill="none" xmlns="http://www.w3.org/2000/svg">
<g clip-path="url(#clip0_128_1079)">
</g>
<rect x="0.5" y="0.5" width="29" height="29" rx="14.5" stroke="#007AFF" stroke-opacity="0.22"/>
<path d="M16.4902 12.0889C16.4902 12.2408 16.5805 12.3763 16.7168 12.4326C16.8582 12.4908 17.0169 12.4583 17.123 12.3525L18.4844 10.9912L18.7871 10.6895L19.0859 10.9941C21.2841 13.2322 21.2739 16.8259 19.0508 19.0498C18.4261 19.6747 17.6922 20.1258 16.9121 20.4014C16.5804 20.5189 16.4087 20.8825 16.5254 21.2109C16.6432 21.5419 17.0082 21.7157 17.335 21.5996V21.5986C18.2894 21.2617 19.1851 20.7125 19.9502 19.9473C22.6716 17.2251 22.6807 12.821 19.9814 10.0898L19.6865 9.79004L19.9834 9.49219L21.3604 8.11426C21.4663 8.00814 21.4986 7.84962 21.4404 7.70801C21.3842 7.57153 21.2493 7.48062 21.0977 7.48047L16.8613 7.48047C16.6553 7.48047 16.4903 7.64522 16.4902 7.85156V12.0889ZM10.0645 10.0586C7.343 12.7808 7.3339 17.1849 10.0332 19.916L10.3281 20.2158L10.0313 20.5137L8.6543 21.8906C8.54819 21.9968 8.51597 22.1561 8.57422 22.2979C8.63047 22.4342 8.76544 22.5252 8.91699 22.5254H13.1543C13.3602 22.5251 13.5244 22.3596 13.5244 22.1533V17.916C13.5244 17.764 13.4334 17.6284 13.2969 17.5723C13.1555 17.5143 12.9966 17.5474 12.8906 17.6533L11.2275 19.3164L10.9277 19.0107C8.72989 16.7726 8.7407 13.1789 10.9639 10.9551L11.6875 10.2324V10.3457C12.1294 10.0294 12.6059 9.78257 13.1016 9.60742C13.4336 9.49006 13.606 9.12644 13.4893 8.79785C13.3715 8.46676 13.0065 8.29397 12.6797 8.41016H12.6787C11.7211 8.74718 10.8261 9.29682 10.0645 10.0586Z" fill="#007AFF"/>
<defs>
<clipPath id="clip0_128_1079">
<rect width="30" height="30" rx="15" fill="white"/>
</clipPath>
</defs>
</svg>
