<svg width="81" height="41" viewBox="0 0 81 41" fill="none" xmlns="http://www.w3.org/2000/svg">
<path d="M59.7302 0.551471C59.8005 0.542179 59.9203 0.532164 60.0558 0.563124C60.2011 0.596359 60.4311 0.695952 60.5709 0.957093C60.7001 1.19853 60.6705 1.42939 60.646 1.53859C60.62 1.65414 60.5752 1.74618 60.5459 1.801C60.443 1.99313 60.251 2.21809 60.119 2.37429C59.4866 3.12283 58.4464 4.28955 56.6331 6.05363C54.8079 7.82934 52.3111 10.1016 50.4895 12.1645C49.7367 13.017 49.1206 13.8142 48.6398 14.4946C49.5571 14.0404 50.7415 13.4767 52.1545 12.877C54.6331 11.8251 58.4954 10.6866 60.5262 10.0859C61.5363 9.78711 62.1623 9.6289 62.5373 9.5884C62.6366 9.57768 62.7458 9.57185 62.8548 9.58175C62.9553 9.59088 63.1213 9.61859 63.284 9.72776C63.4789 9.8586 63.6017 10.0606 63.6398 10.2814C63.6711 10.463 63.6379 10.6146 63.6202 10.684C63.3473 11.7561 62.5446 13.0948 61.6631 14.3907C60.9696 15.4101 60.176 16.4744 59.4514 17.4487C59.5337 17.4161 59.62 17.3819 59.7096 17.3448C60.6107 16.9711 61.8229 16.3909 63.3387 15.6221L63.3498 15.6164L63.3615 15.6112C64.9764 14.863 66.6714 14.2176 68.6174 13.5517C68.9963 13.4221 69.4053 13.6352 69.5308 14.0277C69.6563 14.4202 69.4508 14.8437 69.072 14.9734C67.1544 15.6295 65.5118 16.2559 63.9604 16.9743C62.444 17.7432 61.1976 18.341 60.2478 18.7349C59.7723 18.9321 59.3554 19.0848 59.0075 19.1819C58.6892 19.2707 58.3267 19.344 58.0104 19.2886L57.8669 19.2634L57.7438 19.183C57.5842 19.0783 57.4431 18.9203 57.3639 18.7077C57.2876 18.5028 57.29 18.3038 57.3183 18.1442C57.3707 17.8484 57.5301 17.5834 57.6839 17.3744C58.5737 16.1651 59.6043 14.8168 60.4812 13.5277C61.055 12.6843 61.5281 11.9136 61.8459 11.2641C61.5996 11.3298 61.2963 11.4154 60.9242 11.5255C58.8657 12.1344 55.0914 13.249 52.7034 14.2624C50.8912 15.0315 49.4628 15.7407 48.4959 16.2308C48.0198 16.4721 47.6346 16.6712 47.3824 16.7908C47.2662 16.8459 47.1313 16.9071 47.0167 16.9412C46.9844 16.9508 46.9361 16.9636 46.8793 16.9716C46.8364 16.9776 46.7174 16.9924 46.5752 16.9535C46.4019 16.906 46.1395 16.7537 46.0516 16.4147C45.985 16.1582 46.0681 15.9547 46.0921 15.8987L46.1621 15.7447C46.5595 14.9114 47.6629 13.1462 49.4225 11.1536C51.2933 9.03483 53.8746 6.6825 55.643 4.96205C56.3158 4.3075 56.8782 3.73862 57.35 3.24588C54.1786 4.87819 48.0277 8.203 45.2361 9.25906C44.5132 9.53255 43.9448 9.68192 43.507 9.70604C43.1079 9.72802 42.5295 9.6514 42.2559 9.0966C42.1353 8.85193 42.1291 8.60542 42.151 8.42208C42.173 8.23788 42.2287 8.06817 42.2863 7.92906C42.4013 7.65152 42.5696 7.3879 42.7091 7.19255C43.289 6.38066 43.9957 5.22247 45.0664 3.48932C43.8207 4.04471 41.9564 5.03392 40.6072 5.93302C37.7137 7.86125 36.5568 8.85338 36.2252 9.24533C35.9622 9.55608 35.5057 9.58703 35.2054 9.31445C34.9051 9.04184 34.8749 8.56893 35.1379 8.25811C35.624 7.68353 36.9545 6.58637 39.8245 4.6738C41.6438 3.4614 44.3986 2.06052 45.5701 1.68746C45.7302 1.63648 45.8864 1.59754 46.0341 1.57995C46.1725 1.56349 46.3618 1.55816 46.555 1.62712C46.7802 1.7075 46.9873 1.88327 47.0874 2.15493C47.1725 2.38609 47.1471 2.6 47.1216 2.72415C47.0717 2.96748 46.9468 3.20308 46.8586 3.3592C46.7618 3.53039 46.6424 3.71729 46.5569 3.85539C45.3529 5.80089 44.5369 7.15177 43.8713 8.08358C43.8571 8.10339 43.8436 8.12359 43.83 8.14348C44.0562 8.08918 44.3542 7.9984 44.7394 7.85268C47.4978 6.80917 53.7326 3.42713 56.9268 1.79138C57.7163 1.38707 58.306 1.09743 58.7359 0.903142C59.1314 0.724395 59.4771 0.584938 59.7302 0.551471Z" fill="#1111FF" stroke="#1111FF" stroke-width="0.5" stroke-linecap="round"/>
<path d="M1.5 8.49951C5.10852 14.3144 8.26685 35.0514 10.3344 34.6708C12.4019 34.2901 12.1281 20.4146 12.4969 17.7229C12.6759 16.4159 15.3845 28.1353 17.7644 33.3049C19.7969 37.7199 21.4719 39.734 22.0722 39.686C22.4777 39.6536 22.7815 38.7408 23.4106 34.7234C24.0397 30.706 24.9066 23.3908 25.3486 19.4505C25.7906 15.5103 25.7814 15.1666 25.7822 15.1958C25.783 15.2249 25.794 15.6373 25.8375 16.0207C25.8809 16.404 25.9564 16.7458 26.051 17.7229" stroke="black" stroke-width="2" stroke-linecap="round"/>
<path d="M32.7479 36.1108C32.6181 37.7054 32.4627 38.1747 32.4749 37.5298C32.4823 37.1354 32.5331 36.7667 32.7479 36.1108Z" fill="black"/>
<path d="M30.8281 8.52295C31.6387 14.0031 32.4492 19.4832 32.732 24.7174C33.2745 34.7588 32.4474 38.9865 32.4749 37.5298C32.4881 36.8275 32.6387 36.2069 33.6084 33.9006C34.578 31.5944 36.3976 27.623 37.6207 25.0877C38.8438 22.5524 39.4153 21.5736 40.431 24.454C41.4467 27.3344 42.8894 34.1038 43.6234 37.2474C44.3574 40.391 44.339 39.7036 44.3201 38.9955" stroke="black" stroke-width="2" stroke-linecap="round"/>
<path d="M51.8111 25.2913C51.9266 29.6303 52.0164 33.1268 52.037 34.9807C52.0499 36.1501 51.6172 30.6841 51.7311 28.5809C51.7877 27.5343 51.8086 26.3895 51.8111 25.2913C51.818 22.2635 51.6852 19.5893 51.7773 20.2995C51.8752 21.0544 52.7956 22.145 54.0847 24.1518C55.6387 26.5706 58.8557 29.5528 62.1178 32.5602C62.4019 32.8221 62.6865 33.0843 62.9703 33.3463C64.2317 34.5109 64.2724 34.8212 64.174 34.8281C63.8028 34.5675 63.1808 33.9575 62.5941 33.3151C62.3789 33.0454 62.2447 32.8038 62.1178 32.5602C58.8557 29.5528 55.6387 26.5706 54.0847 24.1518C52.7956 22.145 51.8752 21.0544 51.7773 20.2995C51.6852 19.5893 51.818 22.2635 51.8111 25.2913Z" fill="black"/>
<path d="M51.7596 23.364C51.8993 28.5877 52.0135 32.8595 52.037 34.9807C52.0499 36.1501 51.6172 30.6841 51.7311 28.5809C51.9439 24.6486 51.6518 19.3317 51.7773 20.2995C51.8752 21.0544 52.7956 22.145 54.0847 24.1518C55.7741 26.7814 59.4288 30.0767 62.9703 33.3463C64.2317 34.5109 64.2724 34.8212 64.174 34.8281C63.8028 34.5675 63.1808 33.9575 62.5941 33.3151C62.3485 33.0072 62.2084 32.736 62.0641 32.4566" stroke="black" stroke-width="2" stroke-linecap="round"/>
<path d="M48.7451 31.3684C49.7976 30.9952 50.8501 30.622 53.6982 29.7464C56.5463 28.8709 61.1582 27.5043 63.439 26.9749C65.7199 26.4455 65.53 26.7947 65.1388 27.3684" stroke="black" stroke-width="2" stroke-linecap="round"/>
<path d="M73.3495 9.33686C73.3386 12.7251 73.3277 16.1133 73.3111 21.294C73.2724 33.3453 73.2512 39.9535 73.2214 38.911C73.1901 38.3391 73.1258 37.6801 73.0615 36.4308" stroke="black" stroke-width="2" stroke-linecap="round"/>
<path d="M67.4915 19.1937C69.5496 19.1294 71.6076 19.065 73.6967 19.0341C75.7858 19.0031 77.8437 19.0075 79.9638 19.012" stroke="black" stroke-width="2" stroke-linecap="round"/>
</svg>
