<svg width="81" height="41" viewBox="0 0 81 41" fill="none" xmlns="http://www.w3.org/2000/svg">
<path d="M59.7302 0.550983C59.8005 0.541691 59.9203 0.531676 60.0558 0.562635C60.2011 0.59587 60.4311 0.695464 60.5709 0.956605C60.7001 1.19804 60.6705 1.4289 60.646 1.5381C60.62 1.65365 60.5752 1.74569 60.5459 1.80051C60.443 1.99264 60.251 2.2176 60.119 2.37381C59.4866 3.12234 58.4464 4.28906 56.6331 6.05314C54.8079 7.82885 52.3111 10.1011 50.4895 12.164C49.7367 13.0165 49.1206 13.8137 48.6398 14.4941C49.5571 14.0399 50.7415 13.4762 52.1545 12.8765C54.6331 11.8246 58.4954 10.6861 60.5262 10.0854C61.5363 9.78662 62.1623 9.62841 62.5373 9.58791C62.6366 9.57719 62.7458 9.57137 62.8548 9.58126C62.9553 9.59039 63.1213 9.6181 63.284 9.72727C63.4789 9.85811 63.6017 10.0602 63.6398 10.281C63.6711 10.4625 63.6379 10.6141 63.6202 10.6835C63.3473 11.7556 62.5446 13.0943 61.6631 14.3902C60.9696 15.4097 60.176 16.4739 59.4514 17.4482C59.5337 17.4156 59.62 17.3815 59.7096 17.3443C60.6107 16.9706 61.8229 16.3904 63.3387 15.6216L63.3498 15.6159L63.3615 15.6107C64.9764 14.8625 66.6714 14.2171 68.6174 13.5512C68.9963 13.4216 69.4053 13.6347 69.5308 14.0272C69.6563 14.4198 69.4508 14.8432 69.072 14.9729C67.1544 15.6291 65.5118 16.2554 63.9604 16.9738C62.444 17.7427 61.1976 18.3405 60.2478 18.7344C59.7723 18.9316 59.3554 19.0843 59.0075 19.1814C58.6892 19.2702 58.3267 19.3435 58.0104 19.2882L57.8669 19.2629L57.7438 19.1825C57.5842 19.0778 57.4431 18.9198 57.3639 18.7072C57.2876 18.5023 57.29 18.3033 57.3183 18.1437C57.3707 17.8479 57.5301 17.5829 57.6839 17.3739C58.5737 16.1646 59.6043 14.8163 60.4812 13.5273C61.055 12.6838 61.5281 11.9131 61.8459 11.2636C61.5996 11.3293 61.2963 11.415 60.9242 11.525C58.8657 12.1339 55.0914 13.2485 52.7034 14.2619C50.8912 15.031 49.4628 15.7402 48.4959 16.2303C48.0198 16.4716 47.6346 16.6707 47.3824 16.7903C47.2662 16.8454 47.1313 16.9067 47.0167 16.9407C46.9844 16.9503 46.9361 16.9631 46.8793 16.9711C46.8364 16.9771 46.7174 16.9919 46.5752 16.953C46.4019 16.9056 46.1395 16.7532 46.0516 16.4142C45.985 16.1577 46.0681 15.9542 46.0921 15.8982L46.1621 15.7442C46.5595 14.9109 47.6629 13.1458 49.4225 11.1531C51.2933 9.03434 53.8746 6.68201 55.643 4.96156C56.3158 4.30701 56.8782 3.73813 57.35 3.24539C54.1786 4.8777 48.0277 8.20251 45.2361 9.25857C44.5132 9.53206 43.9448 9.68143 43.507 9.70555C43.1079 9.72754 42.5295 9.65091 42.2559 9.09611C42.1353 8.85144 42.1291 8.60493 42.151 8.42159C42.173 8.23739 42.2287 8.06768 42.2863 7.92857C42.4013 7.65103 42.5696 7.38741 42.7091 7.19206C43.289 6.38017 43.9957 5.22198 45.0664 3.48883C43.8207 4.04422 41.9564 5.03343 40.6072 5.93253C37.7137 7.86076 36.5568 8.85289 36.2252 9.24484C35.9622 9.5556 35.5057 9.58654 35.2054 9.31396C34.9051 9.04135 34.8749 8.56844 35.1379 8.25762C35.624 7.68304 36.9545 6.58589 39.8245 4.67332C41.6438 3.46091 44.3986 2.06003 45.5701 1.68698C45.7302 1.63599 45.8864 1.59705 46.0341 1.57947C46.1725 1.563 46.3618 1.55767 46.555 1.62663C46.7802 1.70701 46.9873 1.88278 47.0874 2.15444C47.1725 2.3856 47.1471 2.59951 47.1216 2.72367C47.0717 2.96699 46.9468 3.20259 46.8586 3.35871C46.7618 3.5299 46.6424 3.7168 46.5569 3.8549C45.3529 5.80041 44.5369 7.15128 43.8713 8.08309C43.8571 8.1029 43.8436 8.1231 43.83 8.14299C44.0562 8.0887 44.3542 7.99792 44.7394 7.85219C47.4978 6.80868 53.7326 3.42664 56.9268 1.79089C57.7163 1.38659 58.306 1.09694 58.7359 0.902654C59.1314 0.723907 59.4771 0.58445 59.7302 0.550983Z" fill="#1111FF" stroke="#1111FF" stroke-width="0.5" stroke-linecap="round"/>
<path d="M1.5 8.49951C5.10852 14.3144 8.26685 35.0514 10.3344 34.6708C12.4019 34.2901 12.1281 20.4146 12.4969 17.7229C12.6759 16.4159 15.3845 28.1353 17.7644 33.3049C19.7969 37.7199 21.4719 39.734 22.0722 39.686C22.4777 39.6536 22.7815 38.7408 23.4106 34.7234C24.0397 30.706 24.9066 23.3908 25.3486 19.4505C25.7906 15.5103 25.7814 15.1666 25.7822 15.1958C25.783 15.2249 25.794 15.6373 25.8375 16.0207C25.8809 16.404 25.9564 16.7458 26.051 17.7229" stroke="white" stroke-width="2" stroke-linecap="round"/>
<path d="M32.7479 36.1103C32.6181 37.705 32.4627 38.1742 32.4749 37.5293C32.4823 37.1349 32.5331 36.7663 32.7479 36.1103Z" fill="white"/>
<path d="M30.8281 8.52246C31.6387 14.0026 32.4492 19.4827 32.732 24.7169C33.2745 34.7583 32.4474 38.986 32.4749 37.5293C32.4881 36.827 32.6387 36.2064 33.6084 33.9001C34.578 31.5939 36.3976 27.6225 37.6207 25.0873C38.8438 22.552 39.4153 21.5731 40.431 24.4535C41.4467 27.3339 42.8894 34.1033 43.6234 37.2469C44.3574 40.3905 44.339 39.7032 44.3201 38.995" stroke="white" stroke-width="2" stroke-linecap="round"/>
<path d="M51.8111 25.2913C51.9266 29.6303 52.0164 33.1268 52.037 34.9807C52.0499 36.1501 51.6172 30.6841 51.7311 28.5809C51.7877 27.5343 51.8086 26.3895 51.8111 25.2913C51.818 22.2635 51.6852 19.5893 51.7773 20.2995C51.8752 21.0544 52.7956 22.145 54.0847 24.1518C55.6387 26.5706 58.8557 29.5528 62.1178 32.5602C62.4019 32.8221 62.6865 33.0843 62.9703 33.3463C64.2317 34.5109 64.2724 34.8212 64.174 34.8281C63.8028 34.5675 63.1808 33.9575 62.5941 33.3151C62.3789 33.0454 62.2447 32.8038 62.1178 32.5602C58.8557 29.5528 55.6387 26.5706 54.0847 24.1518C52.7956 22.145 51.8752 21.0544 51.7773 20.2995C51.6852 19.5893 51.818 22.2635 51.8111 25.2913Z" fill="white"/>
<path d="M51.7596 23.364C51.8993 28.5877 52.0135 32.8595 52.037 34.9807C52.0499 36.1501 51.6172 30.6841 51.7311 28.5809C51.9439 24.6486 51.6518 19.3317 51.7773 20.2995C51.8752 21.0544 52.7956 22.145 54.0847 24.1518C55.7741 26.7814 59.4288 30.0767 62.9703 33.3463C64.2317 34.5109 64.2724 34.8212 64.174 34.8281C63.8028 34.5675 63.1808 33.9575 62.5941 33.3151C62.3485 33.0072 62.2084 32.736 62.0641 32.4566" stroke="white" stroke-width="2" stroke-linecap="round"/>
<path d="M48.7451 31.368C49.7976 30.9947 50.8501 30.6215 53.6982 29.7459C56.5463 28.8704 61.1582 27.5038 63.439 26.9744C65.7199 26.445 65.53 26.7942 65.1388 27.3679" stroke="white" stroke-width="2" stroke-linecap="round"/>
<path d="M73.3495 9.33637C73.3386 12.7246 73.3277 16.1128 73.3111 21.2935C73.2724 33.3448 73.2512 39.953 73.2214 38.9105C73.1901 38.3386 73.1258 37.6796 73.0615 36.4303" stroke="white" stroke-width="2" stroke-linecap="round"/>
<path d="M67.4915 19.1932C69.5496 19.1289 71.6076 19.0645 73.6967 19.0336C75.7858 19.0026 77.8437 19.007 79.9638 19.0116" stroke="white" stroke-width="2" stroke-linecap="round"/>
</svg>
