<svg width="73" height="40" viewBox="0 0 73 40" fill="none" xmlns="http://www.w3.org/2000/svg">
<path d="M10.8855 0.727555C10.9563 0.380291 11.2953 0.156085 11.6425 0.226853C11.9897 0.297651 12.2137 0.636437 12.143 0.983649C12.1485 0.956594 12.1426 0.954146 12.1472 1.05572C12.1518 1.15628 12.1633 1.30758 12.1837 1.57167C12.2239 2.09073 12.2926 2.98497 12.3847 4.59133C12.5683 7.79508 12.8383 13.6795 12.8342 17.3698C12.8301 21.0605 12.5608 22.5621 12.3308 23.3387C12.2764 23.5222 12.2128 23.704 12.1292 23.8542C12.0572 23.9836 11.8871 24.2427 11.5525 24.3146C11.2066 24.3889 10.946 24.2094 10.8358 24.1203C10.7115 24.0199 10.6 23.8887 10.5089 23.7751C9.58201 22.6194 8.60922 20.8931 8.08581 18.8704C8.11178 19.7005 8.16302 20.5856 8.20738 21.4073C8.25453 22.2808 8.29476 23.0995 8.28112 23.666C8.27429 23.9494 8.25411 24.1989 8.21072 24.4044C8.17374 24.5796 8.09387 24.862 7.85958 25.0559C7.54484 25.3165 7.18715 25.252 6.97495 25.1552C6.78802 25.0699 6.62744 24.9295 6.50788 24.8138C5.96714 24.2907 5.29856 23.3132 4.39583 20.8243C3.49727 18.3469 2.36502 14.3814 1.60447 11.9168C0.841915 9.44567 0.444177 8.44099 0.0451351 7.43198C-0.0851953 7.10243 0.0763431 6.7295 0.405882 6.59915C0.735447 6.46881 1.10838 6.63033 1.23871 6.95989C1.64693 7.99211 2.05637 9.02873 2.83085 11.5385C3.60737 14.0549 4.71784 17.948 5.60235 20.3867C6.19916 22.0321 6.66133 22.9103 7.00001 23.4049C6.99927 22.9102 6.96705 22.2394 6.92586 21.4765C6.87856 20.6003 6.82106 19.6177 6.79698 18.7104C6.74928 16.913 6.83604 15.4186 6.96659 14.8065L6.97453 14.7727C6.98429 14.7351 6.99993 14.6865 7.02571 14.6342C7.05797 14.5687 7.13014 14.4483 7.2747 14.3593C7.66194 14.1209 7.99621 14.3738 8.05991 14.4295C8.14725 14.5058 8.2005 14.5912 8.22305 14.6287C8.25241 14.6776 8.27766 14.7284 8.29887 14.7743C8.38044 14.9511 8.47284 15.2156 8.56771 15.5222C8.76172 16.1491 8.99911 17.0609 9.21651 18.0775C9.60153 19.8778 10.4025 21.4544 11.2028 22.5669C11.3659 21.8107 11.5475 20.3601 11.5508 17.3683C11.5549 13.7178 11.2867 7.86482 11.1034 4.66486C11.012 3.06943 10.944 2.18404 10.9043 1.67068C10.8848 1.41862 10.8708 1.24048 10.865 1.11399C10.8593 0.988626 10.8583 0.861348 10.8855 0.727555Z" fill="white"/>
<path d="M11.5479 0C11.9004 0 12.1863 0.284144 12.1894 0.635851C12.1901 0.640768 12.1914 0.650407 12.194 0.666348C12.2042 0.727835 12.2271 0.846382 12.2788 1.08391C12.3814 1.5551 12.5882 2.45436 13.0041 4.21303C13.8346 7.72459 15.5002 14.6632 16.4975 19.3032C16.7081 20.2829 16.8862 21.1514 17.0392 21.9254C17.1875 21.4474 17.404 20.9766 17.7157 20.5505L17.7621 20.4911C18.0005 20.2063 18.3367 20.09 18.6804 20.1275C18.9897 20.1612 19.2737 20.3141 19.5024 20.4694C19.9709 20.7876 20.4907 21.3169 20.9944 21.8834C21.5073 22.46 22.0454 23.1238 22.5477 23.7412C23.0565 24.3666 23.5243 24.939 23.9151 25.3611C24.7675 26.2818 25.4378 26.9612 25.9492 27.4502C25.8528 26.8913 25.7527 26.225 25.6605 25.4599L25.6595 25.451L25.6587 25.4422C25.5624 24.3977 25.5156 23.2681 25.4682 22.1255C25.4534 21.7714 25.7286 21.4724 26.0827 21.4577C26.4368 21.443 26.7358 21.7181 26.7505 22.0722C26.7981 23.2189 26.8436 24.3115 26.9358 25.3152C27.1661 27.2245 27.4415 28.4613 27.5658 28.8972L27.7624 29.5865L27.0555 29.7058C26.8983 29.7323 26.7705 29.696 26.7219 29.6809C26.6584 29.6612 26.6031 29.6356 26.5615 29.6143C26.4771 29.571 26.3887 29.5141 26.301 29.4518C26.1224 29.3249 25.8896 29.1355 25.5985 28.8754C25.0137 28.3529 24.1577 27.5121 22.9734 26.233C22.549 25.7746 22.0534 25.1672 21.5522 24.5511C21.0444 23.9269 20.5256 23.2874 20.0354 22.7363C19.5362 22.1749 19.1068 21.7521 18.7813 21.531C18.73 21.4962 18.6873 21.4708 18.653 21.4522C18.2603 22.0652 18.0869 22.842 18.0372 23.6196C17.9841 24.4508 18.076 25.2136 18.135 25.645C18.2625 26.5775 18.5542 28.0158 18.7658 29.1921C18.8684 29.7623 18.9551 30.2863 18.9833 30.629C18.9905 30.7166 18.9951 30.8062 18.9933 30.8891C18.992 30.949 18.9877 31.0904 18.9302 31.2313C18.9013 31.3021 18.8223 31.4648 18.6336 31.5713C18.4089 31.6981 18.1818 31.6637 18.0376 31.601C17.9146 31.5475 17.8342 31.4694 17.7964 31.4297C17.7522 31.3833 17.7171 31.3359 17.6909 31.2975C17.5565 31.1004 17.4113 30.7286 17.2618 30.2012C17.1044 29.6455 16.9238 28.8483 16.7446 27.7452C16.5084 26.2908 16.234 24.185 15.2427 19.5729C14.249 14.9496 12.5881 8.03017 11.7552 4.5084C11.3394 2.75052 11.1302 1.8408 11.0249 1.35693C10.9242 0.894584 10.9062 0.774027 10.9062 0.6417C10.9062 0.287299 11.1935 0 11.5479 0Z" fill="white"/>
<path d="M34.1642 11.4111V11.4113C34.0145 11.09 34.1536 10.7081 34.4748 10.5584C34.796 10.4087 35.1778 10.5478 35.3275 10.869C35.3444 10.9051 35.501 11.2472 35.631 11.81L35.635 11.8272L35.6379 11.8443C35.8749 13.2029 35.6514 16.0493 34.3482 19.3178L34.3115 19.4102L34.2486 19.4868C33.9859 19.8076 33.6725 20.1205 33.3239 20.3537C32.9795 20.5841 32.5509 20.7693 32.0772 20.7464C31.3809 20.7127 30.6096 20.4051 29.8043 19.8753C28.9916 19.3406 28.1023 18.552 27.1609 17.4913C26.1428 16.3443 25.099 14.9685 23.9242 13.0867C23.7016 12.7302 23.4756 12.358 23.2509 11.9801C23.1433 11.9404 22.9048 11.8828 22.402 11.8823C22.2887 11.8822 22.1591 11.8995 22.0135 11.9341C22.0475 12.8226 22.0301 13.673 21.9281 14.4359C21.8211 15.2358 21.6943 15.9699 21.5138 16.5908C21.3359 17.203 21.0883 17.7697 20.7002 18.1811C20.3513 18.5508 19.8926 18.7639 19.359 18.6389C19.032 18.5624 18.1624 18.2711 17.3858 17.8065C16.9968 17.5738 16.592 17.2748 16.2933 16.9052C15.9899 16.5296 15.7617 16.034 15.8457 15.4528C15.8767 15.2382 15.9423 14.928 16.154 14.5563C16.3617 14.1916 16.6931 13.7966 17.2177 13.3748C18.1204 12.6489 19.0497 11.9675 19.915 11.4647C20.1677 11.3179 20.4237 11.1812 20.6789 11.0616C20.5805 9.73345 20.3908 8.31879 20.2135 6.95905C20.1578 6.53169 20.1051 6.28456 20.0711 6.15505C20.0609 6.13188 20.0516 6.11114 20.0439 6.09238C20.0314 6.06205 20.0186 6.02932 20.008 5.99671C20.0028 5.98086 19.9954 5.95656 19.9888 5.92778C19.9861 5.91638 19.9662 5.83655 19.9727 5.73581C19.9747 5.70464 19.9851 5.48369 20.1763 5.30571C20.4523 5.04893 20.7753 5.14041 20.8939 5.19772C21.0027 5.25031 21.0685 5.32074 21.0873 5.34102C21.1153 5.37132 21.1353 5.39856 21.1466 5.41496C21.1866 5.47282 21.2115 5.52868 21.2229 5.55512C21.2427 5.60102 21.2614 5.65414 21.2799 5.71409C21.2916 5.7393 21.3051 5.7688 21.3215 5.80286C21.4235 6.01599 21.6111 6.38855 21.9471 7.02297C22.6199 8.29339 23.8669 10.5716 25.0129 12.4072C26.1539 14.2349 27.1554 15.5518 28.1207 16.6395C29.0097 17.6412 29.8157 18.3465 30.5097 18.8031C31.2114 19.2648 31.7587 19.446 32.1393 19.4645C32.2379 19.4692 32.3943 19.4314 32.6103 19.2869C32.8012 19.1592 33.0006 18.9725 33.1929 18.748C34.3974 15.6834 34.5541 13.1369 34.3762 12.0814C34.3249 11.8624 34.2701 11.6905 34.2288 11.5752C34.2076 11.5162 34.1901 11.4721 34.1786 11.4445C34.1729 11.4306 34.1685 11.4209 34.1661 11.4154C34.1652 11.4134 34.1646 11.4119 34.1642 11.4111ZM20.7447 12.4695C20.6842 12.503 20.6226 12.5379 20.5599 12.5743C19.7746 13.0306 18.9024 13.6669 18.0219 14.3749C17.5963 14.7171 17.3817 14.9938 17.2693 15.1913C17.1608 15.3817 17.1321 15.5247 17.1159 15.6364C17.099 15.7535 17.1311 15.9 17.2916 16.0987C17.4569 16.3033 17.7198 16.5107 18.0447 16.7051C18.696 17.0947 19.4398 17.3398 19.6516 17.3894C19.6535 17.3898 19.6551 17.3902 19.6564 17.3904C19.6663 17.3861 19.704 17.3669 19.7667 17.3004C19.9494 17.1068 20.1256 16.7689 20.2814 16.2326C20.4347 15.705 20.5516 15.0465 20.6559 14.2659C20.7294 13.7165 20.754 13.1113 20.7447 12.4695ZM21.8199 9.4801C21.8622 9.86724 21.9011 10.2554 21.9331 10.6411C22.0933 10.6135 22.2505 10.5987 22.4035 10.5989C22.4187 10.5989 22.4337 10.599 22.4486 10.5991C22.2303 10.2158 22.0189 9.83929 21.8199 9.4801Z" fill="white"/>
<path d="M29.0784 6.67266C29.4097 6.54701 29.7801 6.71374 29.9058 7.04511C30.592 8.85472 31.2734 10.6523 33.0654 14.0927C34.8653 17.5484 37.7608 22.5987 39.6411 25.6515C41.4229 28.5442 42.5397 29.8888 43.21 30.5678C43.1972 29.99 43.2206 29.1704 43.329 27.987C43.6038 24.99 44.437 19.6011 44.9103 16.7611C45.3857 13.9083 45.4835 13.7247 45.5904 13.3758C45.6943 13.037 46.0531 12.8463 46.3919 12.9501C46.7308 13.0539 46.9212 13.4128 46.8174 13.7516C46.7344 14.0226 46.6478 14.1431 46.1764 16.972C45.7028 19.814 44.8769 25.16 44.607 28.1042C44.4728 29.5681 44.4762 30.4148 44.508 30.9071C44.5237 31.1507 44.5466 31.3105 44.5646 31.419C44.5693 31.4472 44.5737 31.4727 44.5782 31.4978C44.5824 31.5214 44.5873 31.5485 44.5913 31.5732C44.598 31.6139 44.6116 31.6967 44.6097 31.7869C44.6077 31.8847 44.5875 32.0206 44.5078 32.157C44.4216 32.3044 44.2908 32.4092 44.1433 32.4649C43.8927 32.5595 43.6645 32.4896 43.5774 32.4595C43.3634 32.3855 43.1538 32.2386 42.9984 32.1105C42.371 31.593 41.0936 30.4567 38.5485 26.3245C36.654 23.2488 33.7429 18.1718 31.9272 14.6858C30.1035 11.1846 29.4022 9.33622 28.7059 7.50006C28.5803 7.16869 28.747 6.79832 29.0784 6.67266Z" fill="white"/>
<path d="M8.59762 26.7502C8.91491 26.7097 9.2733 26.7672 9.58064 26.9033C10.0404 27.107 10.6634 27.4749 10.9261 28.2596C11.1623 28.9655 11.4196 30.1638 10.7009 31.4163C10.1541 32.3693 9.31925 33.3527 8.28492 34.3286C8.47298 34.9202 9.03053 35.4362 9.90505 35.9711C10.6233 36.4104 11.5676 36.6695 12.6402 36.8165C13.6889 36.9602 14.8091 36.9905 15.8828 37.0038C16.9773 36.8197 17.6997 36.6333 18.1661 36.4729C18.4027 36.3915 18.5661 36.3192 18.6754 36.2617C18.724 36.2361 18.7596 36.2142 18.785 36.1973C18.7997 36.1637 18.8203 36.1071 18.8531 36.0014C18.9582 35.6629 19.3178 35.4738 19.6563 35.5788C19.9947 35.6839 20.1839 36.0435 20.0789 36.382C20.0364 36.5188 19.9614 36.7813 19.7868 37.0132L19.7563 37.054L19.7196 37.0893C19.4988 37.3021 19.1298 37.4985 18.5834 37.6865C18.0199 37.8803 17.2067 38.0851 16.0384 38.2793L15.9822 38.2887L15.9254 38.2881C14.8327 38.2751 13.6202 38.2461 12.466 38.088C11.3167 37.9305 10.1714 37.6386 9.23535 37.0661C8.48924 36.6097 7.71185 36.0262 7.27746 35.225C7.05846 35.4094 6.8333 35.5933 6.60234 35.776C6.32444 35.9959 5.92091 35.949 5.70099 35.6711C5.48109 35.3932 5.52814 34.9895 5.80606 34.7696C6.19961 34.4582 6.57097 34.1475 6.91838 33.8394C6.83666 32.7807 6.79246 31.2724 6.91525 29.9541C6.98187 29.239 7.10111 28.5355 7.31297 27.982C7.5074 27.4741 7.87968 26.842 8.59762 26.7502ZM9.06093 28.0769C8.95359 28.0293 8.83517 28.0158 8.76745 28.0226C8.75282 28.03 8.64558 28.0908 8.51156 28.441C8.36186 28.8321 8.2558 29.399 8.19301 30.073C8.11542 30.9059 8.10939 31.8352 8.13807 32.6626C8.755 32.0079 9.2453 31.3745 9.58775 30.7778C10.0372 29.9946 9.89905 29.2352 9.7089 28.667C9.61874 28.3976 9.40682 28.23 9.06093 28.0769Z" fill="white"/>
<path d="M34.1592 26.6139C34.4347 26.5047 34.714 26.5093 34.94 26.5514C35.1835 26.5968 35.4103 26.6935 35.5944 26.8077C35.913 27.0054 36.2519 27.3243 36.3372 27.807L36.3448 27.8542L36.3508 27.9081C36.3741 28.1797 36.2962 28.4865 36.1912 28.7773C36.0695 29.1145 35.8734 29.5295 35.5892 30.0258C35.3746 30.4007 35.1059 30.8278 34.7746 31.3103C34.9473 32.1044 35.1729 32.9999 35.4344 33.9748C35.9645 35.9506 36.686 36.9781 37.1774 37.5098C37.5587 37.9225 38.068 37.8799 38.6488 37.8235C38.7702 37.8118 39.006 37.7804 40.2169 36.9863C41.4039 36.208 43.4153 34.7507 44.5622 33.9347C45.6852 33.1357 45.9125 32.9987 46.1317 32.8928C46.3217 32.801 46.4819 32.7412 46.6209 32.6891C46.9528 32.5648 47.3227 32.733 47.4471 33.0649C47.5714 33.3968 47.4032 33.7667 47.0713 33.891C46.9315 33.9434 46.8212 33.985 46.6901 34.0483C46.5881 34.0976 46.4544 34.1634 45.3062 34.9804C44.1817 35.7805 42.1347 37.2634 40.9206 38.0596C39.7304 38.8401 39.2492 39.0546 38.7729 39.1009C38.3096 39.1459 37.1112 39.329 36.2349 38.3809C35.592 37.6852 34.7748 36.4687 34.1949 34.3074C34.0432 33.7419 33.902 33.1969 33.7748 32.6783C33.4218 33.1367 33.0248 33.6315 32.5787 34.1632C32.351 34.4347 31.9462 34.4703 31.6747 34.2426C31.4032 34.0149 31.3676 33.6101 31.5953 33.3385C32.3349 32.4569 32.9299 31.6887 33.4047 31.0276C33.3804 30.9047 33.3575 30.7842 33.3362 30.6663C33.152 29.6478 33.0626 28.7334 33.1895 28.0683C33.2439 27.7834 33.3297 27.5026 33.464 27.2593C33.5983 27.016 33.802 26.7743 34.1042 26.6373L34.1592 26.6139ZM34.6373 27.8074C34.6279 27.8173 34.6103 27.8384 34.5876 27.8795C34.5395 27.9666 34.4887 28.1068 34.4502 28.3088C34.4011 28.5657 34.4 28.9389 34.451 29.4299C34.4591 29.4158 34.4677 29.402 34.4756 29.3881C34.7358 28.9337 34.8951 28.5879 34.9841 28.3414C35.0533 28.1495 35.0664 28.0537 35.0701 28.028C35.0681 28.0248 35.0657 28.0201 35.0614 28.0147C35.0415 27.9897 34.999 27.9487 34.9179 27.8983C34.8519 27.8574 34.7732 27.8256 34.7048 27.8129C34.6702 27.8064 34.6485 27.8066 34.6373 27.8074Z" fill="white"/>
<path d="M31.7326 24.1765C32.0837 24.1287 32.4072 24.3746 32.4551 24.7257C32.5582 25.4816 32.5057 25.901 32.4821 26.191C32.4627 26.5274 32.3601 26.9529 32.1269 27.6622C31.8847 28.3992 31.4826 29.4971 30.8293 31.2001L30.8237 31.2148L30.8172 31.2292C29.9327 33.2342 28.3434 36.6453 27.4435 38.2864C27.2168 38.6998 27.0273 39.0141 26.8653 39.2488C26.7099 39.4739 26.5533 39.6657 26.3844 39.796C26.2046 39.9348 25.9129 40.0724 25.5748 39.9567C25.3161 39.8681 25.1672 39.6608 25.1403 39.6266C24.947 39.381 24.7767 39.0997 24.6486 38.8861C24.1465 38.0492 23.3745 36.4392 21.222 30.7991C21.0957 30.468 21.2617 30.0972 21.5928 29.9709C21.9239 29.8445 22.2947 30.0105 22.421 30.3416C24.5802 35.9994 25.3149 37.502 25.7492 38.2258C25.7899 38.2936 25.8309 38.3607 25.8716 38.4264C25.9893 38.2471 26.136 38.0017 26.3182 37.6694C27.1874 36.0842 28.7516 32.7303 29.6356 30.7276C30.2854 29.0331 30.6766 27.9645 30.9077 27.2616C31.1433 26.5447 31.1942 26.26 31.2014 26.1087L31.202 26.0979L31.2028 26.087C31.2257 25.806 31.2662 25.5064 31.1834 24.8991C31.1355 24.5479 31.3814 24.2244 31.7326 24.1765Z" fill="white"/>
<path d="M46.9857 21.8966C47.7348 21.697 48.4777 21.9043 49.0892 22.203C49.708 22.5052 50.2755 22.9411 50.7193 23.3264C51.6152 24.1041 51.9038 24.9289 51.9975 25.3655C52.0616 25.6641 52.043 26.0255 51.8697 26.3584C51.7843 26.5224 51.691 26.6671 51.5944 26.7952C52.1274 26.8969 52.8039 27.0446 53.603 27.2689L53.8267 27.3326L53.847 27.3387L53.8666 27.3458C55.5507 27.9575 57.8825 28.9818 60.157 29.7348C62.3792 30.4705 64.3595 30.8686 66.4391 31.286C66.7865 31.3558 67.0116 31.6939 66.9419 32.0413C66.8721 32.3888 66.5338 32.6141 66.1863 32.5443C64.1116 32.1279 62.0596 31.7166 59.7537 30.9532C57.5104 30.2106 54.9787 29.117 53.4495 28.5598C52.3121 28.2304 51.4223 28.0624 50.8351 27.9626C50.5544 27.9149 50.3014 27.8764 50.151 27.8454C50.0996 27.8349 49.9586 27.8073 49.8385 27.7429C49.8013 27.7229 49.7325 27.6823 49.6649 27.6117C49.5946 27.5383 49.4955 27.3993 49.4829 27.1981C49.4702 26.9933 49.554 26.8389 49.6225 26.7517C49.6866 26.67 49.7559 26.6211 49.7929 26.5973L49.8332 26.5731C49.8734 26.5503 49.9107 26.5323 49.926 26.5249C49.9603 26.5082 49.9875 26.4953 50.0215 26.4781C50.085 26.4457 50.1577 26.405 50.2356 26.3496C50.3879 26.2411 50.5752 26.0654 50.7312 25.7658C50.7379 25.7531 50.7441 25.7347 50.7467 25.7104C50.7494 25.6855 50.7479 25.6589 50.7427 25.6348C50.6943 25.4092 50.5213 24.854 49.8782 24.2956C49.471 23.9421 49.0004 23.5879 48.526 23.3563C48.0459 23.1217 47.6414 23.0511 47.3191 23.1359C47.311 23.1562 47.2993 23.1949 47.2901 23.2602C47.2794 23.3355 47.2739 23.4336 47.2761 23.5601C47.2826 23.9396 47.3056 24.4074 47.3627 24.9423C47.392 24.9819 47.4178 25.0251 47.4379 25.0725C48.7535 28.1616 49.7934 30.6226 50.5777 32.385C51.0124 32.8639 51.459 33.3363 51.8732 33.7903C52.4233 34.3934 52.9605 35.0095 53.2003 35.4913C53.2641 35.6195 53.326 35.7745 53.3503 35.9429C53.3752 36.1158 53.3653 36.347 53.2274 36.5654C53.0884 36.7856 52.8799 36.8971 52.6994 36.9502C52.525 37.0014 52.3411 37.0101 52.1703 37.0022C51.998 36.9942 51.8755 36.9162 51.8697 36.9128C51.8335 36.8917 51.8054 36.8708 51.7899 36.8589C51.757 36.8336 51.7276 36.807 51.7053 36.786C51.6582 36.7417 51.6041 36.6857 51.5461 36.6214C51.4287 36.491 51.2764 36.3057 51.1024 36.067C50.754 35.5889 50.3106 34.8856 49.8819 33.9598C49.7589 33.694 49.6279 33.4051 49.4886 33.0937C49.3509 32.9406 49.2148 32.7874 49.0831 32.6352C48.4862 31.9453 47.9134 31.2115 47.6009 30.5453C46.2662 27.7003 46.018 25.0405 45.9929 23.5823C45.9872 23.2552 46.0146 22.902 46.1552 22.5942C46.3152 22.244 46.6003 21.9992 46.9857 21.8966Z" fill="white"/>
<path d="M63.6736 1.28843C63.7362 1.28214 63.8428 1.27642 63.9623 1.30618C64.0905 1.33813 64.2922 1.42896 64.4102 1.65607C64.5191 1.86604 64.4874 2.06316 64.463 2.15614C64.4372 2.25453 64.3953 2.33233 64.368 2.3786C64.2721 2.54079 64.0963 2.72897 63.9755 2.85967C63.3964 3.48599 62.4454 4.46092 60.7941 5.92926C59.1319 7.40729 56.8619 9.29475 55.1962 11.019C54.5078 11.7315 53.942 12.3999 53.4992 12.9715C54.3241 12.6042 55.3887 12.1494 56.6571 11.6693C58.882 10.8271 62.3371 9.94366 64.1538 9.47741C65.0575 9.24549 65.6169 9.12487 65.9507 9.09911C66.0391 9.09229 66.1362 9.08991 66.2327 9.10099C66.3217 9.11122 66.4684 9.13893 66.6101 9.23635C66.7801 9.35312 66.8842 9.52918 66.9128 9.7193C66.9363 9.8756 66.9032 10.0047 66.8859 10.0638C66.6182 10.976 65.874 12.1039 65.0608 13.1933C64.4211 14.0503 63.6915 14.9433 63.0252 15.7609C63.0991 15.7349 63.1764 15.7077 63.2569 15.678C64.0655 15.3793 65.1553 14.9111 66.5189 14.2885L66.5289 14.2839L66.5393 14.2797C67.9904 13.6771 69.5102 13.1645 71.2533 12.6404C71.5927 12.5383 71.9506 12.7307 72.0527 13.07C72.1547 13.4094 71.9624 13.7674 71.623 13.8695C69.9054 14.3859 68.4326 14.8835 67.0386 15.462C65.6745 16.0847 64.5539 16.5672 63.7016 16.882C63.2749 17.0396 62.9012 17.1606 62.5901 17.2355C62.3054 17.304 61.982 17.3581 61.7026 17.3031L61.5758 17.2781L61.4684 17.2062C61.3293 17.1127 61.2078 16.9739 61.1425 16.7899C61.0797 16.6125 61.0865 16.442 61.1154 16.3059C61.169 16.0537 61.3167 15.8304 61.4582 15.655C62.2767 14.64 63.2234 13.5093 64.0323 12.4256C64.5616 11.7165 64.9998 11.0674 65.2973 10.5185C65.0771 10.569 64.8059 10.6351 64.473 10.7205C62.6314 11.1931 59.255 12.0581 57.1114 12.8695C55.4847 13.4853 54.2001 14.0589 53.3302 14.4558C52.9019 14.6512 52.5553 14.8126 52.3286 14.9091C52.2242 14.9535 52.103 15.0028 52.0004 15.0292C51.9716 15.0366 51.9283 15.0465 51.8778 15.052C51.8395 15.0561 51.7335 15.0659 51.6083 15.0292C51.4556 14.9844 51.2263 14.8476 51.1563 14.555C51.1033 14.3336 51.1819 14.1613 51.2046 14.1139L51.2704 13.9835C51.6428 13.279 52.6641 11.7928 54.2731 10.1273C55.9839 8.35637 58.3308 6.40229 59.9412 4.97026C60.5539 4.42544 61.0666 3.95139 61.497 3.54043C58.6434 4.86345 53.1052 7.56564 50.6023 8.40394C49.9542 8.62103 49.4461 8.73546 49.057 8.74568C48.7022 8.75499 48.1906 8.67553 47.961 8.19359C47.8597 7.98105 47.8601 7.76968 47.8839 7.61309C47.9078 7.45578 47.9613 7.31168 48.0157 7.19386C48.1243 6.95878 48.2799 6.73691 48.4084 6.57284C48.9424 5.89098 49.5972 4.9154 50.5885 3.45583C49.4698 3.90201 47.7916 4.70516 46.5727 5.44339C43.9587 7.02661 42.9083 7.84915 42.6047 8.17709C42.3639 8.4371 41.958 8.45272 41.6979 8.21197C41.4379 7.97121 41.4223 7.56526 41.663 7.30519C42.1081 6.82444 43.3151 5.91605 45.9078 4.34569C47.5514 3.35022 50.0298 2.21557 51.0784 1.92386C51.2217 1.88399 51.3613 1.85435 51.4928 1.84281C51.616 1.83201 51.7841 1.83196 51.954 1.89566C52.152 1.96991 52.3316 2.12547 52.414 2.36064C52.4841 2.56076 52.4565 2.74345 52.4309 2.84923C52.3808 3.05654 52.2644 3.25544 52.1823 3.38711C52.0924 3.53149 51.982 3.6888 51.9029 3.80509C50.788 5.44345 50.0316 6.58152 49.4188 7.3641C49.4058 7.38073 49.3933 7.39772 49.3808 7.41444C49.5828 7.37331 49.8494 7.30264 50.1948 7.18697C52.6679 6.35863 58.282 3.6094 61.1559 2.28398C61.8663 1.95638 62.3965 1.72226 62.7827 1.56604C63.138 1.42231 63.4482 1.31106 63.6736 1.28843Z" fill="#1111FF"/>
</svg>
