<svg width="256" height="256" viewBox="0 0 256 256" fill="none" xmlns="http://www.w3.org/2000/svg">
<rect width="256" height="256" rx="128" fill="black"/>
<path d="M138.41 112.458C138.403 112.446 138.397 112.432 138.392 112.419C137.895 110.851 137.817 110.67 138.293 112.262C138.008 111.786 137.729 111.316 137.454 110.855C137.398 110.841 137.341 110.828 137.285 110.814C137.746 111.818 138.207 112.822 138.663 113.817C138.685 113.865 138.697 113.917 138.697 113.97C138.708 114.777 138.766 114.85 138.859 114.465C138.87 114.418 138.935 114.41 138.956 114.454C138.938 114.396 138.92 114.339 138.903 114.282C138.902 114.277 138.901 114.272 138.902 114.267C138.909 114.234 138.958 114.231 138.968 114.263C139.008 114.392 139.049 114.524 139.091 114.66C139.258 114.685 139.395 114.528 139.35 114.366C139.287 114.141 139.227 113.928 139.17 113.725C139.128 113.655 139.087 113.585 139.045 113.515C139.039 113.505 139.037 113.492 139.038 113.48C139.045 113.438 139.051 113.395 139.058 113.352C139.058 113.348 139.064 113.346 139.066 113.35C137.709 108.501 138.323 110.555 139.217 113.595C139.411 113.912 139.61 114.232 139.808 114.557C139.817 114.572 139.819 114.59 139.813 114.607C139.797 114.654 139.733 114.661 139.707 114.618C139.582 114.41 139.458 114.204 139.335 113.998C139.398 114.215 139.463 114.435 139.528 114.656C139.541 114.7 139.578 114.732 139.623 114.738C139.647 114.742 139.672 114.746 139.696 114.749C139.73 114.754 139.751 114.789 139.74 114.821C139.731 114.845 139.706 114.86 139.68 114.857C139.679 114.856 139.677 114.856 139.675 114.856C139.632 114.85 139.596 114.89 139.609 114.933C139.621 114.972 139.632 115.011 139.644 115.05C139.652 115.051 139.657 115.06 139.655 115.068C139.654 115.071 139.653 115.074 139.651 115.077C139.655 115.089 139.658 115.101 139.662 115.113C139.669 115.137 139.649 115.16 139.624 115.157C139.615 115.181 139.58 115.18 139.573 115.155C139.573 115.154 139.572 115.152 139.572 115.15C139.466 115.135 139.36 115.12 139.253 115.105C139.323 115.257 139.393 115.409 139.463 115.561C139.471 115.578 139.472 115.598 139.466 115.615C139.462 115.625 139.459 115.634 139.456 115.644C139.444 115.678 139.47 115.714 139.505 115.717C139.513 115.717 139.522 115.718 139.532 115.719C139.534 115.719 139.536 115.72 139.537 115.722C139.539 115.726 139.535 115.73 139.531 115.73C139.492 115.724 139.464 115.721 139.446 115.718C139.437 115.716 139.429 115.721 139.426 115.729C139.425 115.733 139.425 115.736 139.426 115.74C139.449 115.816 139.473 115.892 139.497 115.97C139.513 116.024 139.561 116.063 139.618 116.068C139.641 116.07 139.663 116.072 139.685 116.074C139.694 116.075 139.701 116.081 139.705 116.088C139.712 116.105 139.699 116.124 139.68 116.123C139.662 116.121 139.643 116.119 139.624 116.118C139.584 116.114 139.553 116.153 139.565 116.191C139.586 116.262 139.608 116.334 139.63 116.406C139.653 116.481 139.721 116.533 139.799 116.536C139.829 116.537 139.86 116.539 139.891 116.54C139.904 116.54 139.915 116.548 139.92 116.56C139.931 116.583 139.914 116.609 139.889 116.608C139.862 116.607 139.835 116.606 139.808 116.605C139.75 116.603 139.707 116.659 139.724 116.714C139.799 116.958 139.876 117.21 139.955 117.468C139.996 117.604 140.182 117.62 140.247 117.493C140.239 117.467 140.231 117.441 140.224 117.415C140.21 117.366 140.279 117.341 140.3 117.386C140.304 117.378 140.308 117.37 140.313 117.361C140.315 117.357 140.321 117.358 140.322 117.362C140.322 117.363 140.322 117.365 140.321 117.366C140.316 117.376 140.311 117.387 140.305 117.398C140.327 117.444 140.349 117.491 140.37 117.538C140.371 117.536 140.373 117.536 140.373 117.538C140.375 117.545 140.377 117.553 140.38 117.56C140.391 117.586 140.404 117.612 140.416 117.637C140.422 117.652 140.422 117.668 140.415 117.682C140.759 118.856 141.017 119.739 141.061 119.878C141.758 121.995 141.826 121.926 141.771 121.399C141.748 121.175 141.999 121.105 142.093 121.31C142.101 121.23 142.209 121.216 142.237 121.291C142.293 121.439 142.353 121.603 142.419 121.785C142.43 121.814 142.433 121.846 142.43 121.877C142.425 121.924 142.42 121.97 142.414 122.015C142.546 122.304 142.677 122.589 142.805 122.87C143.056 123.593 143.362 124.486 143.726 125.585C143.74 125.628 143.798 125.826 143.892 126.136C143.17 124.449 142.522 122.943 142.415 122.753C140.913 119.803 146.797 134.6 146.9 136.624C146.953 138.218 143.48 129.134 143.04 127.614C142.839 126.971 142.645 126.348 142.457 125.745C142.447 125.711 142.437 125.677 142.426 125.642C142.432 125.662 142.437 125.681 142.442 125.699C142.354 125.417 141.943 125.45 141.893 125.741C141.554 127.731 141.615 126.348 141.825 124.012C141.839 123.865 141.823 123.715 141.779 123.573C141.146 121.544 140.6 119.787 140.136 118.286C137.638 123.666 135.853 127.447 136.296 125.935C136.473 125.513 138.329 121.733 140.074 118.147C140.081 118.132 140.083 118.114 140.078 118.098C140.06 118.041 139.981 118.035 139.954 118.088C139.028 119.91 138.576 120.799 139.797 118.381C139.943 118.093 139.972 117.757 139.877 117.449C139.837 117.317 139.797 117.188 139.758 117.061C139.672 116.785 139.421 116.593 139.132 116.583C132.801 134.93 126.08 154.446 119.483 173.509C117.811 178.331 119.642 173.148 115.604 184.802C114.692 187.409 111.754 188.711 109.349 187.354C92.9482 178.098 78.1957 157.594 76.4057 141.963C74.148 124.926 74.6132 113.367 85.651 95.4236C81.6761 94.3022 78.9318 93.4851 81.7399 94.1594C81.8733 94.1919 83.559 94.6603 85.7466 95.2688C86.598 93.8895 87.5105 92.4711 88.4902 91.0109C96.3721 81.5344 108.98 74.1939 118.348 72.2114C120.163 71.7897 121.872 71.6471 123.477 71.6914C125.54 71.7483 127.222 73.2417 127.933 75.1788C129.82 80.3163 129.448 79.1512 127.109 72.483C127.046 72.3047 127.199 72.122 127.383 72.1617C127.468 72.1799 127.537 72.2427 127.564 72.3251C128.478 75.0674 128.914 76.32 128.423 74.534C128.14 73.5005 129.029 72.5393 130.053 72.8543C134.952 74.361 138.432 76.5573 140.621 74.5233C141.1 74.1314 141.275 66.3768 141.403 65.7439C143.66 56.0873 142.034 71.6664 142.617 73.8034C142.691 74.0802 142.765 74.349 142.836 74.61C143.476 66.3574 143.909 61.1423 143.692 65.5015C143.64 66.4888 143.376 70.3863 143.038 75.3514C143.388 76.6062 143.708 77.6598 144.007 78.5306C144.021 78.2642 144.034 77.9977 144.048 77.7312C144.04 78.0273 144.032 78.3113 144.025 78.5815C144.028 78.5924 144.03 78.6039 144.029 78.6154C144.024 78.711 144.02 78.8064 144.015 78.9018C143.969 80.5019 143.939 81.5517 143.936 81.6803C143.932 81.7741 143.929 81.8638 143.926 81.9496C143.881 83.243 147.066 81.6855 147.844 80.6511C148.657 79.5147 151.793 64.4296 150.307 72.9654C150.198 73.5401 148.066 81.4936 147.977 82.3769C147.763 84.3589 148.58 83.0564 148.572 83.7323C148.537 84.7449 148.875 85.6674 148.737 86.6711C148.591 87.7261 148.422 88.7718 148.9 87.7452C149.065 87.403 151.187 80.9827 152.042 78.6634C152.063 75.8931 150.777 77.873 150.874 73.7902C150.921 70.5179 154.546 49.4566 153.574 49.9566C150.024 51.6095 147.036 81.2929 147.105 55.384C147.057 52.4692 147.53 44.6169 147.559 40.5153C147.56 40.2849 146.674 39.5213 146.445 39.497C146.34 39.4858 146.187 39.3821 146.195 39.277C146.276 38.0918 146.337 37.2216 146.341 37.1131C146.376 36.2347 146.202 38.1529 146.07 39.3802C146.066 39.4149 146.034 39.4389 146 39.433C145.969 39.4278 145.947 39.4042 145.949 39.3735C146.058 36.7579 146.652 27.3881 146.732 24.9498C145.998 34.4007 145.677 37.9179 145.517 39.1754C145.517 39.2228 145.516 39.2718 145.516 39.3224C145.516 39.3331 145.506 39.3406 145.496 39.3385C145.337 40.4835 145.353 39.1603 145.208 40.0944C145.109 40.7291 144.707 46.1172 144.538 47.8726C144.102 52.358 144.639 45.2357 145.069 39.4771C145.079 39.4019 145.089 39.3282 145.098 39.2559C145.091 39.2545 145.087 39.2486 145.087 39.2416C145.272 36.7608 145.434 34.5699 145.485 33.728C145.784 28.7982 145.445 32.7189 144.932 38.975C144.922 39.1025 144.801 39.194 144.676 39.1687C144.573 39.1479 144.502 39.0541 144.509 38.9493C144.535 38.5602 144.554 38.2946 144.561 38.1789C144.764 34.7355 144.718 35.1635 144.574 37.0452C144.491 38.1387 143.45 38.6788 142.37 38.8681C142.517 39.8936 142.701 41.7813 142.912 44.7965C142.945 45.0326 142.993 45.9229 143.055 47.0988C142.874 49.5974 142.655 52.6512 142.629 52.9212C142.54 53.7964 142.402 54.7529 141.688 55.2667C138.75 57.3811 128.994 55.8399 123.234 56.0895C123.451 56.7892 123.549 57.1283 123.388 56.6425C123.36 56.5511 123.306 56.3582 123.228 56.0895C122.986 56.1 122.767 55.9441 122.699 55.7123C122.547 55.1927 122.417 54.7428 122.317 54.3797C120.531 47.6834 122.336 53.2191 123.132 55.7619C122.471 53.4792 120.845 47.7827 120.645 47.1098C120.003 44.9571 121.627 50.9514 120.606 47.9347C120.508 47.6443 118.171 39.309 118.09 39.2173C117.398 38.3717 118.273 43.8894 117.105 44.4164C116.933 44.4924 116.517 44.1158 116.004 43.6183C116.432 44.6115 116.793 45.4843 117.038 46.1239C121.348 56.8179 118.482 50.8415 118.843 51.915C119.425 53.5391 119.926 54.9165 120.357 56.0865C120.43 56.2835 120.233 56.5273 120.038 56.6056C119.672 56.7527 118.488 56.4185 118.363 56.0446C117.284 52.8391 114.94 46.8061 113.091 41.6858C113.022 41.7276 112.96 41.7891 112.909 41.8759C111.545 44.0784 113.793 56.7444 110.403 55.0058C108.071 53.9719 104.458 46.1027 100.889 41.3071C93.6681 32.1526 100.246 52.1048 101.807 54.9098C105.565 57.5229 107.561 63.3049 104.959 59.5398C103.472 57.3886 101.837 54.9117 101.807 54.9098C102.632 56.7717 100.13 60.903 98.2779 60.3177C97.2861 59.9493 92.4422 53.323 91.9893 53.2796C83.8536 52.5318 75.3305 57.5862 70.7268 66.0549C67.681 71.6576 75.6041 73.2969 76.145 79.651C76.7642 85.0412 68.9084 85.3106 63.6329 84.0432C62.3368 83.7318 61.0707 83.4368 59.9326 83.1939C55.1999 82.1839 54.9024 82.5774 60.7486 84.7648C62.0965 85.2691 77.3165 91.468 78.6666 91.9664C81.8992 93.1542 71.1268 90.0852 66.8368 88.8711C70.211 90.4591 72.9271 91.7409 74.8347 92.7355C75.905 93.3 70.591 90.8645 65.3501 88.455C65.2415 88.4252 65.1752 88.4051 65.1566 88.4015C54.0563 86.1708 63.7227 89.5113 65.0485 90.7012C65.7025 91.2889 63.0103 91.3695 61.0172 91.3034C59.4121 91.2472 63.4225 92.4366 60.7577 92.0857C60.4015 92.0403 52.6976 90.1167 52.3977 90.0563C43.0826 88.1615 61.9843 92.5707 65.339 93.4525C77.5362 96.6485 84.0478 98.2885 78.1966 97.2648C77.3227 97.1014 65.3532 94.4498 56.7153 92.5871C57.1033 92.7967 57.3387 92.9744 57.3459 93.1038C57.3743 94.4031 62.8509 97.8634 56.1272 97.3967C55.0723 97.319 50.4931 96.0127 47.7735 95.4127C46.9613 95.2336 46.4351 94.2123 46.7817 93.4563C44.1048 92.8993 41.0612 92.2657 40.9081 92.3198C39.6269 92.7789 39.8262 93.6421 44.2072 95.1633C44.46 95.2497 45.0067 95.3763 45.7235 95.5272C45.774 95.4339 45.8996 95.41 45.9874 95.4697C46.0614 95.52 46.1517 95.5763 46.2592 95.6393C48.7498 96.1458 52.6413 96.8378 54.0745 97.1352C66.0786 99.6009 48.7145 96.6285 48.1549 96.5921C48.4428 96.7252 48.7595 96.8686 49.1063 97.0232C51.181 97.9697 69.3027 102.952 53.3223 99.7442C52.7402 99.5759 51.1862 99.324 49.2739 99.086C50.0317 99.5882 49.9481 99.9646 47.45 99.9684C47.3418 99.9614 46.1785 99.8266 44.6878 99.6603C44.169 99.6025 43.863 99.0509 44.0981 98.5848C41.1521 98.3907 38.5108 98.4025 37.9009 98.9148C37.8274 98.9765 37.7076 99.0027 37.6297 99.0587C37.5315 99.1292 37.7624 99.2363 37.819 99.3431C37.9764 99.6395 38.5085 100.023 39.521 100.513C40.3438 100.91 41.5516 101.499 42.4401 101.713C42.5024 101.735 42.5664 101.759 42.633 101.782C42.6377 101.771 42.65 101.765 42.6619 101.767C43.4957 101.961 44.7028 102.205 46.4155 102.515C49.3712 103.07 66.0007 105.536 52.6652 104.174C52.4628 104.142 50.8603 103.974 48.698 103.755C50.093 104.203 51.5246 104.667 52.837 105.109C58.4334 105.828 62.8331 106.456 56.3664 105.956C55.9545 105.926 55.4481 105.875 54.8766 105.812C57.2767 106.67 58.7514 107.333 57.8096 107.438C57.4062 107.487 49.2727 105.287 48.3114 105.902C46.5302 107.132 45.8293 108.745 45.0714 110.548C45.2801 110.625 45.5128 110.706 45.7725 110.788C47.5385 111.351 59.4713 111.813 62.6442 112.399C65.8154 112.984 68.8541 113.919 63.3847 114.285C59.6876 114.564 49.8149 114.088 43.3195 114.079C43.0645 114.474 42.779 114.873 42.4529 115.272C42.2344 115.548 41.4527 115.574 40.4094 115.499C39.7383 115.45 39.2595 114.834 39.359 114.169C38.3194 114.238 37.6076 114.35 37.356 114.524C36.9155 114.869 36.3703 115.071 35.8126 115.027C34.0528 114.888 32.5414 114.925 32.1797 115.579C29.5891 120.262 31.7877 127.654 35.1602 133.363C36.4164 135.471 43.4071 133.1 44.2078 133.192C57.1288 133.9 40.2902 137.577 39.4621 138.755C34.4962 145.415 43.5173 148.15 43.1891 153.84C43.1532 155.481 35.0483 157.178 34.4582 157.717C28.9261 163.49 41.8959 155.976 44.1357 157.32C50.4669 160.988 52.4564 166.434 54.4761 171.69C55.2031 173.602 45.912 176.738 46.7431 178.508C51.8293 189.533 60.5305 197.15 70.2867 198.387C72.1001 198.577 75.9976 192.267 77.2914 191.159C86.005 183.132 78.2166 197.296 77.9865 199.01C76.3897 206.437 81.0383 201.71 82.2309 203.904C84.224 207.354 86.7411 209.747 89.4405 211.364C91.7131 212.725 94.2457 212.023 96.1155 210.146C98.7802 207.574 102.764 201.683 104.265 204.227C104.371 204.382 100.664 213.435 100.718 213.69C101.532 216.183 104.107 217.58 103.236 220.054C102.615 221.817 102.142 223.152 102.002 223.533C101.06 226.105 102.169 223.389 103.667 219.655C103.782 219.369 103.981 218.835 104.223 218.176C104.739 216.768 106.387 216.111 107.131 217.413C107.32 217.698 104.134 226.417 104.371 227.18C104.836 228.807 106.285 228.719 108.166 226.176C109.068 224.949 110.561 217.103 111.396 216.014C113.353 213.465 114.739 213.149 115.826 214.937C116.296 215.72 113.14 224.719 113.98 225.03C119.606 227.202 128.977 231.082 144.724 217.861C145.5 217.233 145.329 208.429 145.872 203.681C146.17 201.082 147.601 202.281 147.97 204.87C149.07 212.586 155.496 218.584 162.992 216.452C179.335 211.802 201.07 198.711 212.314 178.823C227.804 153.938 228.017 138.559 226.782 119.792C225.05 101.891 216.1 78.3112 196.397 61.444C192.08 57.8711 206.471 56.4153 197.425 49.2181C191.727 44.9361 185.807 41.4704 180.07 38.7603C175.298 36.5063 170.904 37.4149 168.877 42.2872C168.494 43.208 162.393 60.1027 163.195 57.503C163.342 57.0287 163.967 54.7064 165.242 51.0204C165.436 50.463 168.322 42.5964 168.343 42.3389C168.403 41.0061 167.342 42.6581 165.196 47.3321C164.844 48.1021 161.912 56.5342 161.636 57.1581C159.716 61.5059 161.589 54.9669 158.479 62.4684C157.19 65.5879 154.797 72.3486 151.948 80.4314C151.942 80.4494 151.915 80.4438 151.917 80.4249C151.591 81.3798 151.142 82.6493 150.686 83.926C150.736 83.8125 150.786 83.6977 150.837 83.5827C150.461 84.6505 150.078 85.7349 149.691 86.8312C149.645 86.9602 149.587 87.0846 149.513 87.1995C149.237 87.9664 149.014 88.5836 148.894 88.9266C147.451 92.9705 147.183 93.7954 147.474 93.0888C147.077 94.2037 146.681 95.3222 146.281 96.4381C145.753 97.9234 145.471 98.4619 144.21 101.966C144.194 102.686 144.171 103.438 144.128 104.37C144.096 104.961 143.896 107.561 143.724 109.773C144.476 106.047 145.269 101.624 145.831 99.4438C145.862 99.3335 145.895 99.2271 145.926 99.1232C145.751 99.6153 145.565 100.142 145.364 100.703C145.224 101.096 145.004 101.45 145.138 101.058C147.858 93.2071 148.627 91.4027 146.798 96.643C147.296 95.5854 147.978 96.3074 147.64 97.4265C146.889 99.9141 145.462 104.277 145.438 104.416C144.843 106.363 147.619 99.4358 143.702 110.057C143.698 110.115 143.693 110.172 143.689 110.23C157.303 74.6013 140.643 118.355 143.81 110.023C144.077 109.325 152.668 89.2594 153.695 86.2134C154.684 83.1572 151.869 89.3775 153.365 84.6025C154.472 81.7493 157.738 80.8265 158.645 83.7493C159.149 85.3731 159.437 87.3839 159.399 89.8329C159.337 90.6614 153.416 97.0651 152.962 98.2441C151.404 104.865 141.826 113.243 157.423 104.707C163.638 101.305 170.664 105.819 165.11 110.218C162.431 112.237 157.501 113.838 155.62 114.656C156.021 114.787 156.424 114.916 156.826 115.047C159.131 114.379 164.752 112.252 165.483 112.527C166.169 112.826 166.545 113.568 166.417 114.305C166.057 116.367 164.625 117.083 160.945 117.289C159.877 117.349 158.805 117.247 157.753 117.056C157.21 116.957 156.563 116.841 155.8 116.704C155.032 116.565 153.256 116.254 151.398 115.925C151.517 115.986 151.636 116.047 151.753 116.107C153.331 116.372 155.765 116.782 157.6 117.089C157.771 117.118 157.753 117.36 157.579 117.36C157.571 117.36 157.563 117.359 157.556 117.358C156.045 117.113 154.323 116.83 152.595 116.548C152.728 116.618 152.859 116.688 152.989 116.756C153.813 116.881 154.589 116.998 155.3 117.104C155.451 117.127 155.434 117.345 155.281 117.344C154.731 117.266 154.197 117.193 153.677 117.12C153.746 117.157 153.717 117.261 153.639 117.257C153.435 117.245 153.215 117.232 152.983 117.219C153.33 117.259 153.68 117.299 154.032 117.34C154.077 117.345 154.121 117.358 154.161 117.38C154.376 117.396 154.594 117.413 154.815 117.43C155.462 117.505 156.112 117.579 156.757 117.654C156.344 117.619 155.96 117.587 155.612 117.557C155.164 117.508 154.693 117.457 154.204 117.404C154.217 117.411 154.211 117.431 154.196 117.43C153.959 117.408 153.788 117.393 153.694 117.382C153.487 117.364 153.269 117.345 153.042 117.325C153.854 117.402 154.644 117.639 155.355 118.039C158.687 119.91 159.99 121.015 157.531 120.819C157.455 120.812 157.379 120.798 157.312 120.763C156.681 120.437 153.582 118.491 151.411 117.245C151.379 117.226 151.395 117.177 151.433 117.18C151.379 117.175 151.326 117.17 151.272 117.165C151.271 117.165 151.271 117.165 151.27 117.164C151.266 117.162 151.268 117.156 151.273 117.156C151.452 117.173 151.63 117.191 151.809 117.208C152.389 117.25 152.999 117.294 153.635 117.341C153.101 117.283 152.549 117.224 151.988 117.162C151.76 117.149 151.527 117.135 151.291 117.121C151.221 117.117 151.154 117.096 151.093 117.062C148.268 116.749 145.295 116.412 143.057 116.154C143.049 116.228 143.042 116.305 143.033 116.383C145.306 116.594 147.797 116.828 150.307 117.065C150.167 117.057 150.027 117.048 149.888 117.04C149.322 116.989 148.735 116.937 148.135 116.883C148.095 116.879 147.509 116.816 147.469 116.815C147.43 116.814 147.39 116.814 147.352 116.813C145.93 116.685 144.455 116.552 143.028 116.424C143.019 116.506 143.01 116.589 143.001 116.675C131.261 116.148 132.045 116.401 142.998 116.703C142.99 116.774 142.893 116.785 142.869 116.718C142.867 116.712 142.865 116.706 142.862 116.699C142.796 116.697 142.729 116.696 142.663 116.694C142.653 116.694 142.645 116.684 142.646 116.674C142.647 116.665 142.655 116.658 142.664 116.659C142.726 116.661 142.789 116.664 142.851 116.667C142.819 116.577 142.788 116.487 142.756 116.399C142.74 116.398 142.725 116.396 142.709 116.395C142.697 116.393 142.688 116.382 142.69 116.37C142.691 116.359 142.701 116.352 142.712 116.353C142.722 116.354 142.731 116.355 142.741 116.356C142.718 116.292 142.712 116.223 142.723 116.156C142.725 116.142 142.727 116.129 142.729 116.115C142.711 116.113 142.693 116.111 142.674 116.109C142.661 116.107 142.649 116.098 142.644 116.085C142.635 116.059 142.656 116.033 142.683 116.036C142.702 116.038 142.722 116.04 142.742 116.042C142.769 115.874 142.792 115.727 142.816 115.606C142.708 115.591 142.599 115.576 142.49 115.56C142.47 115.558 142.453 115.543 142.446 115.524C142.432 115.485 142.464 115.445 142.505 115.451C142.615 115.466 142.725 115.481 142.834 115.496C142.842 115.44 142.851 115.384 142.86 115.329C142.702 115.305 142.542 115.281 142.379 115.257C142.361 115.254 142.345 115.241 142.339 115.223C142.326 115.187 142.357 115.151 142.395 115.156C142.554 115.181 142.714 115.205 142.874 115.229C142.891 115.123 142.907 115.019 142.923 114.917C142.84 114.9 142.769 114.887 142.71 114.874C142.582 114.848 142.678 114.862 142.925 114.899C142.928 114.879 142.931 114.859 142.934 114.839C142.828 114.803 142.724 114.766 142.621 114.728C142.454 114.666 142.337 114.558 142.277 114.391C142.227 114.252 142.219 114.072 142.272 113.934C142.279 113.916 142.286 113.898 142.293 113.879C142.291 113.879 142.288 113.878 142.286 113.878C142.277 113.901 142.268 113.925 142.26 113.949C142.214 114.074 142.213 114.213 142.258 114.339C142.589 115.277 142.48 115.03 142.244 114.454C142.212 114.376 142.101 114.377 142.072 114.457C142.076 114.446 142.08 114.436 142.083 114.426C142.109 114.359 142.209 114.368 142.237 114.435C142.265 114.501 142.195 114.556 142.129 114.527C142.126 114.526 142.123 114.524 142.119 114.523C142.098 114.513 142.082 114.496 142.074 114.474C142.064 114.445 142.054 114.417 142.044 114.389C142.028 114.343 141.965 114.34 141.945 114.384C141.941 114.393 141.936 114.403 141.932 114.412C141.927 114.424 141.913 114.429 141.901 114.423C141.889 114.417 141.884 114.403 141.89 114.392C141.92 114.329 141.95 114.266 141.979 114.204C141.978 114.201 141.977 114.197 141.975 114.193C141.973 114.188 141.974 114.182 141.977 114.176C141.986 114.158 141.995 114.14 142.005 114.121C142.008 114.115 142.018 114.118 142.018 114.124C142.025 114.109 142.033 114.094 142.04 114.079C142.041 114.07 142.043 114.061 142.044 114.051C142.044 114.049 142.045 114.047 142.046 114.045C142.052 114.032 142.07 114.033 142.076 114.046C142.439 114.94 142.703 115.582 142.139 114.004C142.12 113.952 142.124 113.893 142.149 113.844C142.137 113.841 142.125 113.836 142.114 113.833C142.106 113.849 142.083 113.848 142.077 113.831C142.076 113.828 142.075 113.825 142.074 113.822C142.07 113.821 142.067 113.817 142.068 113.813C142.068 113.811 142.068 113.809 142.068 113.807C142.055 113.771 142.042 113.734 142.029 113.696C142.028 113.716 142.027 113.735 142.027 113.753C142.026 113.781 142 113.801 141.973 113.793C141.983 113.816 141.992 113.84 142.001 113.863C142.015 113.896 142.021 113.931 142.02 113.966C142.019 113.981 142.019 113.996 142.019 114.011C142.018 114.018 142.017 114.026 142.013 114.033C141.992 114.074 141.933 114.07 141.917 114.027C141.882 113.928 141.849 113.835 141.819 113.747C141.334 113.592 141.513 113.552 141.66 113.545C141.672 113.545 141.704 113.551 141.753 113.558C140.182 109.035 144.351 120.039 141.346 111.812C141.171 111.769 140.996 111.727 140.821 111.684C140.74 111.919 140.659 112.155 140.578 112.39C140.413 112.869 139.844 113.053 139.474 112.707C139.303 112.548 139.207 112.298 139.239 112.067C139.273 111.826 139.307 111.577 139.341 111.321C139.173 111.28 139.006 111.239 138.84 111.198C138.819 111.48 138.8 111.742 138.783 111.975C138.781 111.995 138.757 112.004 138.743 111.989C138.244 110.31 138.035 109.638 138.662 111.905C138.443 111.676 138.217 111.43 137.98 111.167C138.008 111.234 138.113 111.546 138.283 112.079C138.426 112.31 138.569 112.543 138.715 112.779C138.72 112.788 138.722 112.8 138.721 112.81C138.718 112.856 138.657 112.868 138.633 112.829C138.558 112.704 138.484 112.581 138.41 112.458ZM145.517 39.1754C145.519 38.8098 145.517 38.5431 145.509 38.399C145.446 37.0233 145.282 37.8305 145.098 39.2559C145.232 39.2845 145.365 39.3124 145.496 39.3385C145.503 39.2889 145.509 39.2347 145.517 39.1754ZM142.37 38.8681C142.316 38.8775 141.999 38.6951 142.001 38.6408C142.052 37.6577 142.18 37.5428 142.37 38.8681ZM116.004 43.6183C113.646 38.1458 109.242 29.0294 110.94 35.2655C111.401 36.8958 112.187 39.1817 113.091 41.6858C113.724 41.3027 115.035 42.6785 116.004 43.6183ZM143.939 45.506C143.952 44.4196 143.965 43.5886 143.981 43.4035C144.025 42.9388 144.135 42.9591 144.1 43.4244C144.042 44.187 143.988 44.9008 143.939 45.506ZM143.867 52.0151C143.882 51.3144 143.898 49.6131 143.913 47.9029C144.033 46.123 144.146 44.3986 144.245 42.9059C144.255 42.7607 144.438 42.9214 144.471 43.063C144.501 43.189 144.558 43.5555 144.547 43.6845C144.321 46.4709 144.084 49.3851 143.867 52.0151ZM143.15 50.9023C143.119 52.0198 143.251 50.8187 143.192 49.7023C143.172 50.1877 143.159 50.5844 143.15 50.9023ZM121.556 56.2325C121.347 56.2624 121.154 56.133 121.088 55.9331C116.94 43.5071 117.302 42.6377 121.921 55.6461C122.014 55.9056 121.828 56.1935 121.556 56.2325ZM145.394 52.2047C145.48 50.974 145.436 51.7102 145.326 53.4799C145.349 53.0547 145.371 52.6296 145.394 52.2047ZM143.031 61.0876C143.029 61.0742 143.192 58.6409 143.413 55.3627C143.419 55.2686 143.572 55.2691 143.586 55.3623C143.587 55.3684 143.587 55.3716 143.586 55.3777C143.286 58.9276 143.065 61.344 143.031 61.0876ZM144.51 65.2507C144.655 63.0517 144.807 60.7505 144.955 58.5823C144.973 59.0358 145.224 54.0439 145.04 58.0571C144.847 61.095 144.617 64.6517 144.437 67.4344C144.462 66.695 144.487 65.9642 144.51 65.2507ZM123.234 56.0895C123.202 55.9875 123.169 55.8777 123.132 55.7619C123.167 55.8808 123.199 55.9903 123.228 56.0895C123.23 56.0894 123.232 56.0896 123.234 56.0895ZM144.17 71.5471C143.559 80.2395 143.847 75.4437 144.33 68.0247C144.311 68.6697 144.292 69.3197 144.273 69.9674C144.23 70.627 144.196 71.1671 144.17 71.5471ZM144.147 75.8623C144.283 73.2782 144.417 70.6905 144.553 68.102C144.407 71.0662 144.252 74.1678 144.1 77.2086C144.115 76.7735 144.131 76.3238 144.147 75.8623ZM142.331 107.311C142.534 103.263 142.762 98.8914 142.77 98.6562C143.056 88.5907 141.771 103.096 141.869 96.0364C140.136 117.598 141.965 91.1019 143.038 75.3514C142.971 75.1118 142.905 74.8644 142.836 74.61C141.967 85.8112 140.714 102.608 140.19 108.657C140.225 108.753 140.262 108.85 140.298 108.947C140.382 109.176 140.462 109.397 140.54 109.611C140.835 109.71 141.133 109.809 141.434 109.91C141.734 109.041 142.033 108.174 142.331 107.311ZM151.917 80.4249C152.063 79.9987 152.185 79.6352 152.272 79.3616C152.877 77.4653 152.857 76.6997 152.289 78.0206C152.229 78.1632 152.145 78.3838 152.042 78.6634C152.038 79.1112 152.001 79.6831 151.917 80.4249ZM151.616 85.9568C147.067 99.447 149.267 91.5504 150.768 85.8223C150.663 86.1004 150.656 86.0968 150.765 85.8202C150.768 85.8116 150.771 85.803 150.775 85.7943C150.915 85.2595 151.05 84.7442 151.171 84.2672C151.074 84.4393 150.829 84.3252 150.903 84.1418C150.943 84.0432 150.969 83.9809 150.98 83.961C151.207 83.4503 151.398 83.0311 151.556 82.6913C151.683 82.1457 151.763 81.7527 151.77 81.5845C151.784 81.4866 151.81 81.3908 151.85 81.3004C152.578 79.6582 153.168 78.3237 153.171 78.2796C153.178 78.1745 153.271 78.0902 153.374 78.11C153.499 78.1339 153.624 78.1629 153.75 78.1969C154.002 78.2655 154.13 78.5386 154.045 78.7861C152.768 82.5029 151.773 85.4611 151.616 85.9568ZM143.635 86.278C143.756 83.973 143.886 81.4732 144.015 78.9018C144.018 78.7973 144.021 78.6905 144.025 78.5815C144.019 78.5646 144.013 78.5476 144.007 78.5306C143.88 80.9536 143.754 83.3728 143.628 85.7861C143.63 85.9481 143.633 86.1121 143.635 86.278ZM143.628 85.7861C143.583 82.8666 143.518 80.6122 143.427 79.9215C143.477 82.6879 143.522 85.0574 143.559 87.1006C143.582 86.6627 143.605 86.2245 143.628 85.7861ZM151.171 84.2672C151.299 84.0414 151.397 83.8719 151.454 83.7961C151.503 83.7324 151.506 83.7696 151.479 83.8753C152.146 81.9912 152.709 80.2129 151.556 82.6913C151.455 83.1305 151.324 83.6688 151.171 84.2672ZM146.923 84.4599C145.818 91.885 145.266 98.8358 146.244 92.8816C147.627 85.4975 147.95 78.5028 146.923 84.4599ZM150.84 85.6312C151.096 84.9761 151.405 84.1663 151.479 83.8753C151.258 84.4995 151.025 85.135 150.84 85.6312ZM149.101 87.5281C149.09 87.7776 149.259 87.5938 149.513 87.1995C149.852 86.2571 150.271 85.0882 150.686 83.926C149.842 85.8264 149.106 87.4843 149.101 87.5281ZM150.84 85.6312C150.818 85.687 150.796 85.7412 150.775 85.7943C150.772 85.8036 150.771 85.813 150.768 85.8223C150.791 85.7614 150.815 85.6975 150.84 85.6312ZM143.695 94.247C143.688 91.5042 143.67 88.6907 143.635 86.278C143.612 86.7231 143.591 87.161 143.568 87.5907C143.619 90.3673 143.659 92.5214 143.695 94.247ZM143.143 95.076C143.265 93.1763 143.409 90.5811 143.568 87.5907C143.565 87.4295 143.562 87.2661 143.559 87.1006C143.42 89.7677 143.281 92.4271 143.143 95.076ZM134.255 93.2846C134.241 93.3082 134.142 93.3146 134.132 93.2893C132.312 88.771 132.715 89.5167 134.255 93.2846ZM138.909 105.212C139.153 101.309 139.702 93.2737 139.713 93.0448C139.717 92.9736 139.46 92.854 139.394 92.8822C138.232 93.3816 134.667 92.5822 134.255 93.2846C135.358 95.9838 137.041 100.235 138.909 105.212ZM150.787 115.306C152.591 115.646 152.83 115.127 151.065 114.62C149.109 114.059 147.978 113.671 149.875 113.954C150.052 113.984 152.284 114.519 154.505 115.055C154.738 115.111 154.937 115.216 155.175 115.238C155.228 115.243 155.33 115.254 155.382 115.266C157.306 115.73 159.008 116.142 159.075 116.157C160.23 116.418 158.714 116.046 155.855 115.35C155.801 115.337 155.809 115.249 155.864 115.247C155.869 115.247 155.874 115.248 155.878 115.249C156.316 115.358 156.629 115.436 156.753 115.466C163.53 117.146 160.165 116.288 156.256 115.294C156.21 115.283 156.211 115.207 156.257 115.197C156.263 115.195 156.272 115.195 156.278 115.197C160.409 116.235 159.127 115.831 156.792 115.134C156.755 115.122 156.754 115.068 156.792 115.057C156.409 114.929 156.014 114.797 155.607 114.661C155.504 114.706 155.387 114.713 155.279 114.681C153.454 114.137 151.543 113.564 151.088 113.369C149.787 112.89 150.939 113.225 148.71 112.478C146.18 111.612 149.99 112.824 154.528 114.3C148.865 112.404 146.226 105.913 148.907 100.578C150.382 97.6414 151.486 95.4052 151.578 95.1294C151.584 95.1106 151.577 95.1112 151.568 95.1291C151.563 95.1408 151.556 95.149 151.545 95.1564C150.728 95.7172 147.167 103.172 143.684 110.644C143.679 110.655 143.667 110.659 143.655 110.655C143.654 110.672 143.653 110.689 143.651 110.706C143.651 110.712 143.649 110.718 143.647 110.723C143.623 110.775 143.544 110.749 143.55 110.692C143.604 110.201 143.169 112.855 143.556 110.622C143.548 110.619 143.543 110.61 143.546 110.602C143.555 110.58 143.563 110.558 143.572 110.536C143.576 110.509 143.582 110.481 143.587 110.453C143.599 110.392 143.611 110.33 143.624 110.268C143.555 110.455 143.349 110.552 143.16 110.489C143.055 110.454 142.951 110.419 142.846 110.384C142.541 110.282 142.343 109.987 142.364 109.666C142.448 108.397 142.527 107.204 142.573 106.612C142.52 106.766 142.465 106.922 142.41 107.082C142.384 107.158 142.357 107.235 142.331 107.311C142.296 108.014 142.262 108.707 142.23 109.366C142.21 109.766 141.814 110.038 141.434 109.91C141.339 110.184 141.245 110.459 141.15 110.733C141.386 110.853 141.621 110.971 141.856 111.089C142.028 111.176 142.133 111.356 142.124 111.548C142.161 111.558 142.197 111.568 142.234 111.577C142.243 111.441 142.389 111.358 142.512 111.42C142.679 111.504 142.846 111.588 143.012 111.672C143.056 111.694 143.076 111.746 143.059 111.791C143.069 111.794 143.078 111.796 143.088 111.798C143.091 111.79 143.095 111.781 143.098 111.773C143.108 111.747 143.138 111.736 143.163 111.748C143.185 111.705 143.205 111.667 143.223 111.633C143.212 111.656 143.202 111.678 143.192 111.7C143.184 111.716 143.175 111.733 143.166 111.751C143.167 111.751 143.167 111.752 143.167 111.752C143.158 111.772 143.149 111.792 143.14 111.812C143.157 111.817 143.175 111.821 143.192 111.825C143.206 111.798 143.239 111.787 143.266 111.801C143.306 111.821 143.346 111.841 143.386 111.861C143.419 111.635 143.448 111.446 143.471 111.29C143.472 111.282 143.474 111.275 143.478 111.269C143.511 111.203 143.61 111.231 143.605 111.304C143.588 111.524 143.572 111.731 143.558 111.92C148.72 113.261 153.483 114.497 154.998 114.874C155.038 114.883 155.042 114.939 155.008 114.962C154.997 114.969 154.986 114.97 154.973 114.967C153.323 114.547 151.762 114.151 151.009 113.956C140.95 111.369 152.849 114.368 146.13 112.625C145.329 112.416 144.48 112.199 143.609 111.974C144.048 112.195 144.484 112.415 144.915 112.632C147.756 113.309 147.136 113.128 148.278 113.371C148.954 113.516 152.559 114.418 154.862 114.995C154.894 115.003 154.894 115.05 154.877 115.077C154.864 115.097 154.845 115.104 154.822 115.098C152.166 114.452 148.665 113.598 145.113 112.732C146.769 113.566 148.356 114.367 149.827 115.117C150.335 115.218 150.686 115.287 150.787 115.306ZM143.658 103.515C143.861 102.941 144.043 102.428 144.21 101.966C144.225 101.297 144.235 100.655 144.249 99.922C144.25 99.8902 144.093 99.7249 144.062 99.7183C144.03 99.7115 143.833 99.5145 143.832 99.4823C143.785 98.2185 143.745 96.6474 143.695 94.247C143.703 97.795 143.691 101.225 143.658 103.515ZM66.8368 88.8711C62.807 86.9746 57.8375 84.6416 52.1808 81.8451C41.7508 76.5977 42.8249 78.4403 42.3958 83.6135C44.1037 84.2375 46.1244 85.0095 46.3832 84.8926C47.3797 84.4165 44.0506 82.0406 45.7476 82.0572C46.2203 82.0591 54.3051 85.9401 54.9625 86.0089C58.0896 86.3908 49.4721 81.6833 56.0985 84.222C56.4012 84.3348 60.8488 86.3855 65.3501 88.455C65.6181 88.5284 66.1429 88.6747 66.8368 88.8711ZM136.725 109.594C136.607 109.407 136.491 109.223 136.375 109.041C136.465 109.163 136.551 109.282 136.635 109.396C136.44 108.971 136.245 108.546 136.051 108.123C136.051 108.122 136.05 108.121 136.049 108.121C136.026 108.108 136.001 108.096 135.978 108.083C136.054 108.259 136.072 108.299 135.963 108.075C135.962 108.074 135.962 108.074 135.962 108.074C135.961 108.074 135.961 108.073 135.962 108.073C135.935 108.018 135.899 107.947 135.856 107.857C132.736 101.618 128.3 92.7658 127.92 93.0591C127.397 93.4461 130.295 98.7586 135.688 107.881C135.7 107.9 135.679 107.922 135.66 107.912C135.657 107.91 135.654 107.908 135.652 107.904C132.128 102.409 130.14 99.7325 131.701 102.599C132.543 103.934 131.079 105.748 129.611 105.165C125.06 103.356 120.512 102.015 119.606 102.266C119.524 102.289 119.487 102.346 119.566 102.381C120.834 102.926 125.16 104.295 128.617 105.511C132.078 106.716 125.565 104.554 131.877 106.702C132.484 106.906 133.304 107.181 134.286 107.511C135.121 107.791 135.848 108.324 136.37 109.034C136.513 109.276 136.659 109.519 136.806 109.766C136.779 109.708 136.752 109.651 136.725 109.594ZM145.926 99.1232C146.264 98.1693 146.554 97.3431 146.798 96.643C146.558 97.1529 146.273 97.9336 145.926 99.1232ZM42.2022 85.2862C42.2902 84.6968 42.3522 84.1382 42.3958 83.6135C41.0007 83.1037 39.8144 82.6923 39.9658 82.9467C40.3084 83.5648 40.9961 84.3213 42.2022 85.2862ZM143.303 104.52C143.361 104.355 143.418 104.194 143.473 104.037C143.47 102.491 143.47 100.963 143.448 101.127C143.414 101.308 143.361 102.835 143.303 104.52ZM46.7817 93.4563C49.4749 94.0167 50.1368 93.3021 47.88 91.7291C47.621 91.5485 47.3966 91.3753 47.235 91.2158C47.009 91.0025 53.0311 92.371 53.2292 92.3945C55.649 92.6962 45.8627 90.5552 47.9391 90.7782C48.5081 90.8349 52.1453 91.6015 56.7153 92.5871C54.7862 91.5448 49.0641 89.7424 48.6334 89.5054C45.6358 87.7629 43.5804 86.3887 42.2022 85.2862C42.0871 86.0567 41.9245 86.8798 41.6799 87.7453C41.0721 90.0126 47.9667 90.8239 47.25 92.3101C47.1177 92.6881 46.9598 93.0678 46.7817 93.4563ZM143.473 104.037C143.479 106.276 143.494 108.55 143.606 105.765C143.627 105.283 143.644 104.506 143.658 103.515C143.598 103.684 143.537 103.857 143.473 104.037ZM142.775 106.034C142.878 106.934 142.893 109.972 143.093 109.286C143.147 109.091 143.228 106.675 143.303 104.52C143.138 104.989 142.963 105.492 142.775 106.034ZM139.217 106.027C139.226 105.897 139.235 105.772 139.243 105.651C139.315 104.617 139.209 104.592 139.063 105.619C139.114 105.754 139.166 105.89 139.217 106.027ZM85.651 95.4236C92.0114 97.218 101.523 99.7893 96.4765 98.2664C96.2108 98.1848 90.0208 96.4579 85.7466 95.2688C85.7147 95.3205 85.6827 95.372 85.651 95.4236ZM142.775 106.034C142.735 105.693 142.687 105.658 142.607 106.247C142.599 106.297 142.588 106.425 142.573 106.612C142.642 106.415 142.709 106.222 142.775 106.034ZM138.799 107.295C138.853 107.121 138.958 106.357 139.063 105.619C139.012 105.482 138.96 105.347 138.909 105.212C138.829 106.507 138.782 107.347 138.799 107.295ZM139.977 110.991C140.016 110.601 140.434 110.371 140.784 110.549C140.825 110.569 140.866 110.59 140.907 110.611C140.792 110.298 140.671 109.965 140.54 109.611C140.292 109.527 140.134 109.285 140.158 109.025C140.167 108.931 140.175 108.834 140.184 108.736C140.186 108.71 140.188 108.683 140.19 108.657C140.111 108.441 140.031 108.227 139.953 108.014C139.936 108.375 139.918 108.789 139.899 109.216C139.895 109.304 139.807 109.364 139.723 109.336C139.663 109.316 139.626 109.255 139.634 109.192C139.705 108.679 139.775 108.18 139.845 107.722C139.633 107.15 139.425 106.584 139.217 106.027C139.107 107.581 137.558 108.61 136.082 108.114C136.068 108.11 136.054 108.105 136.04 108.1C136.044 108.108 136.048 108.115 136.051 108.123C136.694 108.457 137.34 108.79 137.986 109.121C138.574 109.422 138.925 110.046 138.876 110.705C139.052 110.751 139.229 110.797 139.406 110.843C139.437 110.617 139.469 110.389 139.501 110.16C139.518 110.039 139.649 109.97 139.758 110.026C139.82 110.058 139.858 110.123 139.855 110.193C139.843 110.456 139.831 110.712 139.821 110.95C139.873 110.963 139.925 110.977 139.977 110.991ZM139.953 108.014C139.988 107.227 140.011 106.694 139.986 106.841C139.94 107.109 139.893 107.406 139.845 107.722C139.881 107.819 139.917 107.916 139.953 108.014ZM135.9 107.792C134.402 104.597 135.668 107.374 135.976 108.078C135.997 108.085 136.019 108.093 136.04 108.1C135.993 107.998 135.947 107.895 135.9 107.792ZM171.604 134.391C171.434 134.384 171.078 134.305 170.597 134.177C167.481 133.35 164.716 131.032 165.405 127.882C165.687 125.955 166.742 123.753 166.821 118.879C166.676 118.861 166.504 118.841 166.298 118.813C165.812 118.749 164.726 118.605 163.449 118.435C164.849 118.6 166.02 118.738 166.821 118.835C166.822 118.789 166.821 118.743 166.822 118.696C164.891 118.501 162.187 118.227 160.901 118.098C160.729 118.075 160.557 118.053 160.388 118.03C163.018 118.285 165.278 118.508 166.822 118.667C166.823 118.604 166.824 118.541 166.824 118.477C165.338 118.359 163.656 118.222 162.003 118.087C161.744 118.043 161.379 117.983 160.928 117.908C162.8 118.059 164.777 118.221 166.824 118.396C166.83 116.391 167.941 116.063 169.273 117.562C169.65 117.987 170.155 118.389 170.868 118.747C170.941 118.753 171.014 118.758 171.087 118.765C171.944 118.85 171.778 118.847 170.958 118.79C171.14 118.878 171.334 118.966 171.544 119.048C172.479 119.431 179.857 118.606 181.204 118.644C186.054 118.969 185.261 119.79 182.758 120.612C176.46 122.683 168.283 121.814 166.512 128.202C166.396 128.566 176.318 129.669 176.546 130.147C177.579 132.675 176.194 134.525 171.604 134.391ZM136.36 109.019C136.146 108.681 135.938 108.352 135.734 108.032C135.724 108.017 135.739 107.999 135.756 108.004C135.76 108.006 135.763 108.009 135.766 108.013C135.961 108.343 136.158 108.679 136.36 109.019ZM135.976 108.078C135.971 108.076 135.966 108.075 135.962 108.073L135.963 108.075C135.968 108.077 135.973 108.081 135.978 108.083C135.977 108.082 135.976 108.08 135.976 108.078ZM133.105 108.652C133.502 108.759 133.142 108.585 132.743 108.472C122.774 105.657 123.492 106.055 133.105 108.652ZM143.702 110.057C143.71 109.963 143.717 109.868 143.724 109.773C143.691 109.939 143.658 110.104 143.624 110.268C143.65 110.197 143.677 110.126 143.702 110.057ZM143.689 110.23C143.65 110.331 143.611 110.433 143.572 110.536C143.567 110.565 143.561 110.594 143.556 110.622C143.589 110.633 143.622 110.644 143.655 110.655C143.666 110.516 143.677 110.374 143.689 110.23ZM137.301 110.296C137.113 110.043 136.887 109.738 136.635 109.396C136.665 109.462 136.695 109.528 136.725 109.594C136.863 109.811 137.002 110.031 137.143 110.255C137.195 110.269 137.248 110.282 137.301 110.296ZM137.013 110.222C132.326 109.006 132.351 109.082 137.042 110.284C137.033 110.263 137.023 110.242 137.013 110.222ZM136.806 109.766C136.875 109.917 136.944 110.07 137.013 110.222C137.038 110.228 137.063 110.234 137.088 110.24C136.993 110.081 136.899 109.923 136.806 109.766ZM141.15 110.733C141.069 110.692 140.988 110.652 140.907 110.611C140.957 110.749 141.006 110.883 141.054 111.013C141.086 110.92 141.118 110.826 141.15 110.733ZM137.143 110.255C137.124 110.25 137.106 110.245 137.088 110.24C137.101 110.262 137.113 110.284 137.126 110.305C137.145 110.31 137.164 110.315 137.184 110.32C137.17 110.298 137.156 110.277 137.143 110.255ZM138.587 111.463C138.541 111.307 138.682 111.159 138.84 111.198C138.841 111.186 138.842 111.174 138.843 111.161C138.757 111.14 138.67 111.119 138.582 111.097C138.512 111.081 138.45 111.004 138.429 110.936C138.383 110.785 138.527 110.664 138.68 110.703C138.745 110.72 138.809 110.736 138.873 110.753C138.874 110.737 138.875 110.721 138.876 110.705C138.704 110.661 138.533 110.616 138.362 110.571C138.33 110.563 138.297 110.514 138.286 110.483C138.262 110.414 138.211 110.532 138.14 110.514C137.859 110.441 137.579 110.368 137.301 110.296C137.318 110.319 137.334 110.341 137.35 110.363C137.628 110.434 137.91 110.506 138.193 110.579C138.266 110.597 138.314 110.624 138.333 110.696C138.372 110.847 138.245 111.015 138.094 110.978C137.981 110.95 137.866 110.922 137.75 110.894C137.761 110.909 137.772 110.923 137.782 110.937C138.188 111.037 138.508 111.349 138.62 111.752C138.634 111.801 138.648 111.852 138.662 111.905C138.689 111.933 138.716 111.961 138.743 111.989C138.687 111.8 138.635 111.624 138.587 111.463ZM137.126 110.305C137.098 110.298 137.07 110.291 137.042 110.284C137.118 110.448 137.193 110.612 137.269 110.776C137.323 110.789 137.377 110.803 137.43 110.816C137.328 110.645 137.227 110.474 137.126 110.305ZM137.75 110.894C137.658 110.774 137.521 110.593 137.35 110.363C137.294 110.349 137.239 110.334 137.184 110.32C137.29 110.49 137.397 110.662 137.505 110.835C137.587 110.855 137.669 110.874 137.75 110.894ZM137.269 110.776C135.728 110.4 133.94 109.965 131.865 109.456C133.254 109.813 135.143 110.285 137.285 110.814C137.279 110.802 137.275 110.789 137.269 110.776ZM141.054 111.013C141.027 111.092 140.999 111.17 140.971 111.249C141.033 111.265 141.096 111.281 141.158 111.297C141.124 111.204 141.089 111.11 141.054 111.013ZM139.401 110.888C139.224 110.843 139.048 110.798 138.873 110.753C138.863 110.893 138.853 111.029 138.843 111.161C139.014 111.203 139.182 111.245 139.346 111.285C139.364 111.154 139.383 111.022 139.401 110.888ZM139.821 110.95C139.683 110.914 139.544 110.878 139.406 110.843C139.404 110.858 139.403 110.873 139.401 110.888C139.54 110.924 139.679 110.96 139.819 110.995C139.819 110.98 139.821 110.965 139.821 110.95ZM140.971 111.249C140.64 111.163 140.308 111.077 139.977 110.991C139.976 111.006 139.975 111.02 139.973 111.035C140.301 111.119 140.63 111.203 140.959 111.287C140.963 111.275 140.967 111.262 140.971 111.249ZM139.934 111.427C139.946 111.309 139.959 111.178 139.973 111.035C139.922 111.022 139.87 111.009 139.819 110.995C139.813 111.136 139.811 111.271 139.806 111.396C139.849 111.407 139.892 111.417 139.934 111.427ZM142.124 111.548C141.802 111.465 141.48 111.381 141.158 111.297C141.163 111.313 141.169 111.328 141.175 111.344C141.491 111.425 141.806 111.508 142.121 111.589C142.122 111.575 142.123 111.562 142.124 111.548ZM141.175 111.344C141.103 111.325 141.031 111.306 140.959 111.287C140.917 111.407 140.876 111.528 140.835 111.648C141.005 111.689 141.17 111.73 141.33 111.769C141.281 111.632 141.229 111.491 141.175 111.344ZM143.059 111.791C142.785 111.72 142.51 111.649 142.234 111.577C142.233 111.591 142.232 111.604 142.231 111.618C142.504 111.688 142.776 111.758 143.046 111.828C143.05 111.816 143.054 111.803 143.059 111.791ZM142.933 112.216C142.937 112.208 142.947 112.203 142.956 112.205C142.962 112.192 142.968 112.18 142.974 112.167C142.967 112.165 142.963 112.157 142.966 112.15C143.022 112.039 143.072 111.939 143.116 111.852C143.117 111.849 143.12 111.847 143.123 111.848C143.129 111.836 143.134 111.824 143.14 111.812C143.138 111.812 143.136 111.81 143.137 111.808C143.147 111.788 143.157 111.769 143.166 111.751C143.165 111.75 143.164 111.749 143.163 111.748C143.159 111.755 143.156 111.762 143.152 111.769C143.14 111.793 143.114 111.805 143.088 111.798C143.083 111.811 143.079 111.823 143.074 111.836C143.094 111.841 143.104 111.863 143.095 111.881C143.053 111.962 143.004 112.055 142.95 112.161C142.949 112.162 142.949 112.164 142.948 112.166C142.942 112.177 142.936 112.188 142.93 112.199C142.933 112.199 142.934 112.203 142.933 112.206C142.927 112.223 142.92 112.239 142.913 112.256C142.92 112.243 142.926 112.229 142.933 112.216ZM142.231 111.618C142.195 111.608 142.158 111.598 142.121 111.589C142.115 111.715 142.109 111.837 142.104 111.956C142.138 111.965 142.173 111.973 142.207 111.981C142.215 111.862 142.223 111.741 142.231 111.618ZM137.505 110.835C137.48 110.829 137.455 110.822 137.43 110.816C137.438 110.829 137.446 110.842 137.454 110.855C137.479 110.862 137.504 110.868 137.53 110.874C137.521 110.861 137.513 110.848 137.505 110.835ZM143.216 114.705C143.239 114.492 143.26 114.308 143.278 114.151C143.28 114.128 143.302 114.112 143.324 114.117C143.343 114.121 143.356 114.138 143.355 114.157C143.351 114.234 143.348 114.262 143.355 114.201C143.36 114.161 143.398 114.133 143.437 114.142C144.921 114.454 148.094 115.042 150.586 115.506C150.336 115.378 150.083 115.248 149.827 115.117C148.493 114.854 146.073 114.375 144.212 114.015C143.747 113.925 143.428 113.497 143.472 113.026C143.499 112.669 143.84 112.422 144.188 112.507C144.496 112.582 144.805 112.657 145.113 112.732C145.047 112.699 144.981 112.665 144.915 112.632C144.558 112.547 144.145 112.449 143.667 112.334C143.587 112.315 143.532 112.24 143.539 112.158C143.542 112.112 143.546 112.064 143.55 112.016C143.552 111.986 143.58 111.966 143.609 111.974C143.599 111.969 143.589 111.964 143.579 111.959C143.565 111.952 143.556 111.936 143.558 111.92C143.542 111.916 143.527 111.912 143.512 111.909C143.468 111.898 143.426 111.881 143.386 111.861C143.385 111.869 143.377 111.873 143.369 111.872C143.311 111.856 143.252 111.841 143.192 111.825C143.186 111.837 143.18 111.849 143.174 111.861C143.192 111.865 143.21 111.87 143.228 111.875C143.313 111.897 143.369 111.974 143.356 112.061C143.342 112.161 143.244 112.232 143.146 112.208C143.102 112.197 143.058 112.186 143.013 112.175C143.006 112.188 143 112.202 142.993 112.215C143.179 112.26 143.3 112.44 143.272 112.63C143.25 112.77 143.228 112.918 143.204 113.076C143.144 113.471 142.767 113.738 142.374 113.666C142.347 113.737 142.32 113.808 142.293 113.879C142.719 113.987 143.002 114.396 142.935 114.83C142.935 114.833 142.934 114.836 142.934 114.839C143.019 114.868 143.104 114.897 143.192 114.924C143.202 114.833 143.21 114.759 143.216 114.705ZM138.195 111.94C138.056 111.47 137.985 111.217 137.975 111.163C137.932 111.115 137.888 111.068 137.845 111.019C137.829 110.999 137.808 110.971 137.782 110.937C137.697 110.916 137.613 110.895 137.53 110.874C137.748 111.223 137.97 111.577 138.195 111.94ZM143.074 111.836C143.065 111.833 143.055 111.83 143.046 111.828C143.006 111.935 142.965 112.044 142.924 112.154C142.933 112.156 142.941 112.158 142.95 112.161C142.992 112.052 143.033 111.943 143.074 111.836ZM143.174 111.861C143.157 111.856 143.14 111.852 143.123 111.848C143.074 111.954 143.023 112.06 142.974 112.167C142.987 112.17 143 112.172 143.013 112.175C143.066 112.072 143.12 111.967 143.174 111.861ZM139.806 111.396C139.656 111.36 139.503 111.323 139.346 111.285C139.345 111.297 139.343 111.309 139.341 111.321C139.495 111.359 139.65 111.398 139.805 111.436C139.805 111.423 139.806 111.41 139.806 111.396ZM44.0981 98.5848C45.8361 98.6994 47.6795 98.8876 49.2739 99.086C47.6602 98.0166 42.2286 96.3815 48.1468 96.5907C48.149 96.5907 48.1516 96.5919 48.1549 96.5921C47.2642 96.1803 46.6486 95.8675 46.2592 95.6393C46.072 95.6012 45.8931 95.5629 45.7235 95.5272C45.2288 96.4395 44.6758 97.4392 44.0981 98.5848ZM140.835 111.648C140.548 111.578 140.248 111.504 139.934 111.427C139.933 111.441 139.931 111.454 139.929 111.467C140.224 111.54 140.522 111.611 140.821 111.684C140.826 111.672 140.831 111.66 140.835 111.648ZM139.805 111.436C139.769 112.479 139.779 112.906 139.929 111.467C139.888 111.457 139.846 111.446 139.805 111.436ZM137.98 111.167C137.973 111.149 137.972 111.147 137.975 111.163C137.977 111.164 137.978 111.165 137.98 111.167ZM142.104 111.956C141.858 111.897 141.601 111.835 141.33 111.769C141.336 111.783 141.341 111.798 141.346 111.812C141.597 111.874 141.849 111.935 142.102 111.997C142.103 111.983 142.103 111.97 142.104 111.956ZM142.924 112.154C142.697 112.099 142.458 112.042 142.207 111.981C142.206 111.995 142.205 112.009 142.204 112.022C142.438 112.08 142.674 112.137 142.91 112.194C142.915 112.181 142.919 112.167 142.924 112.154ZM142.085 113.612C142.119 113.218 142.159 112.659 142.204 112.022C142.17 112.014 142.136 112.005 142.102 111.997C142.071 112.665 142.047 113.218 142.032 113.603C142.049 113.606 142.067 113.609 142.085 113.612ZM142.93 112.199C142.923 112.197 142.917 112.196 142.91 112.194C142.89 112.247 142.871 112.301 142.851 112.354C142.879 112.3 142.905 112.248 142.93 112.199ZM142.748 112.688C142.828 112.533 142.91 112.376 142.993 112.215C142.981 112.212 142.968 112.208 142.956 112.205C142.912 112.3 142.868 112.395 142.824 112.49C142.854 112.412 142.883 112.334 142.913 112.256C142.882 112.318 142.849 112.384 142.815 112.451C142.779 112.547 142.743 112.644 142.707 112.742C142.667 112.827 142.628 112.912 142.589 112.997C142.617 112.942 142.645 112.888 142.674 112.833C142.574 113.102 142.471 113.379 142.365 113.664C142.368 113.665 142.371 113.665 142.374 113.666C142.501 113.334 142.626 113.008 142.748 112.688ZM155.62 114.656C155.253 114.536 154.888 114.417 154.528 114.3C154.895 114.423 155.255 114.543 155.607 114.661C155.611 114.659 155.616 114.658 155.62 114.656ZM142.815 112.451C142.827 112.419 142.839 112.386 142.851 112.354C142.85 112.357 142.848 112.359 142.847 112.362C142.797 112.47 142.742 112.585 142.684 112.71C142.73 112.62 142.773 112.534 142.815 112.451ZM156.792 115.057C161.407 116.6 164.183 117.521 162.16 116.817C160.704 116.324 158.783 115.689 156.826 115.047C156.814 115.051 156.803 115.054 156.792 115.057ZM138.283 112.079C138.254 112.033 138.224 111.986 138.195 111.94C138.224 112.038 138.258 112.145 138.293 112.262C138.307 112.287 138.344 112.27 138.336 112.243C138.317 112.186 138.3 112.132 138.283 112.079ZM142.684 112.71C142.543 112.988 142.384 113.3 142.214 113.636C142.225 113.638 142.236 113.64 142.248 113.642C142.411 113.298 142.557 112.984 142.684 112.71ZM142.176 113.887C142.185 113.868 142.206 113.859 142.226 113.863C142.246 113.868 142.265 113.873 142.286 113.878C142.312 113.806 142.339 113.735 142.365 113.664C142.325 113.657 142.303 113.614 142.32 113.576C142.409 113.384 142.499 113.19 142.589 112.997C142.475 113.218 142.362 113.432 142.255 113.639C142.254 113.641 142.251 113.643 142.248 113.642C142.228 113.684 142.209 113.726 142.189 113.769C142.176 113.794 142.162 113.819 142.149 113.844C142.151 113.845 142.151 113.846 142.151 113.848C142.139 113.872 142.127 113.897 142.116 113.921C142.113 113.926 142.113 113.932 142.115 113.937C142.121 113.954 142.144 113.955 142.152 113.939C142.16 113.922 142.168 113.905 142.176 113.887ZM143.337 113.847C143.323 113.844 143.313 113.829 143.315 113.814C143.419 112.933 143.395 113.403 143.371 113.821C143.37 113.838 143.354 113.85 143.337 113.847ZM142.214 113.636C142.169 113.627 142.126 113.619 142.085 113.612C142.079 113.682 142.074 113.747 142.068 113.807C142.07 113.812 142.072 113.817 142.074 113.822C142.087 113.826 142.1 113.83 142.114 113.833C142.147 113.767 142.181 113.701 142.214 113.636ZM142.029 113.696C142.03 113.666 142.031 113.635 142.032 113.603C142.015 113.6 142.001 113.617 142.007 113.633C142.014 113.654 142.021 113.675 142.029 113.696ZM141.937 113.704C141.906 113.626 141.836 113.57 141.753 113.558C141.774 113.618 141.796 113.681 141.819 113.747C141.864 113.762 141.915 113.776 141.973 113.793C141.961 113.763 141.949 113.734 141.937 113.704ZM139.217 113.595C139.166 113.513 139.116 113.431 139.066 113.35C139.1 113.471 139.134 113.596 139.17 113.725C139.225 113.816 139.28 113.907 139.335 113.998C139.295 113.863 139.256 113.728 139.217 113.595ZM166.824 118.477C168.616 118.619 170.124 118.732 170.958 118.79C170.928 118.775 170.897 118.762 170.868 118.747C169.496 118.625 168.145 118.508 166.824 118.396C166.824 118.423 166.824 118.45 166.824 118.477ZM150.685 115.557C148.214 115.096 145.274 114.548 144.478 114.423C142.233 114.077 143.671 114.467 145.909 114.925C146.73 115.093 149.125 115.522 151.398 115.925C151.164 115.804 150.927 115.681 150.685 115.557ZM141.979 114.204C140.89 111.115 141.538 112.721 142.044 113.964C142.059 114.001 142.057 114.043 142.04 114.079C142.032 114.14 142.026 114.182 142.021 114.201C142.017 114.211 142.017 114.184 142.018 114.124C142.005 114.151 141.992 114.178 141.979 114.204ZM153.724 116.099C153.176 115.988 151.989 115.766 150.586 115.506C150.619 115.523 150.652 115.54 150.685 115.557C153.369 116.057 155.499 116.455 153.724 116.099ZM166.822 118.667C167.991 118.788 167.99 118.815 166.822 118.696C166.822 118.687 166.822 118.677 166.822 118.667ZM143.607 115.046C145.368 115.366 148.992 115.961 152.595 116.548C152.321 116.404 152.041 116.257 151.753 116.107C150.99 115.98 150.427 115.883 150.23 115.854C142.526 114.637 150.903 116.113 148.704 115.822C148.273 115.767 144.773 115.19 143.301 114.957C143.402 114.988 143.503 115.018 143.607 115.046ZM166.821 118.879C167.781 119 167.524 118.94 167.941 118.979C168.12 118.993 167.687 118.939 166.821 118.835C166.821 118.85 166.821 118.865 166.821 118.879ZM143.19 114.941C143.226 114.946 143.263 114.951 143.301 114.957C143.265 114.946 143.228 114.936 143.192 114.924C143.191 114.93 143.191 114.935 143.19 114.941ZM143.19 114.941C143.089 114.925 143 114.911 142.925 114.899C142.924 114.905 142.924 114.911 142.923 114.917C143.001 114.932 143.089 114.949 143.187 114.967C143.188 114.958 143.189 114.949 143.19 114.941ZM157.335 117.625C158.299 117.7 159.303 117.778 160.341 117.861C160.905 117.945 161.345 118.012 161.673 118.06C160.723 117.982 159.787 117.906 158.909 117.833C158.289 117.751 157.745 117.679 157.335 117.625ZM149.439 116.222C149.395 116.207 149.358 116.196 149.328 116.192C146.76 115.701 145.009 115.435 143.607 115.046C143.452 115.018 143.312 114.991 143.187 114.967C143.178 115.055 143.166 115.157 143.154 115.271C145.226 115.584 147.389 115.911 149.439 116.222ZM127.599 112.417C119.844 111.125 117.458 110.838 125.858 112.196C128.466 112.617 128.06 112.494 127.599 112.417ZM153.677 117.12C153.454 117.001 153.224 116.88 152.989 116.756C151.877 116.588 150.678 116.41 149.439 116.222C149.549 116.258 149.701 116.324 149.886 116.414C152.366 116.798 154.107 117.074 151.812 116.754C151.459 116.705 150.863 116.622 150.079 116.512C150.168 116.557 150.264 116.605 150.364 116.659C151.423 116.806 152.516 116.958 153.677 117.12ZM133.331 114.266C136.042 114.652 137.7 110.223 138.522 112.834C138.711 113.435 138.946 114.187 139.221 115.077C139.226 115.092 139.238 115.103 139.253 115.105C139.235 115.066 139.218 115.026 139.2 114.987C139.196 114.987 139.192 114.983 139.191 114.979C139.188 114.968 139.184 114.956 139.181 114.944C139.158 114.895 139.135 114.845 139.112 114.795C139.107 114.784 139.116 114.773 139.127 114.775C139.115 114.736 139.103 114.698 139.091 114.66C139.063 114.655 139.039 114.637 139.027 114.611C139.003 114.559 138.98 114.507 138.956 114.454C138.962 114.477 138.969 114.499 138.976 114.522C138.993 114.58 138.944 114.637 138.883 114.628C138.845 114.623 138.812 114.648 138.788 114.679C138.779 114.691 138.77 114.694 138.762 114.686C138.725 114.651 138.7 114.601 138.649 114.593C133.067 113.757 129.807 113.289 134.769 114.121C135.59 114.255 137.205 114.492 138.986 114.754C139.024 114.759 139.056 114.786 139.068 114.824C139.09 114.894 139.031 114.964 138.958 114.954C128.371 113.47 116.782 111.854 126.598 113.302C129.115 113.664 131.334 113.982 133.331 114.266ZM157.969 117.795C158.246 117.828 158.522 117.86 158.795 117.892C158.634 117.875 158.431 117.855 158.178 117.828C157.77 117.787 157.303 117.736 156.787 117.682C157.185 117.72 157.58 117.758 157.969 117.795ZM143.143 115.372C143.147 115.338 143.15 115.304 143.154 115.271C143.061 115.257 142.967 115.243 142.874 115.229C142.869 115.262 142.865 115.295 142.86 115.329C142.955 115.343 143.05 115.358 143.143 115.372ZM150.079 116.512C150.011 116.477 149.947 116.443 149.886 116.414C147.99 116.12 145.662 115.762 144.379 115.559C143.997 115.499 143.581 115.439 143.143 115.372C143.137 115.425 143.131 115.48 143.125 115.537C145.937 115.932 148.426 116.281 150.079 116.512ZM141.573 115.052C141.579 115.041 141.591 115.035 141.603 115.037C141.621 115.039 141.632 115.059 141.624 115.076C141.618 115.091 141.611 115.105 141.605 115.119C141.599 115.131 141.587 115.138 141.574 115.136C141.555 115.133 141.544 115.112 141.553 115.095C141.56 115.08 141.566 115.066 141.573 115.052ZM139.853 114.862C139.829 114.823 139.862 114.775 139.907 114.781C139.912 114.782 139.917 114.783 139.923 114.783C139.938 114.786 139.952 114.795 139.961 114.809C139.984 114.848 139.952 114.897 139.907 114.89C139.901 114.889 139.896 114.888 139.891 114.888C139.875 114.885 139.861 114.876 139.853 114.862ZM143.16 116.085C143.706 116.146 146.968 116.524 150.959 116.985C150.746 116.866 150.547 116.756 150.364 116.659C147.896 116.316 145.618 115.997 143.112 115.648C143.098 115.781 143.083 115.924 143.066 116.075C143.097 116.078 143.129 116.081 143.16 116.085ZM139.538 115.035C139.516 114.958 139.499 114.897 139.487 114.855C139.482 114.838 139.467 114.825 139.449 114.823C139.341 114.807 139.234 114.791 139.127 114.775C139.144 114.831 139.163 114.887 139.181 114.944C139.187 114.959 139.194 114.973 139.2 114.987C139.313 115.003 139.426 115.019 139.538 115.035ZM154.204 117.404C154.19 117.396 154.176 117.388 154.161 117.38C153.984 117.367 153.808 117.354 153.635 117.341C153.827 117.362 154.017 117.383 154.204 117.404ZM143.112 115.648C143.116 115.61 143.121 115.573 143.125 115.537C143.028 115.524 142.931 115.51 142.834 115.496C142.829 115.526 142.825 115.555 142.821 115.585C142.819 115.592 142.818 115.599 142.816 115.606C142.915 115.62 143.014 115.634 143.112 115.648ZM151.093 117.062C151.393 117.095 151.692 117.129 151.988 117.162C152.335 117.182 152.67 117.201 152.983 117.219C152.294 117.139 151.616 117.061 150.959 116.985C151.003 117.01 151.048 117.036 151.093 117.062ZM141.444 115.323C141.45 115.311 141.462 115.305 141.475 115.306C141.495 115.309 141.506 115.33 141.498 115.348C141.491 115.364 141.483 115.38 141.476 115.396C141.471 115.408 141.458 115.415 141.445 115.413C141.425 115.41 141.413 115.389 141.422 115.37C141.429 115.355 141.437 115.339 141.444 115.323ZM140.055 115.197C140.031 115.158 140.063 115.109 140.108 115.115C140.113 115.115 140.118 115.116 140.123 115.117C140.14 115.119 140.154 115.128 140.162 115.142C140.186 115.182 140.154 115.231 140.108 115.225C140.103 115.224 140.098 115.223 140.094 115.223C140.077 115.22 140.063 115.211 140.055 115.197ZM139.624 115.157C139.633 115.13 139.642 115.104 139.651 115.077C139.649 115.068 139.646 115.059 139.644 115.05C139.608 115.045 139.573 115.04 139.538 115.035C139.548 115.07 139.56 115.108 139.572 115.15C139.589 115.152 139.606 115.154 139.624 115.157ZM153.042 117.325C152.632 117.286 152.221 117.247 151.809 117.208C151.682 117.198 151.557 117.189 151.433 117.18C152.008 117.231 152.548 117.28 153.042 117.325ZM143.057 116.154C143.06 116.127 143.063 116.101 143.066 116.075C142.955 116.064 142.847 116.053 142.742 116.042C142.738 116.066 142.733 116.091 142.729 116.115C142.837 116.128 142.946 116.141 143.057 116.154ZM146.513 116.834C146.871 116.858 147.28 116.886 147.734 116.917C146.65 116.854 145.854 116.809 145.74 116.802C145.705 116.799 145.672 116.796 145.639 116.794C145.925 116.808 146.216 116.82 146.513 116.834ZM141.167 115.897C141.171 115.887 141.182 115.881 141.193 115.882C141.199 115.883 141.204 115.884 141.21 115.884C141.228 115.886 141.239 115.906 141.232 115.923C141.227 115.934 141.216 115.94 141.204 115.938C141.199 115.938 141.193 115.937 141.188 115.936C141.17 115.934 141.159 115.914 141.167 115.897ZM140.438 115.837C140.43 115.823 140.441 115.805 140.457 115.807C140.491 115.81 140.525 115.814 140.561 115.817C140.567 115.818 140.573 115.822 140.577 115.828C140.586 115.843 140.574 115.862 140.556 115.859C140.521 115.855 140.487 115.85 140.453 115.846C140.447 115.845 140.441 115.842 140.438 115.837ZM139.745 115.751C139.743 115.744 139.748 115.738 139.756 115.738C139.782 115.741 139.81 115.743 139.84 115.746C139.845 115.746 139.849 115.75 139.85 115.754C139.853 115.763 139.846 115.771 139.837 115.769C139.808 115.766 139.78 115.762 139.753 115.758C139.749 115.758 139.746 115.755 139.745 115.751ZM145.204 116.761C144.443 116.705 144.607 116.712 145.515 116.769C145.41 116.766 145.307 116.764 145.204 116.761ZM143.028 116.424C143.03 116.41 143.032 116.397 143.033 116.383C142.935 116.374 142.838 116.365 142.741 116.356C142.746 116.37 142.751 116.385 142.756 116.399C142.847 116.407 142.937 116.416 143.028 116.424ZM139.378 116.046C139.411 116.05 139.436 116.018 139.426 115.986C139.413 115.943 139.353 115.943 139.338 115.985C139.332 116.004 139.325 116.022 139.319 116.041C139.338 116.043 139.358 116.044 139.378 116.046ZM141.015 116.211C141.019 116.202 141.028 116.197 141.038 116.198C141.048 116.199 141.058 116.2 141.068 116.201C141.084 116.202 141.094 116.219 141.087 116.234C141.083 116.243 141.074 116.248 141.064 116.247C141.054 116.247 141.044 116.246 141.033 116.245C141.017 116.243 141.007 116.226 141.015 116.211ZM140.919 116.187C140.919 116.187 140.92 116.186 140.92 116.187C140.92 116.187 140.92 116.187 140.92 116.187C140.913 116.202 140.906 116.217 140.899 116.231C140.899 116.232 140.898 116.232 140.898 116.232C140.897 116.232 140.896 116.231 140.896 116.23C140.904 116.216 140.911 116.201 140.919 116.187ZM140.657 116.201C140.647 116.184 140.66 116.164 140.679 116.165C140.711 116.168 140.743 116.171 140.776 116.174C140.783 116.174 140.79 116.178 140.794 116.185C140.804 116.201 140.791 116.222 140.771 116.22C140.739 116.218 140.707 116.215 140.675 116.212C140.667 116.211 140.661 116.207 140.657 116.201ZM139.851 116.122C139.847 116.106 139.86 116.09 139.877 116.091C139.896 116.093 139.915 116.095 139.934 116.097C139.944 116.098 139.953 116.105 139.955 116.114C139.96 116.131 139.947 116.147 139.93 116.145C139.911 116.144 139.891 116.142 139.872 116.14C139.862 116.139 139.854 116.132 139.851 116.122ZM140.792 116.426C140.791 116.424 140.791 116.422 140.792 116.421C140.812 116.384 140.835 116.343 140.859 116.299C140.859 116.298 140.862 116.298 140.862 116.3C140.863 116.3 140.863 116.301 140.862 116.302C140.841 116.343 140.821 116.384 140.8 116.425C140.798 116.429 140.794 116.429 140.792 116.426ZM134.199 115.629C134.588 115.666 136.621 115.849 139.302 116.089C139.308 116.073 139.313 116.057 139.319 116.041C134.313 115.582 131.496 115.339 134.199 115.629ZM142.998 116.703C142.999 116.694 143 116.684 143.001 116.675C142.951 116.672 142.901 116.669 142.851 116.667C142.855 116.678 142.859 116.689 142.862 116.699C142.907 116.701 142.953 116.702 142.998 116.703ZM139.293 116.516C139.44 116.522 139.548 116.379 139.504 116.238C139.478 116.155 139.406 116.098 139.319 116.091C139.314 116.09 139.308 116.09 139.302 116.089C139.254 116.229 139.205 116.37 139.157 116.51C139.202 116.512 139.247 116.514 139.293 116.516ZM140.828 116.595C140.834 116.584 140.845 116.577 140.857 116.577C140.866 116.578 140.875 116.578 140.884 116.578C140.881 116.574 140.878 116.569 140.875 116.565C140.864 116.546 140.863 116.524 140.873 116.505C140.879 116.492 140.885 116.479 140.891 116.466C140.905 116.438 140.945 116.436 140.962 116.463C140.969 116.474 140.969 116.488 140.964 116.5C140.951 116.527 140.939 116.554 140.927 116.58C132.095 116.206 132.599 116.386 140.895 116.64C140.906 116.64 140.913 116.629 140.908 116.62C140.902 116.632 140.89 116.64 140.877 116.64C140.87 116.639 140.862 116.639 140.855 116.639C140.832 116.638 140.818 116.615 140.828 116.595ZM141.895 116.672C141.829 116.67 141.774 116.62 141.766 116.555C141.711 116.11 141.763 115.987 142.019 116.48C142.065 116.57 141.996 116.675 141.895 116.672ZM140.927 116.58C140.912 116.58 140.898 116.579 140.884 116.578C140.892 116.592 140.9 116.606 140.908 116.62C140.914 116.607 140.921 116.594 140.927 116.58ZM43.4302 100.757C43.2601 100.735 43.1597 100.554 43.2296 100.398C43.2766 100.292 43.3886 100.234 43.5024 100.254C43.7158 100.291 43.9361 100.329 44.1632 100.368C45.2457 100.561 61.8752 103.273 50.4467 101.803C49.9534 101.742 45.7325 101.047 43.4302 100.757ZM139.986 116.587C139.979 116.565 139.996 116.544 140.019 116.545C140.032 116.545 140.046 116.546 140.059 116.547C140.073 116.547 140.086 116.557 140.09 116.571C140.096 116.592 140.08 116.614 140.057 116.613C140.043 116.612 140.03 116.612 140.017 116.611C140.002 116.611 139.99 116.601 139.986 116.587ZM139.157 116.51C132.781 116.258 133.09 116.379 139.132 116.583C139.14 116.559 139.148 116.535 139.157 116.51ZM142.684 119.569C142.666 119.736 142.424 119.748 142.388 119.584C142.368 119.489 142.346 119.392 142.324 119.295C142.32 119.274 142.319 119.252 142.321 119.23C142.33 119.157 142.339 119.084 142.347 119.012C142.303 118.939 142.26 118.866 142.216 118.794C142.213 118.788 142.21 118.782 142.209 118.776C142.194 118.709 142.284 118.674 142.319 118.732C142.336 118.761 142.353 118.79 142.37 118.819C142.389 118.661 142.408 118.505 142.426 118.352C142.451 118.15 142.723 118.109 142.798 118.299C142.81 118.329 142.816 118.366 142.813 118.398C142.777 118.723 142.741 119.053 142.706 119.381C143.176 120.178 143.65 120.989 144.127 121.809C144.128 121.811 144.129 121.813 144.13 121.815C144.146 121.858 144.086 121.888 144.062 121.848C143.594 121.075 143.134 120.316 142.684 119.569ZM140.305 117.398C140.304 117.394 140.302 117.39 140.3 117.386C140.282 117.422 140.264 117.458 140.247 117.493C140.248 117.497 140.249 117.502 140.251 117.506C140.269 117.47 140.287 117.434 140.305 117.398ZM140.3 117.68C140.283 117.622 140.267 117.564 140.251 117.506C140.194 117.617 140.138 117.725 140.084 117.831C140.077 117.846 140.075 117.863 140.08 117.879C140.097 117.935 140.174 117.941 140.2 117.888C140.233 117.819 140.267 117.749 140.3 117.68ZM140.415 117.682C140.403 117.642 140.392 117.601 140.38 117.56C140.376 117.553 140.373 117.545 140.37 117.538C140.347 117.585 140.323 117.633 140.3 117.68C140.315 117.731 140.33 117.783 140.345 117.835C140.368 117.784 140.392 117.733 140.415 117.682ZM141.894 123.269C141.653 122.391 140.938 119.893 140.345 117.835C140.289 117.956 140.233 118.076 140.177 118.196C140.635 119.696 141.151 121.403 141.717 123.286C141.745 123.382 141.884 123.368 141.894 123.269ZM140.136 118.286C140.15 118.256 140.163 118.226 140.177 118.196C137.598 109.744 136.917 107.876 140.136 118.286ZM42.1092 103.116C44.3515 103.322 46.7517 103.558 48.698 103.755C46.3026 102.986 44.017 102.263 42.633 101.782C42.4575 102.209 42.2822 102.652 42.1092 103.116ZM142.706 119.381C142.594 119.193 142.481 119.006 142.37 118.819C142.363 118.883 142.355 118.947 142.347 119.012C142.459 119.197 142.571 119.383 142.684 119.569C142.691 119.507 142.699 119.444 142.706 119.381ZM42.1092 103.116C35.535 102.511 30.3197 102.149 41.8884 103.723C41.962 103.517 42.035 103.315 42.1092 103.116ZM41.2316 105.711C45.5662 105.66 42.2512 104.875 46.1983 104.957C48.7097 105.031 52.4024 105.538 54.8766 105.812C54.251 105.588 53.562 105.352 52.837 105.109C48.6378 104.569 43.7648 103.977 42.3025 103.781C42.1621 103.762 42.0242 103.742 41.8884 103.723C41.6646 104.351 41.4456 105.012 41.2316 105.711ZM142.252 123.421C142.266 123.316 142.282 123.162 142.304 122.969C142.309 122.933 142.305 122.896 142.294 122.861C142.27 122.785 142.249 122.717 142.231 122.657C142.179 122.478 142.394 122.2 142.414 122.015C142.309 121.782 142.201 121.547 142.093 121.31C142.022 121.982 141.953 122.647 141.894 123.269C141.924 123.379 141.95 123.462 141.964 123.517C142.032 123.785 142.089 124.011 142.135 124.201C142.171 123.961 142.212 123.701 142.252 123.421ZM37.3947 105.634C35.6475 105.543 20.6534 104.612 31.961 106.097C33.405 106.281 38.5647 106.693 40.8598 106.987C40.9814 106.548 41.1054 106.123 41.2316 105.711C40.3292 105.721 39.0948 105.702 37.3947 105.634ZM145.599 124.393C145.599 124.392 145.599 124.392 145.599 124.391C145.596 124.383 145.607 124.377 145.612 124.385C145.724 124.58 145.838 124.775 145.949 124.971C145.832 124.778 145.716 124.585 145.599 124.393ZM39.359 114.169C40.3967 114.1 41.7609 114.077 43.3195 114.079C44.1068 112.86 44.6006 111.667 45.0714 110.548C41.2442 109.123 45.5657 108.392 41.9029 107.164C41.7538 107.113 41.3805 107.053 40.8598 106.987C40.288 109.051 39.77 111.419 39.359 114.169ZM142.422 125.63C142.258 125.013 142.497 125.681 142.135 124.201C142.104 124.411 142.118 124.625 142.18 124.827C142.26 125.092 142.341 125.359 142.422 125.63ZM143.529 124.476C146.422 130.881 147.994 134.584 146.046 131.163C145.977 131.025 145.205 129.209 144.39 127.297C144.105 126.378 143.799 125.385 143.529 124.476ZM166.37 134.461C169.317 136.068 163.777 134.143 159.705 132.709C159.351 132.584 159.011 132.423 158.692 132.223C157.724 131.622 151.43 128.757 150.663 128.384C138.662 122.609 154.847 130.125 155.483 130.35C158.574 131.419 166.355 133.389 169.356 134.688C170.114 135.016 170.333 135.177 169.528 135.021C168.827 134.872 161.976 132.427 161.217 132.178C149.344 128.154 166.032 134.232 166.37 134.461ZM142.837 126.966C145.727 136.316 146.012 137.664 142.694 126.539C142.732 126.656 142.776 126.788 142.837 126.966ZM165.267 135.479C166.301 136.342 166.207 136.504 165.04 135.937C164.637 135.741 164.919 135.197 165.267 135.479Z" fill="white"/>
</svg>
